{"glyphs":{"0":{"ha":1260,"x_min":0,"x_max":0,"o":"m 790 972 b 1179 606 1072 972 1179 871 l 1179 367 b 790 0 1179 101 1072 0 l 471 0 b 82 367 189 0 82 101 l 82 606 b 471 972 82 871 189 972 m 290 381 b 471 192 290 233 328 192 l 790 192 b 971 381 932 192 971 233 l 971 592 b 790 781 971 739 932 781 l 471 781 b 290 592 328 781 290 739 "},"1":{"ha":469,"x_min":0,"x_max":0,"o":"m 249 972 b 378 854 340 972 378 935 l 378 31 b 346 0 378 10 367 0 l 200 0 b 169 31 179 0 169 10 l 169 751 b 140 781 169 772 160 781 l 63 781 b 32 811 43 781 32 790 l 32 942 b 63 972 32 963 43 972 "},"2":{"ha":1199,"x_min":0,"x_max":0,"o":"m 879 972 b 1125 746 1039 972 1125 889 l 1125 649 b 882 401 1125 492 1036 401 l 358 401 b 286 322 308 401 286 375 l 286 221 b 314 192 286 201 294 192 l 1093 192 b 1124 161 1113 192 1124 182 l 1124 31 b 1093 0 1124 10 1113 0 l 206 0 b 78 118 114 0 78 36 l 78 332 b 319 581 78 490 164 581 l 843 581 b 917 658 893 581 917 606 l 917 703 b 843 781 917 756 892 781 l 144 781 b 113 811 124 781 113 790 l 113 942 b 144 972 113 963 124 972 "},"3":{"ha":1171,"x_min":0,"x_max":0,"o":"m 819 972 b 1083 743 1007 972 1083 901 l 1083 676 b 1001 500 1083 599 1056 540 b 1090 321 1061 463 1090 403 l 1090 240 b 844 0 1090 83 1018 0 l 100 0 b 69 31 79 0 69 10 l 69 160 b 100 192 69 181 79 192 l 782 192 b 881 278 853 192 881 218 l 881 322 b 764 401 881 381 854 401 l 108 401 b 78 432 88 401 78 413 l 78 550 b 108 581 78 569 88 581 l 764 581 b 879 654 854 581 879 600 l 879 696 b 779 781 879 754 851 781 l 100 781 b 69 813 79 781 69 792 l 69 942 b 100 972 69 963 79 972 "},"4":{"ha":1257,"x_min":0,"x_max":0,"o":"m 715 931 b 854 972 763 963 790 972 l 954 972 b 1075 831 1039 972 1075 938 l 1075 374 l 1189 374 b 1219 343 1208 374 1219 363 l 1219 217 b 1189 186 1219 197 1208 186 l 1075 186 l 1075 31 b 1044 0 1075 10 1065 0 l 897 0 b 867 31 876 0 867 10 l 867 186 l 139 186 b 50 271 82 186 50 219 l 50 397 b 104 511 50 453 64 483 m 279 383 b 290 374 279 378 283 374 l 867 374 l 867 774 b 856 788 867 783 863 788 l 846 788 b 817 776 836 788 828 783 l 288 411 b 279 394 282 407 279 401 l 279 383 "},"5":{"ha":1199,"x_min":0,"x_max":0,"o":"m 1058 972 b 1089 942 1078 972 1089 963 l 1089 811 b 1058 781 1089 790 1078 781 l 311 781 b 282 751 292 781 282 772 l 282 610 b 311 581 282 590 292 581 l 882 581 b 1125 343 1039 581 1125 497 l 1125 226 b 879 0 1125 83 1039 0 l 110 0 b 79 31 89 0 79 10 l 79 161 b 110 192 79 182 89 192 l 847 192 b 919 269 896 192 919 217 l 919 324 b 847 401 919 376 897 401 l 206 401 b 78 519 114 401 78 438 l 78 854 b 206 972 78 936 114 972 "},"6":{"ha":1206,"x_min":0,"x_max":0,"o":"m 1060 972 b 1090 942 1079 972 1090 963 l 1090 811 b 1060 781 1090 790 1079 781 l 471 781 b 290 599 326 781 290 744 l 290 583 l 885 583 b 1128 336 1053 583 1128 497 l 1128 235 b 875 0 1128 81 1051 0 l 471 0 b 82 367 189 0 82 101 l 82 606 b 471 972 82 871 189 972 m 290 368 b 471 189 290 225 325 189 l 838 189 b 919 265 897 189 919 210 l 919 336 b 839 407 919 389 899 407 l 290 407 "},"7":{"ha":1151,"x_min":0,"x_max":0,"o":"m 1014 972 b 1103 888 1071 972 1103 939 l 1103 792 b 1049 663 1103 735 1090 708 l 458 26 b 399 0 438 6 426 0 l 204 0 b 190 38 183 0 176 24 l 856 744 b 865 767 861 751 865 758 l 865 775 b 854 786 865 782 861 786 l 63 786 b 32 817 43 786 32 796 l 32 942 b 63 972 32 963 43 972 "},"8":{"ha":1256,"x_min":0,"x_max":0,"o":"m 904 972 b 1168 743 1090 972 1168 901 l 1168 676 b 1082 497 1168 597 1138 536 b 1175 321 1144 461 1175 403 l 1175 240 b 929 0 1175 83 1104 0 l 326 0 b 82 240 153 0 82 83 l 82 321 b 174 497 82 403 111 461 b 88 676 118 536 88 597 l 88 743 b 351 972 88 901 165 972 m 290 268 b 390 190 290 210 315 190 l 865 190 b 967 268 940 190 967 211 l 967 328 b 849 407 967 388 938 407 l 407 407 b 290 328 319 407 290 388 m 290 649 b 407 575 290 593 319 575 l 849 575 b 965 649 936 575 965 593 l 965 700 b 864 782 965 757 936 782 l 392 782 b 290 700 319 782 290 757 "},"9":{"ha":1206,"x_min":0,"x_max":0,"o":"m 736 972 b 1125 606 1018 972 1125 871 l 1125 367 b 736 0 1125 101 1018 0 l 142 0 b 110 31 121 0 110 10 l 110 161 b 142 192 110 182 121 192 l 736 192 b 917 374 879 192 917 228 l 917 393 l 332 393 b 78 631 165 393 78 474 l 78 722 b 342 972 78 892 163 972 m 285 647 b 365 569 285 593 306 569 l 917 569 l 917 604 b 736 783 917 747 882 783 l 365 783 b 285 710 306 783 285 764 l 285 647 "},"\u0000":{"ha":0,"x_min":0,"x_max":0,"o":""}," ":{"ha":465,"x_min":0,"x_max":0,"o":""},"\u0017":{"ha":465,"x_min":0,"x_max":0,"o":""},"!":{"ha":369,"x_min":0,"x_max":0,"o":"m 253 194 b 283 164 274 194 283 185 l 283 31 b 253 0 283 10 274 0 l 117 0 b 86 31 96 0 86 10 l 86 164 b 117 194 86 185 96 194 m 263 1021 b 293 989 283 1021 294 1010 l 256 364 b 225 333 254 343 246 333 l 144 333 b 114 364 124 333 115 343 l 76 989 b 107 1021 75 1010 86 1021 "},"\"":{"ha":682,"x_min":0,"x_max":0,"o":"m 263 1042 b 289 1004 282 1042 290 1029 l 257 639 b 226 608 254 617 244 608 l 150 608 b 119 639 132 608 122 617 l 88 1004 b 114 1042 86 1029 94 1042 m 568 1042 b 594 1004 588 1042 596 1029 l 563 639 b 532 608 560 617 550 608 l 456 608 b 425 639 438 608 428 617 l 393 1004 b 419 1042 392 1029 400 1042 "},"#":{"ha":1185,"x_min":0,"x_max":0,"o":"m 296 747 l 296 947 b 321 972 296 964 304 972 l 404 972 b 429 947 421 972 429 964 l 429 747 l 758 747 l 758 947 b 783 972 758 964 767 972 l 865 972 b 890 947 882 972 890 964 l 890 747 l 1078 747 b 1103 722 1094 747 1103 739 l 1103 639 b 1078 614 1103 622 1094 614 l 890 614 l 890 358 l 1078 358 b 1103 333 1094 358 1103 350 l 1103 250 b 1078 225 1103 233 1094 225 l 890 225 l 890 25 b 865 0 890 8 882 0 l 783 0 b 758 25 767 0 758 8 l 758 225 l 429 225 l 429 25 b 404 0 429 8 421 0 l 321 0 b 296 25 304 0 296 8 l 296 225 l 108 225 b 83 250 92 225 83 233 l 83 333 b 108 358 83 350 92 358 l 296 358 l 296 614 l 108 614 b 83 639 92 614 83 622 l 83 722 b 108 747 83 739 92 747 m 758 358 l 758 614 l 429 614 l 429 358 "},"$":{"ha":1133,"x_min":0,"x_max":0,"o":"m 611 1056 b 636 1031 628 1056 636 1047 l 636 926 l 1006 926 b 1031 899 1022 926 1031 917 l 1031 769 b 1006 742 1031 751 1022 742 l 636 742 l 636 583 l 847 583 b 1064 357 993 583 1064 504 l 1064 271 b 846 53 1064 131 997 53 l 636 53 l 636 -58 b 611 -83 636 -75 628 -83 l 538 -83 b 513 -58 521 -83 513 -75 l 513 53 l 111 53 b 86 81 94 53 86 63 l 86 210 b 111 238 86 228 94 238 l 513 238 l 513 411 l 301 411 b 86 642 158 411 86 493 l 86 710 b 301 926 86 850 151 926 l 513 926 l 513 1031 b 538 1056 513 1047 521 1056 m 636 238 l 808 238 b 867 300 851 238 867 254 l 867 354 b 806 411 867 397 851 411 l 636 411 m 283 631 b 349 583 283 599 307 583 l 513 583 l 513 742 l 346 742 b 283 682 306 742 283 721 l 283 631 "},"%":{"ha":1585,"x_min":0,"x_max":0,"o":"m 1225 972 b 1235 947 1240 972 1244 958 l 485 14 b 447 0 476 4 468 0 l 363 0 b 353 25 347 0 343 14 l 1103 958 b 1139 972 1110 968 1119 972 m 1289 535 b 1503 333 1444 535 1503 479 l 1503 201 b 1289 0 1503 56 1444 0 l 1113 0 b 900 201 958 0 900 56 l 900 333 b 1113 535 900 479 958 535 m 471 972 b 685 771 626 972 685 917 l 685 639 b 471 438 685 493 626 438 l 294 438 b 82 639 140 438 82 493 l 82 771 b 294 972 82 917 140 972 m 1022 213 b 1119 111 1022 133 1044 111 l 1283 111 b 1381 213 1360 111 1381 133 l 1381 322 b 1283 424 1381 401 1360 424 l 1119 424 b 1022 322 1044 424 1022 401 m 204 650 b 301 549 204 571 226 549 l 465 549 b 563 650 542 549 563 571 l 563 760 b 465 861 563 839 542 861 l 301 861 b 204 760 226 861 204 839 "},"&":{"ha":1214,"x_min":0,"x_max":0,"o":"m 672 1068 b 819 925 768 1068 819 1013 l 819 814 b 694 583 819 689 790 632 l 631 550 l 765 426 l 925 614 b 964 631 935 626 944 631 l 1125 631 b 1144 589 1151 631 1161 610 l 901 300 l 1186 39 b 1171 0 1200 25 1190 0 l 969 0 b 928 17 951 0 940 6 l 781 156 l 740 107 b 500 0 667 21 626 0 l 239 0 b 57 200 122 0 57 67 l 57 281 b 185 517 57 394 99 472 l 319 586 l 269 635 b 190 814 213 689 190 736 l 190 899 b 329 1068 190 1008 236 1068 m 467 182 b 608 243 539 182 569 196 l 643 283 l 456 460 l 325 393 b 263 288 281 371 263 340 l 263 249 b 336 182 263 197 281 182 l 467 182 m 389 810 b 422 742 389 781 397 765 l 493 676 l 576 718 b 628 799 617 738 628 758 l 628 851 b 583 888 628 874 611 888 l 436 888 b 389 843 401 888 389 875 l 389 810 "},"'":{"ha":376,"x_min":0,"x_max":0,"o":"m 263 1042 b 289 1004 282 1042 290 1029 l 257 639 b 226 608 254 617 244 608 l 150 608 b 119 639 132 608 122 617 l 88 1004 b 114 1042 86 1029 94 1042 "},"(":{"ha":629,"x_min":0,"x_max":0,"o":"m 556 1244 b 572 1225 567 1244 572 1238 l 572 1131 b 556 1113 572 1118 567 1113 l 522 1113 b 318 704 393 1113 318 1022 l 318 233 b 522 -174 318 -83 393 -174 l 556 -174 b 572 -193 567 -174 572 -179 l 572 -287 b 556 -306 572 -300 567 -306 l 522 -306 b 185 233 293 -306 185 -160 l 185 704 b 522 1244 185 1097 293 1244 "},")":{"ha":629,"x_min":0,"x_max":0,"o":"m 74 -306 b 57 -286 63 -306 57 -299 l 57 -192 b 74 -174 57 -179 63 -174 l 107 -174 b 311 235 236 -174 311 -83 l 311 706 b 107 1113 311 1022 236 1113 l 74 1113 b 57 1132 63 1113 57 1118 l 57 1226 b 74 1244 57 1239 63 1244 l 107 1244 b 444 706 336 1244 444 1099 l 444 235 b 107 -306 444 -158 336 -306 "},"*":{"ha":808,"x_min":0,"x_max":0,"o":"m 360 721 l 342 1019 b 358 1042 340 1035 346 1042 l 451 1042 b 468 1019 464 1042 469 1035 l 450 722 l 728 831 b 756 822 742 838 750 833 l 782 733 b 767 710 788 722 782 715 l 479 635 l 668 406 b 668 378 676 393 678 383 l 593 324 b 565 331 582 315 574 317 l 406 581 l 244 331 b 217 321 236 318 226 315 l 143 376 b 142 404 132 383 132 393 l 331 633 l 43 708 b 26 733 28 713 22 721 l 56 821 b 82 831 60 832 67 835 "},"+":{"ha":853,"x_min":0,"x_max":0,"o":"m 467 853 b 492 828 483 853 492 844 l 492 553 l 768 553 b 793 528 785 553 793 544 l 793 444 b 768 419 793 428 785 419 l 492 419 l 492 143 b 467 118 492 126 483 118 l 383 118 b 358 143 367 118 358 126 l 358 419 l 83 419 b 58 444 67 419 58 428 l 58 528 b 83 553 58 544 67 553 l 358 553 l 358 828 b 383 853 358 844 367 853 "},",":{"ha":372,"x_min":0,"x_max":0,"o":"m 254 194 b 285 164 275 194 285 185 l 285 47 b 275 -18 285 24 283 11 l 224 -207 b 186 -239 217 -231 208 -239 l 131 -239 b 104 -207 107 -239 101 -228 l 142 -1 l 118 -1 b 88 29 97 -1 88 8 l 88 164 b 118 194 88 185 97 194 "},"-":{"ha":529,"x_min":0,"x_max":0,"o":"m 474 553 b 499 528 490 553 499 544 l 499 428 b 474 403 499 411 490 403 l 56 403 b 31 428 39 403 31 411 l 31 528 b 56 553 31 544 39 553 "},".":{"ha":372,"x_min":0,"x_max":0,"o":"m 254 194 b 285 164 275 194 285 185 l 285 31 b 254 0 285 10 275 0 l 118 0 b 88 31 97 0 88 10 l 88 164 b 118 194 88 185 97 194 "},"/":{"ha":575,"x_min":0,"x_max":0,"o":"m 549 1132 b 565 1107 563 1132 571 1122 l 149 -182 b 122 -204 144 -197 140 -204 l 25 -204 b 8 -179 11 -204 3 -194 l 425 1110 b 451 1132 429 1125 433 1132 "},":":{"ha":372,"x_min":0,"x_max":0,"o":"m 254 306 b 285 275 275 306 285 296 l 285 142 b 254 111 285 121 275 111 l 118 111 b 88 142 97 111 88 121 l 88 275 b 118 306 88 296 97 306 m 254 721 b 285 690 275 721 285 711 l 285 557 b 254 526 285 536 275 526 l 118 526 b 88 557 97 526 88 536 l 88 690 b 118 721 88 711 97 721 "},";":{"ha":372,"x_min":0,"x_max":0,"o":"m 254 306 b 285 275 275 306 285 296 l 285 158 b 275 93 285 135 283 122 l 224 -96 b 186 -128 217 -119 208 -128 l 131 -128 b 104 -96 107 -128 101 -117 l 142 110 l 118 110 b 88 140 97 110 88 119 l 88 275 b 118 306 88 296 97 306 m 254 721 b 285 690 275 721 285 711 l 285 557 b 254 526 285 536 275 526 l 118 526 b 88 557 97 526 88 536 l 88 690 b 118 721 88 711 97 721 "},"<":{"ha":853,"x_min":0,"x_max":0,"o":"m 758 844 b 793 822 776 851 793 842 l 793 738 b 774 708 793 721 788 713 l 224 508 b 213 492 215 506 213 500 l 213 483 b 224 468 213 475 215 471 l 774 267 b 793 238 788 263 793 254 l 793 154 b 758 132 793 133 776 125 l 119 367 b 58 446 75 382 58 403 l 58 529 b 119 610 58 572 75 593 "},"=":{"ha":853,"x_min":0,"x_max":0,"o":"m 768 388 b 793 363 785 388 793 379 l 793 279 b 768 254 793 263 785 254 l 83 254 b 58 279 67 254 58 263 l 58 363 b 83 388 58 379 67 388 m 768 719 b 793 694 785 719 793 711 l 793 613 b 768 588 793 596 785 588 l 83 588 b 58 613 67 588 58 596 l 58 694 b 83 719 58 711 67 719 "},">":{"ha":853,"x_min":0,"x_max":0,"o":"m 93 131 b 58 153 75 124 58 133 l 58 238 b 78 267 58 254 64 263 l 628 467 b 639 483 636 469 639 475 l 639 492 b 628 507 639 500 636 504 l 78 708 b 58 738 64 713 58 721 l 58 821 b 93 843 58 842 75 850 l 732 608 b 793 529 776 593 793 572 l 793 446 b 732 365 793 403 776 382 "},"?":{"ha":876,"x_min":0,"x_max":0,"o":"m 429 194 b 460 164 449 194 460 185 l 460 31 b 429 0 460 10 449 0 l 292 0 b 261 31 272 0 261 10 l 261 164 b 292 194 261 185 272 194 m 642 1021 b 831 833 771 1021 831 958 l 831 775 b 704 569 831 664 800 614 l 472 460 b 436 403 449 449 439 432 l 432 368 b 390 333 429 340 421 333 l 329 333 b 290 368 300 333 290 343 l 289 436 b 350 556 288 492 303 529 l 582 678 b 624 751 613 694 624 715 l 624 788 b 565 835 624 822 611 835 l 71 835 b 40 865 51 835 40 844 l 40 990 b 71 1021 40 1011 51 1021 "},"@":{"ha":1215,"x_min":0,"x_max":0,"o":"m 851 869 b 1133 596 1039 869 1133 778 l 1133 285 b 913 39 1133 110 1068 39 l 665 39 b 457 233 526 39 457 104 l 457 360 b 661 557 457 490 526 557 l 976 557 l 976 590 b 840 719 976 681 935 719 l 369 719 b 257 594 289 719 257 683 l 257 57 b 442 -137 257 -79 313 -137 l 1104 -137 b 1126 -160 1121 -137 1126 -144 l 1126 -283 b 1104 -306 1126 -300 1121 -306 l 443 -306 b 82 57 203 -306 82 -185 l 82 608 b 336 869 82 782 165 869 m 868 172 b 976 290 946 172 976 206 l 976 428 l 699 428 b 610 339 638 428 610 400 l 610 260 b 699 172 610 200 636 172 l 868 172 "},"A":{"ha":1354,"x_min":0,"x_max":0,"o":"m 708 972 b 868 867 781 972 822 951 l 1328 32 b 1311 0 1338 13 1333 0 l 1135 0 b 1103 17 1117 0 1108 4 l 1011 186 l 346 186 l 256 17 b 224 0 249 4 242 0 l 42 0 b 25 32 19 0 15 13 l 481 867 b 626 972 525 951 568 972 m 913 367 l 697 765 b 681 775 693 772 688 775 l 672 775 b 657 765 665 775 661 772 l 443 367 "},"B":{"ha":1276,"x_min":0,"x_max":0,"o":"m 933 972 b 1197 743 1121 972 1197 901 l 1197 676 b 1110 501 1197 597 1167 539 b 1204 321 1174 464 1204 404 l 1204 240 b 958 0 1204 83 1133 0 l 135 0 b 93 42 107 0 93 14 l 93 931 b 135 972 93 958 107 972 m 304 214 b 322 194 304 200 310 194 l 892 194 b 994 282 963 194 994 221 l 994 328 b 874 408 994 388 964 408 l 304 408 m 874 576 b 993 650 964 576 993 596 l 993 692 b 890 778 993 750 961 778 l 322 778 b 304 758 310 778 304 772 l 304 576 "},"C":{"ha":1183,"x_min":0,"x_max":0,"o":"m 1096 972 b 1126 942 1117 972 1126 963 l 1126 806 b 1096 775 1126 785 1117 775 l 478 775 b 293 585 335 775 293 732 l 293 388 b 478 197 293 240 335 197 l 1096 197 b 1126 167 1117 197 1126 188 l 1126 31 b 1096 0 1126 10 1117 0 l 471 0 b 82 367 189 0 82 100 l 82 606 b 471 972 82 872 189 972 "},"D":{"ha":1289,"x_min":0,"x_max":0,"o":"m 783 972 b 1208 581 1085 972 1208 851 l 1208 392 b 783 0 1208 121 1085 0 l 135 0 b 93 42 107 0 93 14 l 93 931 b 135 972 93 958 107 972 m 304 214 b 322 196 304 201 310 196 l 778 196 b 997 410 942 196 997 246 l 997 563 b 778 776 997 726 942 776 l 322 776 b 304 758 310 776 304 771 "},"E":{"ha":1181,"x_min":0,"x_max":0,"o":"m 1082 972 b 1113 942 1101 972 1113 963 l 1113 807 b 1082 776 1113 788 1101 776 l 472 776 b 292 590 329 776 292 736 l 292 583 l 1074 583 b 1104 553 1093 583 1104 574 l 1104 429 b 1074 399 1104 408 1093 399 l 292 399 l 292 382 b 472 196 292 236 329 196 l 1082 196 b 1113 165 1101 196 1113 185 l 1113 31 b 1082 0 1113 10 1101 0 l 471 0 b 82 367 189 0 82 101 l 82 606 b 471 972 82 871 189 972 "},"F":{"ha":1158,"x_min":0,"x_max":0,"o":"m 1082 972 b 1113 942 1101 972 1113 963 l 1113 807 b 1082 776 1113 788 1101 776 l 478 776 b 293 590 335 776 293 736 l 293 569 l 1074 569 b 1104 539 1093 569 1104 558 l 1104 415 b 1074 385 1104 394 1093 385 l 293 385 l 293 31 b 263 0 293 10 283 0 l 113 0 b 82 31 92 0 82 10 l 82 606 b 471 972 82 872 189 972 "},"G":{"ha":1286,"x_min":0,"x_max":0,"o":"m 1174 972 b 1204 942 1193 972 1204 963 l 1204 806 b 1174 775 1204 785 1193 775 l 478 775 b 293 585 335 775 293 732 l 293 385 b 478 196 293 238 335 196 l 936 196 b 1006 279 985 196 1006 217 l 1006 382 b 989 401 1006 396 1000 401 l 582 401 b 551 432 563 401 551 411 l 551 554 b 582 585 551 574 563 585 l 1161 585 b 1203 543 1189 585 1203 571 l 1203 213 b 1031 0 1203 57 1143 0 l 471 0 b 82 367 189 0 82 100 l 82 606 b 471 972 82 872 189 972 "},"H":{"ha":1258,"x_min":0,"x_max":0,"o":"m 1135 972 b 1167 942 1156 972 1167 963 l 1167 31 b 1135 0 1167 10 1156 0 l 985 0 b 954 31 965 0 954 10 l 954 396 l 304 396 l 304 31 b 274 0 304 10 294 0 l 124 0 b 93 31 103 0 93 10 l 93 942 b 124 972 93 963 103 972 l 274 972 b 304 942 294 972 304 963 l 304 585 l 954 585 l 954 942 b 985 972 954 963 965 972 "},"I":{"ha":397,"x_min":0,"x_max":0,"o":"m 274 972 b 304 942 294 972 304 963 l 304 31 b 274 0 304 10 294 0 l 124 0 b 93 31 103 0 93 10 l 93 942 b 124 972 93 963 103 972 "},"J":{"ha":1085,"x_min":0,"x_max":0,"o":"m 964 972 b 996 942 985 972 996 963 l 996 367 b 607 0 996 101 889 0 l 63 0 b 32 31 43 0 32 10 l 32 167 b 63 197 32 188 43 197 l 599 197 b 783 388 742 197 783 240 l 783 942 b 814 972 783 963 793 972 "},"K":{"ha":1186,"x_min":0,"x_max":0,"o":"m 274 972 b 304 942 294 972 304 963 l 304 579 l 497 579 b 651 635 592 579 615 588 l 893 954 b 933 972 903 968 910 972 l 1107 972 b 1124 939 1128 972 1135 953 l 854 590 b 771 497 824 550 797 519 b 876 397 808 474 842 442 l 1161 36 b 1143 0 1172 25 1167 0 l 967 0 b 926 18 944 0 936 4 l 669 347 b 515 404 633 394 606 404 l 304 404 l 304 31 b 274 0 304 10 294 0 l 124 0 b 93 31 103 0 93 10 l 93 942 b 124 972 93 963 103 972 "},"L":{"ha":1113,"x_min":0,"x_max":0,"o":"m 271 972 b 301 942 292 972 301 963 l 301 388 b 486 197 301 240 343 197 l 1049 197 b 1079 167 1068 197 1079 188 l 1079 31 b 1049 0 1079 10 1068 0 l 479 0 b 90 367 197 0 90 100 l 90 942 b 121 972 90 963 100 972 "},"M":{"ha":1658,"x_min":0,"x_max":0,"o":"m 371 972 b 519 867 453 972 483 956 l 804 200 b 824 188 808 192 815 188 l 840 188 b 860 200 850 188 857 192 l 1143 867 b 1290 972 1178 956 1207 972 l 1444 972 b 1567 828 1540 972 1567 936 l 1567 31 b 1535 0 1567 10 1556 0 l 1389 0 b 1358 31 1369 0 1358 10 l 1358 756 b 1349 769 1358 765 1356 769 l 1336 769 b 1317 758 1325 769 1319 767 l 1049 136 b 871 0 1007 32 961 0 l 792 0 b 614 136 701 0 657 32 l 343 758 b 325 769 339 767 335 769 l 313 769 b 300 756 304 769 300 765 l 300 31 b 269 0 300 10 290 0 l 124 0 b 93 31 103 0 93 10 l 93 828 b 214 972 93 938 118 972 "},"N":{"ha":1358,"x_min":0,"x_max":0,"o":"m 342 972 b 503 890 442 972 458 951 l 1014 213 b 1032 203 1018 206 1024 203 l 1044 203 b 1056 217 1051 203 1056 207 l 1056 942 b 1086 972 1056 963 1065 972 l 1235 972 b 1265 942 1256 972 1265 963 l 1265 144 b 1140 0 1265 35 1228 0 l 1017 0 b 857 82 917 0 900 21 l 344 760 b 326 769 339 767 335 769 l 314 769 b 303 756 306 769 303 765 l 303 31 b 272 0 303 10 292 0 l 124 0 b 93 31 103 0 93 10 l 93 828 b 217 972 93 938 129 972 "},"O":{"ha":1369,"x_min":0,"x_max":0,"o":"m 899 972 b 1288 606 1181 972 1288 872 l 1288 367 b 899 0 1288 100 1181 0 l 471 0 b 82 367 189 0 82 101 l 82 606 b 471 972 82 871 189 972 m 293 382 b 478 196 293 236 333 196 l 890 196 b 1075 382 1035 196 1075 236 l 1075 590 b 890 776 1075 736 1035 776 l 478 776 b 293 590 333 776 293 736 "},"P":{"ha":1224,"x_min":0,"x_max":0,"o":"m 879 972 b 1178 688 1092 972 1178 874 l 1178 583 b 879 293 1178 396 1092 293 l 304 293 l 304 31 b 274 0 304 10 294 0 l 124 0 b 93 31 103 0 93 10 l 93 931 b 135 972 93 958 107 972 m 836 485 b 965 604 931 485 965 522 l 965 657 b 836 778 965 740 931 778 l 322 778 b 304 761 310 778 304 772 l 304 485 "},"Q":{"ha":1369,"x_min":0,"x_max":0,"o":"m 899 972 b 1288 606 1181 972 1288 872 l 1288 390 b 1014 31 1288 164 1210 57 l 1174 -190 b 1156 -226 1182 -203 1179 -226 l 976 -226 b 938 -208 954 -226 946 -221 l 775 24 l 471 24 b 82 390 189 24 82 125 l 82 606 b 471 972 82 871 189 972 m 293 406 b 478 219 293 260 333 219 l 890 219 b 1075 406 1035 219 1075 260 l 1075 590 b 890 776 1075 736 1035 776 l 478 776 b 293 590 333 776 293 736 "},"R":{"ha":1257,"x_min":0,"x_max":0,"o":"m 879 972 b 1178 688 1086 972 1178 879 l 1178 607 b 976 324 1178 446 1114 351 l 1208 36 b 1190 0 1219 22 1213 0 l 1004 0 b 965 18 982 0 975 6 l 744 300 l 304 300 l 304 31 b 274 0 304 10 294 0 l 124 0 b 93 31 103 0 93 10 l 93 931 b 135 972 93 958 107 972 m 836 483 b 965 600 931 483 965 517 l 965 658 b 836 778 965 743 929 778 l 322 778 b 304 763 310 778 304 774 l 304 483 "},"S":{"ha":1190,"x_min":0,"x_max":0,"o":"m 1057 972 b 1088 942 1076 972 1088 963 l 1088 807 b 1057 776 1088 788 1076 776 l 361 776 b 288 701 311 776 288 753 l 288 654 b 361 583 288 604 310 583 l 881 583 b 1124 339 1036 583 1124 494 l 1124 226 b 878 0 1124 83 1038 0 l 108 0 b 78 31 88 0 78 10 l 78 165 b 108 196 78 185 88 196 l 838 196 b 911 271 886 196 911 219 l 911 328 b 839 399 911 378 890 399 l 318 399 b 76 643 163 399 76 488 l 76 746 b 321 972 76 889 161 972 "},"T":{"ha":1213,"x_min":0,"x_max":0,"o":"m 1149 972 b 1181 942 1169 972 1181 963 l 1181 806 b 1149 775 1181 785 1169 775 l 711 775 l 711 31 b 682 0 711 10 703 0 l 531 0 b 500 31 511 0 500 10 l 500 775 l 63 775 b 32 806 43 775 32 785 l 32 942 b 63 972 32 963 43 972 "},"U":{"ha":1357,"x_min":0,"x_max":0,"o":"m 271 972 b 301 942 292 972 301 963 l 301 388 b 486 197 301 240 343 197 l 871 197 b 1054 388 1014 197 1054 240 l 1054 942 b 1085 972 1054 963 1065 972 l 1236 972 b 1267 942 1257 972 1267 963 l 1267 367 b 878 0 1267 100 1160 0 l 479 0 b 90 367 197 0 90 100 l 90 942 b 121 972 90 963 100 972 "},"V":{"ha":1354,"x_min":0,"x_max":0,"o":"m 222 972 b 254 954 240 972 247 968 l 658 207 b 675 197 663 200 668 197 l 682 197 b 699 207 689 197 694 200 l 1100 954 b 1132 972 1107 968 1114 972 l 1311 972 b 1328 940 1333 972 1338 958 l 874 106 b 726 0 828 21 785 0 l 644 0 b 485 106 572 0 529 21 l 25 940 b 42 972 15 958 19 972 "},"W":{"ha":1810,"x_min":0,"x_max":0,"o":"m 224 972 b 243 954 235 972 239 968 l 472 207 b 483 197 475 200 478 197 l 490 197 b 501 207 496 197 499 200 l 722 892 b 825 972 740 951 772 972 l 972 972 b 1082 892 1033 972 1064 951 l 1307 207 b 1319 197 1310 200 1313 197 l 1325 197 b 1338 207 1332 197 1335 200 l 1563 954 b 1583 972 1567 968 1574 972 l 1767 972 b 1778 940 1779 972 1783 958 l 1517 106 b 1410 0 1492 24 1464 0 l 1238 0 b 1131 106 1183 0 1156 24 l 917 765 b 907 775 915 772 913 775 l 900 775 b 889 765 894 775 890 772 l 675 106 b 569 0 650 22 624 0 l 404 0 b 289 106 342 0 314 21 l 31 940 b 42 972 25 960 26 972 "},"X":{"ha":1239,"x_min":0,"x_max":0,"o":"m 1174 972 b 1188 936 1199 972 1200 949 l 765 501 l 1207 36 b 1193 0 1219 24 1218 0 l 992 0 b 946 19 969 0 958 7 l 615 369 l 283 19 b 239 0 271 7 261 0 l 44 0 b 32 36 19 0 19 24 l 485 507 l 76 936 b 90 972 64 949 65 972 l 293 972 b 338 953 315 972 326 965 l 635 639 l 936 953 b 981 972 947 965 958 972 "},"Y":{"ha":1246,"x_min":0,"x_max":0,"o":"m 228 972 b 261 956 244 972 253 968 l 626 471 l 993 956 b 1026 972 1003 968 1011 972 l 1213 972 b 1225 944 1229 972 1235 958 l 726 297 l 726 31 b 694 0 726 11 715 0 l 546 0 b 514 31 525 0 514 11 l 514 297 l 19 944 b 33 972 10 958 17 972 "},"Z":{"ha":1186,"x_min":0,"x_max":0,"o":"m 1004 972 b 1115 867 1081 972 1114 939 l 1115 733 b 1046 615 1115 665 1103 643 l 311 239 b 299 218 301 235 299 228 l 299 207 b 313 196 299 200 304 196 l 1076 196 b 1107 165 1096 196 1107 185 l 1107 31 b 1076 0 1107 10 1096 0 l 176 0 b 67 106 101 0 67 33 l 67 240 b 132 357 67 308 76 331 l 864 733 b 876 754 872 739 876 744 l 876 765 b 863 776 876 772 871 776 l 107 776 b 76 807 86 776 76 788 l 76 942 b 107 972 76 963 86 972 "},"[":{"ha":629,"x_min":0,"x_max":0,"o":"m 556 1244 b 572 1225 567 1244 572 1238 l 572 1129 b 556 1111 572 1117 567 1111 l 357 1111 b 325 1072 335 1111 325 1099 l 325 -135 b 357 -174 325 -161 335 -174 l 556 -174 b 572 -192 567 -174 572 -179 l 572 -287 b 556 -307 572 -300 567 -307 l 304 -307 b 192 -182 226 -307 192 -268 l 192 1119 b 304 1244 192 1206 226 1244 "},"\\":{"ha":575,"x_min":0,"x_max":0,"o":"m 121 1132 b 147 1110 139 1132 142 1125 l 565 -179 b 549 -204 571 -194 563 -204 l 453 -204 b 426 -182 435 -204 432 -197 l 8 1107 b 25 1132 3 1122 11 1132 "},"]":{"ha":629,"x_min":0,"x_max":0,"o":"m 74 -307 b 57 -287 63 -307 57 -300 l 57 -192 b 74 -174 57 -179 63 -174 l 272 -174 b 304 -135 294 -174 304 -161 l 304 1072 b 272 1111 304 1099 294 1111 l 74 1111 b 57 1129 63 1111 57 1117 l 57 1225 b 74 1244 57 1238 63 1244 l 325 1244 b 438 1119 403 1244 438 1206 l 438 -182 b 325 -307 438 -268 403 -307 "},"^":{"ha":853,"x_min":0,"x_max":0,"o":"m 467 972 b 546 910 507 972 529 957 l 782 257 b 758 222 788 238 779 222 l 676 222 b 646 242 658 222 650 228 l 444 807 b 429 817 442 815 438 817 l 422 817 b 406 807 413 817 408 815 l 206 242 b 175 222 200 228 193 222 l 92 222 b 68 257 71 222 63 238 l 304 910 b 383 972 321 957 344 972 "},"_":{"ha":892,"x_min":0,"x_max":0,"o":"m 860 -100 b 885 -125 876 -100 885 -108 l 885 -208 b 860 -233 885 -225 876 -233 l 33 -233 b 8 -208 17 -233 8 -225 l 8 -125 b 33 -100 8 -108 17 -100 "},"`":{"ha":546,"x_min":0,"x_max":0,"o":"m 261 1133 b 304 1101 283 1133 294 1121 l 431 846 b 410 813 440 825 431 813 l 303 813 b 261 844 282 813 274 824 l 118 1100 b 139 1133 106 1122 119 1133 "},"a":{"ha":1096,"x_min":0,"x_max":0,"o":"m 704 763 b 1035 482 950 763 1035 686 l 1035 111 b 932 0 1035 22 1014 0 l 271 0 b 57 197 111 0 57 54 l 57 264 b 271 456 57 393 121 456 l 838 456 l 838 469 b 685 590 838 558 804 590 l 106 590 b 81 615 89 590 81 599 l 81 738 b 106 763 81 754 89 763 m 794 165 b 838 211 825 165 838 178 l 838 313 l 329 313 b 253 254 269 313 253 296 l 253 225 b 329 165 253 178 269 165 l 794 165 "},"b":{"ha":1210,"x_min":0,"x_max":0,"o":"m 251 1042 b 282 1011 272 1042 282 1032 l 282 763 l 803 763 b 1133 482 1046 763 1133 689 l 1133 281 b 803 0 1133 74 1046 0 l 414 0 b 85 281 171 0 85 74 l 85 1011 b 115 1042 85 1032 94 1042 m 282 319 b 433 172 282 201 314 172 l 783 172 b 936 319 904 172 936 201 l 936 443 b 783 590 936 560 904 590 l 282 590 "},"c":{"ha":1013,"x_min":0,"x_max":0,"o":"m 943 763 b 968 738 960 763 968 754 l 968 615 b 943 590 968 599 960 590 l 404 590 b 253 443 283 590 253 560 l 253 319 b 404 172 253 203 283 172 l 943 172 b 968 147 960 172 968 164 l 968 25 b 943 0 968 8 960 0 l 385 0 b 54 281 139 0 54 75 l 54 482 b 385 763 54 686 139 763 "},"d":{"ha":1210,"x_min":0,"x_max":0,"o":"m 928 763 l 928 1011 b 958 1042 928 1032 939 1042 l 1094 1042 b 1125 1011 1115 1042 1125 1032 l 1125 281 b 794 0 1125 75 1040 0 l 406 0 b 76 281 161 0 76 75 l 76 482 b 406 763 76 686 161 763 m 775 172 b 928 319 894 172 928 201 l 928 590 l 425 590 b 274 443 306 590 274 561 l 274 319 b 425 172 274 201 306 172 l 775 172 "},"e":{"ha":1096,"x_min":0,"x_max":0,"o":"m 794 763 b 1035 535 981 763 1035 707 l 1035 392 b 956 314 1035 335 1011 314 l 254 314 l 254 289 b 407 172 254 201 288 172 l 986 172 b 1011 147 1003 172 1011 164 l 1011 25 b 986 0 1011 8 1003 0 l 388 0 b 57 281 142 0 57 75 l 57 482 b 388 763 57 686 142 763 m 815 457 b 839 481 832 457 839 465 l 839 529 b 754 597 839 583 822 597 l 407 597 b 254 485 283 597 254 572 l 254 457 "},"f":{"ha":681,"x_min":0,"x_max":0,"o":"m 182 763 l 182 790 b 463 1068 182 996 247 1068 l 632 1068 b 657 1043 649 1068 657 1060 l 657 922 b 632 897 657 906 649 897 l 496 897 b 381 790 407 897 381 869 l 381 763 l 624 763 b 649 738 640 763 649 754 l 649 617 b 624 592 649 600 640 592 l 381 592 l 381 31 b 349 0 381 10 369 0 l 213 0 b 182 31 193 0 182 10 l 182 592 l 49 592 b 24 617 32 592 24 600 l 24 738 b 49 763 24 754 32 763 "},"g":{"ha":1210,"x_min":0,"x_max":0,"o":"m 794 763 b 1125 482 1038 763 1125 688 l 1125 -24 b 794 -307 1125 -232 1039 -307 l 140 -307 b 115 -282 124 -307 115 -299 l 115 -160 b 140 -135 115 -143 124 -135 l 775 -135 b 928 15 896 -135 928 -106 l 928 36 l 406 36 b 76 333 168 36 76 121 l 76 479 b 406 763 76 688 163 763 m 274 336 b 425 203 274 235 311 203 l 928 203 l 928 464 b 775 592 928 565 894 592 l 425 592 b 274 468 307 592 274 565 l 274 336 "},"h":{"ha":1221,"x_min":0,"x_max":0,"o":"m 256 1042 b 286 1011 275 1042 286 1032 l 286 763 l 806 763 b 1136 482 1051 763 1136 686 l 1136 31 b 1106 0 1136 10 1126 0 l 969 0 b 939 31 950 0 939 10 l 939 433 b 796 586 939 557 911 586 l 286 586 l 286 31 b 256 0 286 10 275 0 l 119 0 b 89 31 99 0 89 10 l 89 1011 b 119 1042 89 1032 99 1042 "},"i":{"ha":375,"x_min":0,"x_max":0,"o":"m 256 763 b 286 732 275 763 286 751 l 286 31 b 256 0 286 10 275 0 l 119 0 b 89 31 99 0 89 10 l 89 732 b 119 763 89 751 99 763 m 256 1044 b 286 1014 276 1044 286 1035 l 286 882 b 256 850 286 861 276 850 l 119 850 b 89 882 99 850 89 861 l 89 1014 b 119 1044 89 1035 99 1044 "},"j":{"ha":392,"x_min":0,"x_max":0,"o":"m 275 763 b 306 732 294 763 306 751 l 306 -28 b -11 -307 306 -232 225 -307 l -121 -307 b -146 -282 -137 -307 -146 -299 l -146 -160 b -121 -135 -146 -143 -137 -135 l -31 -135 b 107 11 81 -135 107 -106 l 107 732 b 139 763 107 751 118 763 m 275 1044 b 306 1014 296 1044 306 1035 l 306 882 b 275 850 306 861 296 850 l 139 850 b 108 882 118 850 108 861 l 108 1014 b 139 1044 108 1035 118 1044 "},"k":{"ha":1103,"x_min":0,"x_max":0,"o":"m 118 0 b 88 31 97 0 88 10 l 88 1011 b 118 1042 88 1032 97 1042 l 254 1042 b 285 1011 275 1042 285 1032 l 285 465 l 540 465 b 676 519 625 465 642 472 l 832 739 b 874 763 844 757 853 763 l 1032 763 b 1046 725 1053 763 1058 743 l 867 479 b 782 392 839 442 813 413 b 879 301 821 369 851 339 l 1076 35 b 1061 0 1088 18 1081 0 l 897 0 b 856 19 875 0 867 4 l 685 253 b 553 308 650 299 628 308 l 285 308 l 285 31 b 254 0 285 10 275 0 l 118 0 "},"l":{"ha":375,"x_min":0,"x_max":0,"o":"m 256 1042 b 286 1011 275 1042 286 1032 l 286 31 b 256 0 286 10 275 0 l 119 0 b 89 31 99 0 89 10 l 89 1011 b 119 1042 89 1032 99 1042 "},"m":{"ha":1538,"x_min":0,"x_max":0,"o":"m 1124 763 b 1453 482 1368 763 1453 686 l 1453 31 b 1422 0 1453 10 1443 0 l 1286 0 b 1256 31 1265 0 1256 10 l 1256 433 b 1113 586 1256 557 1228 586 l 867 586 l 867 31 b 836 0 867 10 857 0 l 700 0 b 669 31 679 0 669 10 l 669 586 l 433 586 b 282 433 314 586 282 551 l 282 31 b 251 0 282 10 272 0 l 115 0 b 85 31 94 0 85 10 l 85 482 b 414 763 85 686 169 763 "},"n":{"ha":1228,"x_min":0,"x_max":0,"o":"m 813 763 b 1143 482 1058 763 1143 686 l 1143 31 b 1113 0 1143 10 1133 0 l 976 0 b 946 31 957 0 946 10 l 946 433 b 803 586 946 557 918 586 l 433 586 b 282 433 314 586 282 551 l 282 31 b 251 0 282 10 272 0 l 115 0 b 85 31 94 0 85 10 l 85 482 b 414 763 85 686 169 763 "},"o":{"ha":1206,"x_min":0,"x_max":0,"o":"m 799 763 b 1129 482 1042 763 1129 689 l 1129 281 b 799 0 1129 74 1042 0 l 406 0 b 76 281 163 0 76 74 l 76 482 b 406 763 76 689 163 763 m 274 315 b 425 169 274 199 304 169 l 779 169 b 932 315 901 169 932 199 l 932 447 b 779 592 932 563 901 592 l 425 592 b 274 447 304 592 274 563 "},"p":{"ha":1210,"x_min":0,"x_max":0,"o":"m 803 763 b 1133 482 1046 763 1133 689 l 1133 281 b 803 0 1133 74 1046 0 l 282 0 l 282 -276 b 251 -307 282 -297 272 -307 l 115 -307 b 85 -276 94 -307 85 -297 l 85 482 b 414 763 85 689 171 763 m 783 172 b 936 319 904 172 936 201 l 936 443 b 783 590 936 560 904 590 l 433 590 b 282 443 314 590 282 560 l 282 172 "},"q":{"ha":1210,"x_min":0,"x_max":0,"o":"m 794 763 b 1125 482 1038 763 1125 689 l 1125 -276 b 1094 -307 1125 -297 1115 -307 l 958 -307 b 928 -276 939 -307 928 -297 l 928 0 l 406 0 b 76 281 163 0 76 74 l 76 482 b 406 763 76 689 163 763 m 274 319 b 425 172 274 201 306 172 l 928 172 l 928 443 b 775 590 928 560 896 590 l 425 590 b 274 443 306 590 274 560 l 274 319 "},"r":{"ha":853,"x_min":0,"x_max":0,"o":"m 803 763 b 828 738 819 763 828 754 l 828 615 b 803 590 828 599 819 590 l 433 590 b 282 443 313 590 282 560 l 282 31 b 251 0 282 10 272 0 l 115 0 b 85 31 94 0 85 10 l 85 482 b 414 763 85 686 169 763 "},"s":{"ha":1088,"x_min":0,"x_max":0,"o":"m 968 763 b 993 738 985 763 993 754 l 993 618 b 968 593 993 601 985 593 l 342 593 b 264 539 283 593 264 579 l 264 518 b 342 465 264 479 285 465 l 808 465 b 1025 272 956 465 1025 400 l 1025 194 b 807 0 1025 67 963 0 l 96 0 b 71 25 79 0 71 8 l 71 144 b 96 169 71 161 79 169 l 756 169 b 832 228 814 169 832 182 l 832 265 b 756 317 832 301 810 317 l 288 317 b 71 511 140 317 71 382 l 71 572 b 289 763 71 694 136 763 "},"t":{"ha":681,"x_min":0,"x_max":0,"o":"m 181 763 l 181 946 b 211 978 181 967 192 978 l 349 978 b 379 946 368 978 379 967 l 379 763 l 624 763 b 649 738 640 763 649 754 l 649 617 b 624 592 649 600 640 592 l 379 592 l 379 276 b 496 171 379 199 406 171 l 632 171 b 657 146 649 171 657 163 l 657 25 b 632 0 657 8 649 0 l 463 0 b 181 276 247 0 181 72 l 181 592 l 49 592 b 24 617 32 592 24 600 l 24 738 b 49 763 24 754 32 763 "},"u":{"ha":1217,"x_min":0,"x_max":0,"o":"m 251 763 b 282 732 272 763 282 751 l 282 328 b 425 176 282 206 310 176 l 782 176 b 935 328 901 176 935 210 l 935 732 b 965 763 935 751 946 763 l 1101 763 b 1132 732 1122 763 1132 751 l 1132 281 b 801 0 1132 75 1047 0 l 414 0 b 85 281 169 0 85 75 l 85 732 b 115 763 85 751 94 763 "},"v":{"ha":1153,"x_min":0,"x_max":0,"o":"m 203 763 b 236 743 219 763 229 757 l 565 169 b 579 161 571 161 572 161 l 586 161 b 600 169 593 161 596 161 l 928 743 b 960 763 935 757 943 763 l 1113 763 b 1132 728 1132 763 1140 746 l 751 63 b 635 0 726 17 696 0 l 522 0 b 407 63 460 0 432 17 l 24 728 b 42 763 13 746 22 763 "},"w":{"ha":1618,"x_min":0,"x_max":0,"o":"m 197 763 b 229 740 215 763 225 756 l 418 169 b 429 160 419 163 424 160 l 439 160 b 451 169 444 160 449 163 l 638 696 b 726 763 654 744 674 763 l 896 763 b 986 696 949 763 969 744 l 1168 169 b 1181 160 1169 163 1174 160 l 1189 160 b 1200 169 1194 160 1197 163 l 1394 740 b 1426 763 1399 756 1407 763 l 1571 763 b 1593 728 1592 763 1601 751 l 1371 86 b 1264 0 1349 21 1325 0 l 1094 0 b 1001 86 1043 0 1022 22 l 825 593 b 813 601 822 599 819 601 l 803 601 b 792 593 796 601 793 599 l 611 86 b 518 0 589 24 569 0 l 347 0 b 240 86 286 0 264 21 l 25 728 b 49 763 18 751 28 763 "},"x":{"ha":1099,"x_min":0,"x_max":0,"o":"m 267 763 b 307 746 286 763 296 757 l 569 501 l 828 746 b 868 763 840 757 850 763 l 1043 763 b 1058 726 1068 763 1074 740 l 692 388 l 1068 36 b 1054 0 1083 21 1078 0 l 865 0 b 825 15 847 0 836 4 l 540 281 l 260 15 b 221 0 249 4 239 0 l 44 0 b 29 36 19 0 14 21 l 419 393 l 63 726 b 78 763 47 740 54 763 "},"y":{"ha":1122,"x_min":0,"x_max":0,"o":"m 1092 763 b 1110 728 1111 763 1119 744 l 576 -212 b 357 -307 540 -278 474 -307 l 260 -307 b 235 -282 243 -307 235 -299 l 235 -150 b 260 -125 235 -133 243 -125 l 360 -125 b 431 -93 397 -125 418 -117 l 496 21 b 399 81 447 24 421 39 l 24 728 b 42 763 14 744 22 763 l 203 763 b 236 743 219 763 229 757 l 544 207 b 583 175 557 186 563 178 l 906 743 b 939 763 914 757 922 763 "},"z":{"ha":1018,"x_min":0,"x_max":0,"o":"m 861 763 b 957 676 928 763 957 735 l 957 549 b 894 450 957 490 944 468 l 278 210 b 267 190 269 207 267 200 l 267 181 b 279 171 267 174 271 171 l 925 171 b 950 146 942 171 950 163 l 950 25 b 925 0 950 8 942 0 l 157 0 b 61 86 90 0 61 26 l 61 215 b 124 314 61 274 74 294 l 740 553 b 751 572 749 556 751 561 l 751 582 b 739 592 751 588 747 592 l 93 592 b 68 617 76 592 68 600 l 68 738 b 93 763 68 754 76 763 "},"{":{"ha":629,"x_min":0,"x_max":0,"o":"m 556 1244 b 572 1225 567 1244 572 1238 l 572 1129 b 556 1111 572 1117 567 1111 l 468 1111 b 364 993 393 1111 364 1081 l 364 614 b 300 467 364 553 339 501 b 364 321 339 433 364 383 l 364 -56 b 468 -174 364 -143 393 -174 l 556 -174 b 572 -192 567 -174 572 -179 l 572 -287 b 556 -307 572 -300 567 -307 l 463 -307 b 231 -56 301 -307 231 -233 l 231 325 b 161 400 231 378 211 400 l 99 400 b 74 425 82 400 74 408 l 74 510 b 99 535 74 526 82 535 l 161 535 b 231 611 211 535 231 557 l 231 993 b 463 1244 231 1171 301 1244 "},"|":{"ha":588,"x_min":0,"x_max":0,"o":"m 336 1132 b 361 1107 353 1132 361 1124 l 361 -178 b 336 -203 361 -194 353 -203 l 253 -203 b 228 -178 236 -203 228 -194 l 228 1107 b 253 1132 228 1124 236 1132 "},"}":{"ha":629,"x_min":0,"x_max":0,"o":"m 74 -307 b 57 -287 63 -307 57 -300 l 57 -192 b 74 -174 57 -179 63 -174 l 161 -174 b 265 -56 236 -174 265 -143 l 265 324 b 329 471 265 385 290 436 b 265 617 290 504 265 554 l 265 993 b 161 1111 265 1081 236 1111 l 74 1111 b 57 1129 63 1111 57 1117 l 57 1225 b 74 1244 57 1238 63 1244 l 167 1244 b 399 993 328 1244 399 1171 l 399 613 b 468 538 399 560 418 538 l 531 538 b 556 513 547 538 556 529 l 556 428 b 531 403 556 411 547 403 l 468 403 b 399 326 418 403 399 381 l 399 -56 b 167 -307 399 -233 328 -307 "},"~":{"ha":853,"x_min":0,"x_max":0,"o":"m 58 529 b 243 626 58 604 189 626 b 447 567 314 626 381 600 b 600 524 501 539 546 524 b 724 572 647 524 679 535 b 768 594 740 586 749 594 b 793 569 785 594 793 588 l 793 489 b 607 393 793 415 660 393 b 408 451 536 393 471 418 b 250 496 356 481 306 496 b 126 446 203 496 171 485 b 83 424 111 432 101 424 b 58 449 67 424 58 431 "}," ":{"ha":465,"x_min":0,"x_max":0,"o":""},"¡":{"ha":369,"x_min":0,"x_max":0,"o":"m 117 521 b 86 551 96 521 86 531 l 86 685 b 117 715 86 706 96 715 l 253 715 b 283 685 274 715 283 706 l 283 551 b 253 521 283 531 274 521 m 107 -306 b 76 -274 86 -306 75 -294 l 114 351 b 144 382 115 372 124 382 l 225 382 b 256 351 246 382 254 372 l 293 -274 b 263 -306 294 -294 283 -306 "},"¢":{"ha":1133,"x_min":0,"x_max":0,"o":"m 649 1056 b 674 1031 665 1056 674 1047 l 674 926 l 981 926 b 1007 899 999 926 1007 917 l 1007 763 b 981 735 1007 744 999 735 l 674 735 l 674 244 l 981 244 b 1007 217 999 244 1007 235 l 1007 81 b 981 53 1007 63 999 53 l 674 53 l 674 -58 b 649 -83 674 -75 665 -83 l 575 -83 b 550 -58 558 -83 550 -75 l 550 53 l 406 53 b 69 357 156 53 69 135 l 69 622 b 406 926 69 844 156 926 l 550 926 l 550 1031 b 575 1056 550 1047 558 1056 m 276 399 b 425 244 276 274 304 244 l 550 244 l 550 735 l 425 735 b 276 581 304 735 276 706 l 276 399 "},"£":{"ha":922,"x_min":0,"x_max":0,"o":"m 199 556 l 199 690 b 465 972 199 896 272 972 l 832 972 b 864 942 853 972 864 963 l 864 811 b 832 781 864 790 853 781 l 508 781 b 407 672 429 781 407 757 l 407 556 l 707 556 b 732 531 724 556 732 547 l 732 457 b 707 432 732 440 724 432 l 407 432 l 407 192 l 849 192 b 879 161 869 192 879 182 l 879 31 b 849 0 879 10 869 0 l 63 0 b 32 31 43 0 32 10 l 32 161 b 63 192 32 182 43 192 l 199 192 l 199 432 l 64 432 b 39 457 47 432 39 440 l 39 531 b 64 556 39 547 47 556 "},"¤":{"ha":1033,"x_min":0,"x_max":0,"o":"m 672 826 b 756 818 706 826 733 824 l 833 897 b 869 897 846 908 857 908 l 928 839 b 928 803 939 826 939 815 l 850 726 b 856 668 854 710 856 690 l 856 301 b 851 246 856 281 854 263 l 928 169 b 928 133 939 157 939 144 l 869 75 b 835 75 857 64 846 64 l 758 151 b 672 143 735 146 707 143 l 358 143 b 275 151 325 143 299 146 l 200 75 b 164 75 188 64 176 64 l 106 133 b 106 169 94 144 94 157 l 182 244 b 176 301 178 261 176 281 l 176 668 b 182 726 176 690 178 710 l 106 803 b 106 839 94 815 94 826 l 164 897 b 200 897 176 908 188 908 l 278 819 b 358 826 300 824 326 826 m 383 700 b 308 619 325 700 308 683 l 308 351 b 383 269 308 286 325 269 l 650 269 b 724 351 708 269 724 286 l 724 619 b 628 700 724 683 706 700 l 383 700 "},"¥":{"ha":1071,"x_min":0,"x_max":0,"o":"m 360 528 l 57 944 b 69 972 49 957 56 972 l 251 972 b 282 956 265 972 274 967 l 536 594 l 794 956 b 825 972 803 968 810 972 l 999 972 b 1011 944 1013 972 1019 957 l 706 528 l 917 528 b 942 503 933 528 942 519 l 942 429 b 917 404 942 413 933 404 l 636 404 l 636 286 l 917 286 b 942 261 933 286 942 278 l 942 186 b 917 161 942 169 933 161 l 636 161 l 636 31 b 608 0 636 10 628 0 l 457 0 b 428 31 439 0 428 10 l 428 161 l 153 161 b 128 186 136 161 128 169 l 128 261 b 153 286 128 278 136 286 l 428 286 l 428 404 l 153 404 b 128 429 136 404 128 413 l 128 503 b 153 528 128 519 136 528 "},"¦":{"ha":588,"x_min":0,"x_max":0,"o":"m 336 382 b 361 357 353 382 361 374 l 361 -178 b 336 -203 361 -194 353 -203 l 253 -203 b 228 -178 236 -203 228 -194 l 228 357 b 253 382 228 374 236 382 m 336 1132 b 361 1107 353 1132 361 1124 l 361 572 b 336 547 361 556 353 547 l 253 547 b 228 572 236 547 228 556 l 228 1107 b 253 1132 228 1124 236 1132 "},"§":{"ha":1018,"x_min":0,"x_max":0,"o":"m 925 1043 b 950 1018 942 1043 950 1035 l 950 897 b 925 872 950 881 942 872 l 279 872 b 267 863 271 872 267 869 l 267 853 b 276 833 267 842 269 836 l 894 593 b 957 494 944 575 957 553 l 957 368 b 860 282 957 308 926 282 l 279 282 b 268 272 272 282 268 279 l 268 261 b 279 243 268 251 271 246 l 896 4 b 958 -100 946 -14 958 -39 l 958 -221 b 863 -307 958 -281 929 -307 l 94 -307 b 69 -282 78 -307 69 -299 l 69 -161 b 94 -136 69 -144 78 -136 l 740 -136 b 753 -126 749 -136 753 -133 l 753 -117 b 742 -97 753 -106 750 -100 l 125 140 b 63 239 75 160 63 182 l 63 367 b 158 453 63 425 92 453 l 739 453 b 750 463 747 453 750 456 l 750 472 b 740 492 750 483 749 489 l 124 732 b 61 831 72 750 61 772 l 61 956 b 157 1043 61 1015 90 1043 "},"¨":{"ha":760,"x_min":0,"x_max":0,"o":"m 254 1044 b 285 1014 275 1044 285 1035 l 285 882 b 254 850 285 861 275 850 l 118 850 b 88 882 97 850 88 861 l 88 1014 b 118 1044 88 1035 97 1044 m 642 1044 b 672 1014 663 1044 672 1035 l 672 882 b 642 850 672 861 663 850 l 506 850 b 475 882 485 850 475 861 l 475 1014 b 506 1044 475 1035 485 1044 "},"©":{"ha":1369,"x_min":0,"x_max":0,"o":"m 917 746 b 931 731 926 746 931 740 l 931 665 b 917 651 931 656 926 651 l 599 651 b 496 547 521 651 496 626 l 496 444 b 599 340 496 364 521 340 l 917 340 b 931 325 926 340 931 335 l 931 260 b 917 244 931 250 926 244 l 594 244 b 394 435 450 244 394 297 l 394 557 b 594 746 394 693 450 746 m 899 972 b 1288 606 1181 972 1288 872 l 1288 367 b 899 0 1288 100 1181 0 l 471 0 b 82 367 189 0 82 101 l 82 606 b 471 972 82 871 189 972 m 188 368 b 471 106 188 176 264 106 l 897 106 b 1182 368 1106 106 1182 175 l 1182 604 b 897 867 1182 797 1106 867 l 471 867 b 188 604 264 867 188 796 "},"ª":{"ha":650,"x_min":0,"x_max":0,"o":"m 411 972 b 593 814 546 972 593 929 l 593 493 b 536 431 593 443 581 431 l 174 431 b 56 542 86 431 56 461 l 56 657 b 174 758 56 726 88 758 l 464 758 l 464 779 b 385 847 464 829 446 847 l 82 847 b 68 863 72 847 68 853 l 68 958 b 82 972 68 968 72 972 m 444 551 b 464 575 458 551 464 557 l 464 654 l 221 654 b 182 618 193 654 182 642 l 182 590 b 221 551 182 563 193 551 l 444 551 "},"«":{"ha":743,"x_min":0,"x_max":0,"o":"m 342 763 b 363 733 363 763 371 749 l 208 418 b 200 388 203 408 200 397 l 200 375 b 208 344 200 364 203 354 l 363 29 b 342 0 371 14 363 0 l 236 0 b 199 24 218 0 206 8 l 61 308 b 44 374 49 335 44 349 l 44 389 b 61 454 44 414 49 428 l 199 739 b 236 763 206 753 218 763 m 674 763 b 694 733 694 763 703 749 l 540 418 b 532 388 535 408 532 397 l 532 375 b 540 344 532 364 535 354 l 694 29 b 674 0 703 14 694 0 l 568 0 b 531 24 550 0 538 8 l 393 308 b 376 374 381 335 376 349 l 376 389 b 393 454 376 414 381 428 l 531 739 b 568 763 538 753 550 763 "},"¬":{"ha":853,"x_min":0,"x_max":0,"o":"m 764 764 b 793 735 783 764 793 754 l 793 25 b 768 0 793 8 785 0 l 685 0 b 660 25 668 0 660 8 l 660 631 l 83 631 b 58 656 67 631 58 639 l 58 739 b 83 764 58 756 67 764 "},"­":{"ha":529,"x_min":0,"x_max":0,"o":"m 474 553 b 499 528 490 553 499 544 l 499 428 b 474 403 499 411 490 403 l 56 403 b 31 428 39 403 31 411 l 31 528 b 56 553 31 544 39 553 "},"®":{"ha":1369,"x_min":0,"x_max":0,"o":"m 899 972 b 1288 606 1181 972 1288 872 l 1288 367 b 899 0 1288 100 1181 0 l 471 0 b 82 367 189 0 82 101 l 82 606 b 471 972 82 871 189 972 m 811 746 b 965 599 921 746 965 696 l 965 558 b 857 417 965 476 933 429 l 979 265 b 969 244 985 257 985 244 l 893 244 b 863 260 875 244 871 247 l 751 406 l 510 406 l 510 260 b 496 244 510 250 506 244 l 424 244 b 408 260 414 244 408 250 l 408 725 b 431 746 408 739 415 746 m 188 368 b 471 106 188 176 264 106 l 897 106 b 1182 368 1106 106 1182 175 l 1182 604 b 897 867 1182 797 1106 867 l 471 867 b 188 604 264 867 188 796 m 790 486 b 863 556 843 486 863 508 l 863 586 b 792 654 863 632 843 654 l 519 654 b 510 646 514 654 510 651 l 510 486 "},"¯":{"ha":888,"x_min":0,"x_max":0,"o":"m 769 1019 b 800 989 790 1019 800 1010 l 800 908 b 769 878 800 888 790 878 l 118 878 b 88 908 97 878 88 888 l 88 989 b 118 1019 88 1010 97 1019 "},"°":{"ha":721,"x_min":0,"x_max":0,"o":"m 443 972 b 646 781 590 972 646 919 l 646 657 b 443 465 646 518 590 465 l 275 465 b 74 657 129 465 74 518 l 74 781 b 275 972 74 919 129 972 m 206 681 b 294 593 206 608 221 593 l 424 593 b 513 681 497 593 513 608 l 513 757 b 424 844 513 829 497 844 l 294 844 b 206 757 221 844 206 829 "},"±":{"ha":853,"x_min":0,"x_max":0,"o":"m 768 133 b 793 108 785 133 793 125 l 793 25 b 768 0 793 8 785 0 l 83 0 b 58 25 67 0 58 8 l 58 108 b 83 133 58 125 67 133 m 467 931 b 492 906 483 931 492 922 l 492 631 l 768 631 b 793 606 785 631 793 622 l 793 522 b 768 497 793 506 785 497 l 492 497 l 492 221 b 467 196 492 204 483 196 l 383 196 b 358 221 367 196 358 204 l 358 497 l 83 497 b 58 522 67 497 58 506 l 58 606 b 83 631 58 622 67 631 l 358 631 l 358 906 b 383 931 358 922 367 931 "},"²":{"ha":708,"x_min":0,"x_max":0,"o":"m 507 972 b 643 847 596 972 643 926 l 643 790 b 508 658 643 707 596 658 l 225 658 b 189 617 200 658 189 646 l 189 561 b 201 549 189 553 193 549 l 624 549 b 642 532 636 549 642 543 l 642 456 b 624 438 642 443 636 438 l 138 438 b 67 501 86 438 67 457 l 67 622 b 200 756 67 708 113 756 l 485 756 b 519 796 508 756 519 768 l 519 821 b 483 861 519 849 507 861 l 104 861 b 86 878 92 861 86 867 l 86 954 b 104 972 86 967 92 972 "},"³":{"ha":693,"x_min":0,"x_max":0,"o":"m 481 972 b 619 846 581 972 619 935 l 619 810 b 578 714 619 769 604 736 b 624 614 608 692 624 657 l 624 569 b 496 438 624 482 588 438 l 79 438 b 63 456 68 438 63 443 l 63 532 b 79 549 63 543 68 549 l 454 549 b 500 592 488 549 500 561 l 500 611 b 454 660 500 646 489 660 l 85 660 b 67 676 72 660 67 665 l 67 740 b 85 757 67 751 72 757 l 454 757 b 500 801 489 757 500 769 l 500 818 b 454 861 500 849 486 861 l 79 861 b 63 878 67 861 63 867 l 63 956 b 79 972 63 967 67 972 "},"´":{"ha":546,"x_min":0,"x_max":0,"o":"m 407 1133 b 426 1100 428 1133 436 1119 l 283 844 b 242 813 269 819 260 813 l 136 813 b 115 846 114 813 106 826 l 240 1101 b 283 1133 251 1124 264 1133 "},"¶":{"ha":1114,"x_min":0,"x_max":0,"o":"m 586 1042 b 708 924 667 1042 708 1003 l 708 -281 b 681 -307 708 -299 699 -307 l 550 -307 b 525 -281 533 -307 525 -299 l 525 388 l 360 388 b 85 629 154 388 85 451 l 85 801 b 360 1042 85 978 154 1042 m 1001 1042 b 1028 1015 1019 1042 1028 1033 l 1028 -281 b 1001 -307 1028 -299 1019 -307 l 872 -307 b 846 -281 854 -307 846 -299 l 846 1015 b 872 1042 846 1033 854 1042 m 267 658 b 364 547 267 571 286 547 l 525 547 l 525 832 b 476 882 525 865 510 882 l 371 882 b 267 778 288 882 267 861 l 267 658 "},"·":{"ha":372,"x_min":0,"x_max":0,"o":"m 254 585 b 285 554 275 585 285 575 l 285 421 b 254 390 285 400 275 390 l 118 390 b 88 421 97 390 88 400 l 88 554 b 118 585 88 575 97 585 "},"¸":{"ha":439,"x_min":0,"x_max":0,"o":"m 321 -57 b 346 -93 342 -57 351 -69 l 286 -346 b 251 -378 281 -368 271 -378 l 172 -378 b 140 -346 150 -378 139 -367 l 163 -89 b 196 -57 164 -68 176 -57 "},"¹":{"ha":338,"x_min":0,"x_max":0,"o":"m 176 972 b 257 897 235 972 257 949 l 257 456 b 239 438 257 443 251 438 l 153 438 b 136 456 142 438 136 443 l 136 838 b 113 861 136 854 128 861 l 58 861 b 42 878 47 861 42 867 l 42 954 b 58 972 42 967 47 972 "},"º":{"ha":711,"x_min":0,"x_max":0,"o":"m 464 972 b 646 814 599 972 646 929 l 646 589 b 464 431 646 474 599 431 l 247 431 b 67 589 113 431 67 474 l 67 814 b 247 972 67 929 113 972 m 194 628 b 268 556 194 564 203 556 l 443 556 b 517 628 508 556 517 565 l 517 776 b 443 849 517 839 508 849 l 268 849 b 194 776 203 849 194 839 "},"»":{"ha":743,"x_min":0,"x_max":0,"o":"m 175 763 b 213 739 193 763 204 753 l 350 454 b 367 390 363 428 367 414 l 367 374 b 350 308 367 349 363 335 l 213 24 b 175 0 204 8 193 0 l 69 0 b 49 29 49 0 40 14 l 203 344 b 210 374 207 354 210 364 l 210 388 b 203 418 210 397 207 408 l 49 733 b 69 763 40 749 49 763 m 507 763 b 544 739 525 763 536 753 l 682 454 b 699 390 694 428 699 414 l 699 374 b 682 308 699 349 694 335 l 544 24 b 507 0 536 8 525 0 l 401 0 b 381 29 381 0 372 14 l 535 344 b 542 374 539 354 542 364 l 542 388 b 535 418 542 397 539 408 l 381 733 b 401 763 372 749 381 763 "},"¼":{"ha":1304,"x_min":0,"x_max":0,"o":"m 942 510 b 1025 535 971 529 988 535 l 1075 535 b 1146 453 1122 535 1146 518 l 1146 201 l 1207 201 b 1224 185 1218 201 1224 196 l 1224 114 b 1207 96 1224 103 1218 96 l 1146 96 l 1146 18 b 1128 0 1146 6 1139 0 l 1040 0 b 1024 18 1029 0 1024 6 l 1024 96 l 635 96 b 581 146 599 96 581 117 l 581 210 b 614 281 581 236 585 261 m 978 972 b 988 947 993 972 997 958 l 238 14 b 200 0 229 4 221 0 l 115 0 b 106 25 100 0 96 14 l 856 958 b 892 972 863 968 872 972 m 263 972 b 343 897 321 972 343 949 l 343 456 b 325 438 343 443 338 438 l 239 438 b 222 456 228 438 222 443 l 222 838 b 199 861 222 854 214 861 l 144 861 b 128 878 133 861 128 867 l 128 954 b 144 972 128 967 133 972 m 715 208 b 722 201 715 204 718 201 l 1024 201 l 1024 415 b 1015 425 1024 422 1019 425 l 1010 425 b 989 418 1001 425 997 424 l 722 229 b 715 215 717 226 715 222 l 715 208 "},"½":{"ha":1389,"x_min":0,"x_max":0,"o":"m 1172 535 b 1308 410 1261 535 1308 489 l 1308 353 b 1174 221 1308 269 1261 221 l 890 221 b 854 179 865 221 854 208 l 854 124 b 867 111 854 115 858 111 l 1289 111 b 1307 94 1301 111 1307 106 l 1307 18 b 1289 0 1307 6 1301 0 l 803 0 b 732 64 751 0 732 19 l 732 185 b 865 318 732 271 778 318 l 1150 318 b 1185 358 1174 318 1185 331 l 1185 383 b 1149 424 1185 411 1172 424 l 769 424 b 751 440 757 424 751 429 l 751 517 b 769 535 751 529 757 535 m 263 972 b 343 897 321 972 343 949 l 343 456 b 325 438 343 443 338 438 l 239 438 b 222 456 228 438 222 443 l 222 838 b 199 861 222 854 214 861 l 144 861 b 128 878 133 861 128 867 l 128 954 b 144 972 128 967 133 972 m 978 972 b 988 947 993 972 997 958 l 238 14 b 200 0 229 4 221 0 l 115 0 b 106 25 100 0 96 14 l 856 958 b 892 972 863 968 872 972 "},"¾":{"ha":1593,"x_min":0,"x_max":0,"o":"m 1229 510 b 1313 535 1258 529 1275 535 l 1363 535 b 1433 453 1410 535 1433 518 l 1433 201 l 1494 201 b 1511 185 1506 201 1511 196 l 1511 114 b 1494 96 1511 103 1506 96 l 1433 96 l 1433 18 b 1415 0 1433 6 1426 0 l 1328 0 b 1311 18 1317 0 1311 6 l 1311 96 l 922 96 b 868 146 886 96 868 117 l 868 210 b 901 281 868 236 872 261 m 500 972 b 639 846 600 972 639 935 l 639 810 b 597 714 639 769 624 736 b 643 614 628 692 643 657 l 643 569 b 515 438 643 482 607 438 l 99 438 b 82 456 88 438 82 443 l 82 532 b 99 549 82 543 88 549 l 474 549 b 519 592 507 549 519 561 l 519 611 b 474 660 519 646 508 660 l 104 660 b 86 676 92 660 86 665 l 86 740 b 104 757 86 751 92 757 l 474 757 b 519 801 508 757 519 769 l 519 818 b 474 861 519 849 506 861 l 99 861 b 82 878 86 861 82 867 l 82 956 b 99 972 82 967 86 972 m 1265 972 b 1275 947 1281 972 1285 958 l 525 14 b 488 0 517 4 508 0 l 403 0 b 393 25 388 0 383 14 l 1143 958 b 1179 972 1150 968 1160 972 m 1003 208 b 1010 201 1003 204 1006 201 l 1311 201 l 1311 415 b 1303 425 1311 422 1307 425 l 1297 425 b 1276 418 1289 425 1285 424 l 1010 229 b 1003 215 1004 226 1003 222 l 1003 208 "},"¿":{"ha":876,"x_min":0,"x_max":0,"o":"m 444 521 b 414 551 425 521 414 531 l 414 685 b 444 715 414 706 425 715 l 582 715 b 613 685 601 715 613 706 l 613 551 b 582 521 613 531 601 521 m 232 -306 b 43 -118 103 -306 43 -243 l 43 -60 b 169 146 43 51 74 101 l 401 256 b 438 313 425 267 435 283 l 442 347 b 483 382 444 375 453 382 l 544 382 b 583 347 574 382 583 372 l 585 279 b 524 160 586 224 571 186 l 292 38 b 250 -36 261 21 250 0 l 250 -72 b 308 -119 250 -107 263 -119 l 803 -119 b 833 -150 822 -119 833 -129 l 833 -275 b 803 -306 833 -296 822 -306 "},"À":{"ha":1354,"x_min":0,"x_max":0,"o":"m 708 972 b 868 867 781 972 822 951 l 1328 32 b 1311 0 1338 13 1333 0 l 1135 0 b 1103 17 1117 0 1108 4 l 1011 186 l 346 186 l 256 17 b 224 0 249 4 242 0 l 42 0 b 25 32 19 0 15 13 l 481 867 b 626 972 525 951 568 972 m 624 1272 b 667 1247 644 1272 657 1263 l 790 1042 b 771 1015 800 1025 792 1015 l 664 1015 b 622 1040 643 1015 633 1024 l 481 1246 b 501 1272 469 1264 482 1272 m 913 367 l 697 765 b 681 775 693 772 688 775 l 672 775 b 657 765 665 775 661 772 l 443 367 "},"Á":{"ha":1354,"x_min":0,"x_max":0,"o":"m 708 972 b 868 867 781 972 822 951 l 1328 32 b 1311 0 1338 13 1333 0 l 1135 0 b 1103 17 1117 0 1108 4 l 1011 186 l 346 186 l 256 17 b 224 0 249 4 242 0 l 42 0 b 25 32 19 0 15 13 l 481 867 b 626 972 525 951 568 972 m 853 1272 b 872 1246 872 1272 883 1264 l 732 1040 b 689 1015 719 1024 710 1015 l 583 1015 b 563 1042 561 1015 553 1025 l 686 1247 b 729 1272 696 1263 708 1272 m 913 367 l 697 765 b 681 775 693 772 688 775 l 672 775 b 657 765 665 775 661 772 l 443 367 "},"Â":{"ha":1354,"x_min":0,"x_max":0,"o":"m 708 972 b 868 867 781 972 822 951 l 1328 32 b 1311 0 1338 13 1333 0 l 1135 0 b 1103 17 1117 0 1108 4 l 1011 186 l 346 186 l 256 17 b 224 0 249 4 242 0 l 42 0 b 25 32 19 0 15 13 l 481 867 b 626 972 525 951 568 972 m 739 1272 b 800 1243 769 1272 785 1263 l 947 1043 b 929 1015 958 1028 949 1015 l 822 1015 b 778 1040 800 1015 789 1024 l 699 1160 b 681 1171 693 1168 688 1171 l 675 1171 b 657 1160 665 1171 661 1168 l 576 1040 b 533 1015 565 1024 556 1015 l 426 1015 b 408 1043 407 1015 397 1028 l 556 1243 b 615 1272 571 1263 585 1272 m 913 367 l 697 765 b 681 775 693 772 688 775 l 672 775 b 657 765 665 775 661 772 l 443 367 "},"Ã":{"ha":1354,"x_min":0,"x_max":0,"o":"m 708 972 b 868 867 781 972 822 951 l 1328 32 b 1311 0 1338 13 1333 0 l 1135 0 b 1103 17 1117 0 1108 4 l 1011 186 l 346 186 l 256 17 b 224 0 249 4 242 0 l 42 0 b 25 32 19 0 15 13 l 481 867 b 626 972 525 951 568 972 m 344 1032 b 319 1072 324 1032 319 1042 b 494 1267 319 1221 368 1267 b 722 1189 586 1267 656 1243 b 828 1151 757 1161 783 1151 b 892 1243 883 1151 892 1167 b 929 1272 893 1264 906 1272 l 1007 1272 b 1033 1232 1029 1272 1033 1264 b 858 1038 1033 1083 985 1038 b 629 1115 765 1038 697 1061 b 525 1153 597 1142 569 1153 b 461 1063 469 1153 461 1138 b 422 1032 460 1042 447 1032 m 913 367 l 697 765 b 681 775 693 772 688 775 l 672 775 b 657 765 665 775 661 772 l 443 367 "},"Ä":{"ha":1354,"x_min":0,"x_max":0,"o":"m 708 972 b 868 867 781 972 822 951 l 1328 32 b 1311 0 1338 13 1333 0 l 1135 0 b 1103 17 1117 0 1108 4 l 1011 186 l 346 186 l 256 17 b 224 0 249 4 242 0 l 42 0 b 25 32 19 0 15 13 l 481 867 b 626 972 525 951 568 972 m 551 1229 b 583 1204 572 1229 583 1221 l 583 1072 b 551 1047 583 1056 572 1047 l 415 1047 b 385 1072 396 1047 385 1056 l 385 1204 b 415 1229 385 1221 396 1229 m 940 1229 b 971 1204 960 1229 971 1221 l 971 1072 b 940 1047 971 1056 960 1047 l 803 1047 b 772 1072 783 1047 772 1056 l 772 1204 b 803 1229 772 1221 783 1229 m 913 367 l 697 765 b 681 775 693 772 688 775 l 672 775 b 657 765 665 775 661 772 l 443 367 "},"Å":{"ha":1354,"x_min":0,"x_max":0,"o":"m 708 972 b 868 867 781 972 822 951 l 1328 32 b 1311 0 1338 13 1333 0 l 1135 0 b 1103 17 1117 0 1108 4 l 1011 186 l 346 186 l 256 17 b 224 0 249 4 242 0 l 42 0 b 25 32 19 0 15 13 l 481 867 b 626 972 525 951 568 972 m 743 1272 b 886 1164 846 1272 886 1242 l 886 1094 b 743 986 886 1017 846 986 l 608 986 b 467 1094 506 986 467 1017 l 467 1164 b 608 1272 467 1242 506 1272 m 913 367 l 697 765 b 681 775 693 772 688 775 l 672 775 b 657 765 665 775 661 772 l 443 367 m 574 1108 b 628 1068 574 1072 579 1068 l 725 1068 b 779 1108 774 1068 779 1072 l 779 1149 b 725 1190 779 1186 772 1190 l 628 1190 b 574 1149 581 1190 574 1185 "},"Æ":{"ha":1875,"x_min":0,"x_max":0,"o":"m 1774 972 b 1806 942 1794 972 1806 961 l 1806 807 b 1774 776 1806 786 1794 776 l 1050 776 l 1050 583 l 1767 583 b 1797 551 1788 583 1797 572 l 1797 429 b 1767 399 1797 408 1788 399 l 1050 399 l 1050 382 b 1233 194 1050 236 1089 194 l 1774 194 b 1806 164 1794 194 1806 185 l 1806 31 b 1774 0 1806 10 1794 0 l 1229 0 b 865 186 1024 0 911 53 l 346 186 l 256 17 b 224 0 249 4 240 0 l 42 0 b 25 32 19 0 15 13 l 481 867 b 626 972 524 947 565 972 m 840 367 l 840 776 l 675 776 b 658 767 668 776 663 774 l 443 367 "},"Ç":{"ha":1183,"x_min":0,"x_max":0,"o":"m 1096 972 b 1126 942 1117 972 1126 963 l 1126 806 b 1096 775 1126 785 1117 775 l 478 775 b 293 585 335 775 293 732 l 293 388 b 478 197 293 240 335 197 l 1096 197 b 1126 167 1117 197 1126 188 l 1126 31 b 1096 0 1126 10 1117 0 l 471 0 b 82 367 189 0 82 100 l 82 606 b 471 972 82 872 189 972 m 713 -57 b 738 -93 733 -57 743 -69 l 678 -346 b 643 -378 672 -368 663 -378 l 564 -378 b 532 -346 542 -378 531 -367 l 554 -89 b 588 -57 556 -68 568 -57 "},"È":{"ha":1181,"x_min":0,"x_max":0,"o":"m 1082 972 b 1113 942 1101 972 1113 963 l 1113 807 b 1082 776 1113 788 1101 776 l 472 776 b 292 590 329 776 292 736 l 292 583 l 1074 583 b 1104 553 1093 583 1104 574 l 1104 429 b 1074 399 1104 408 1093 399 l 292 399 l 292 382 b 472 196 292 236 329 196 l 1082 196 b 1113 165 1101 196 1113 185 l 1113 31 b 1082 0 1113 10 1101 0 l 471 0 b 82 367 189 0 82 101 l 82 606 b 471 972 82 871 189 972 m 594 1272 b 638 1247 615 1272 628 1263 l 761 1042 b 742 1015 771 1025 763 1015 l 635 1015 b 593 1040 614 1015 604 1024 l 451 1246 b 472 1272 440 1264 453 1272 "},"É":{"ha":1181,"x_min":0,"x_max":0,"o":"m 1082 972 b 1113 942 1101 972 1113 963 l 1113 807 b 1082 776 1113 788 1101 776 l 472 776 b 292 590 329 776 292 736 l 292 583 l 1074 583 b 1104 553 1093 583 1104 574 l 1104 429 b 1074 399 1104 408 1093 399 l 292 399 l 292 382 b 472 196 292 236 329 196 l 1082 196 b 1113 165 1101 196 1113 185 l 1113 31 b 1082 0 1113 10 1101 0 l 471 0 b 82 367 189 0 82 101 l 82 606 b 471 972 82 871 189 972 m 824 1272 b 843 1246 843 1272 854 1264 l 703 1040 b 660 1015 690 1024 681 1015 l 554 1015 b 533 1042 532 1015 524 1025 l 657 1247 b 700 1272 667 1263 679 1272 "},"Ê":{"ha":1181,"x_min":0,"x_max":0,"o":"m 1082 972 b 1113 942 1101 972 1113 963 l 1113 807 b 1082 776 1113 788 1101 776 l 472 776 b 292 590 329 776 292 736 l 292 583 l 1074 583 b 1104 553 1093 583 1104 574 l 1104 429 b 1074 399 1104 408 1093 399 l 292 399 l 292 382 b 472 196 292 236 329 196 l 1082 196 b 1113 165 1101 196 1113 185 l 1113 31 b 1082 0 1113 10 1101 0 l 471 0 b 82 367 189 0 82 101 l 82 606 b 471 972 82 871 189 972 m 708 1272 b 769 1243 739 1272 754 1263 l 917 1043 b 899 1015 928 1028 918 1015 l 792 1015 b 747 1040 769 1015 758 1024 l 668 1160 b 650 1171 663 1168 657 1171 l 644 1171 b 626 1160 635 1171 631 1168 l 546 1040 b 503 1015 535 1024 525 1015 l 396 1015 b 378 1043 376 1015 367 1028 l 525 1243 b 585 1272 540 1263 554 1272 "},"Ë":{"ha":1181,"x_min":0,"x_max":0,"o":"m 1082 972 b 1113 942 1101 972 1113 963 l 1113 807 b 1082 776 1113 788 1101 776 l 472 776 b 292 590 329 776 292 736 l 292 583 l 1074 583 b 1104 553 1093 583 1104 574 l 1104 429 b 1074 399 1104 408 1093 399 l 292 399 l 292 382 b 472 196 292 236 329 196 l 1082 196 b 1113 165 1101 196 1113 185 l 1113 31 b 1082 0 1113 10 1101 0 l 471 0 b 82 367 189 0 82 101 l 82 606 b 471 972 82 871 189 972 m 521 1229 b 553 1204 542 1229 553 1221 l 553 1072 b 521 1047 553 1056 542 1047 l 385 1047 b 354 1072 365 1047 354 1056 l 354 1204 b 385 1229 354 1221 365 1229 m 910 1229 b 940 1204 929 1229 940 1221 l 940 1072 b 910 1047 940 1056 929 1047 l 772 1047 b 742 1072 753 1047 742 1056 l 742 1204 b 772 1229 742 1221 753 1229 "},"Ì":{"ha":401,"x_min":0,"x_max":0,"o":"m 278 972 b 308 942 299 972 308 963 l 308 31 b 278 0 308 10 299 0 l 128 0 b 97 31 107 0 97 10 l 97 942 b 128 972 97 963 107 972 m 149 1272 b 192 1247 169 1272 182 1263 l 315 1042 b 296 1015 325 1025 317 1015 l 189 1015 b 147 1040 168 1015 158 1024 l 6 1246 b 26 1272 -6 1264 7 1272 "},"Í":{"ha":401,"x_min":0,"x_max":0,"o":"m 274 972 b 304 942 294 972 304 963 l 304 31 b 274 0 304 10 294 0 l 124 0 b 93 31 103 0 93 10 l 93 942 b 124 972 93 963 103 972 m 374 1272 b 393 1246 393 1272 404 1264 l 253 1040 b 210 1015 240 1024 231 1015 l 104 1015 b 83 1042 82 1015 74 1025 l 207 1247 b 250 1272 217 1263 229 1272 "},"Î":{"ha":517,"x_min":0,"x_max":0,"o":"m 333 972 b 364 942 354 972 364 963 l 364 31 b 333 0 364 10 354 0 l 183 0 b 153 31 163 0 153 10 l 153 942 b 183 972 153 963 163 972 m 321 1272 b 382 1243 351 1272 367 1263 l 529 1043 b 511 1015 540 1028 531 1015 l 404 1015 b 360 1040 382 1015 371 1024 l 281 1160 b 263 1171 275 1168 269 1171 l 257 1171 b 239 1160 247 1171 243 1168 l 158 1040 b 115 1015 147 1024 138 1015 l 8 1015 b -10 1043 -11 1015 -21 1028 l 138 1243 b 197 1272 153 1263 167 1272 "},"Ï":{"ha":529,"x_min":0,"x_max":0,"o":"m 339 972 b 369 942 360 972 369 963 l 369 31 b 339 0 369 10 360 0 l 189 0 b 158 31 168 0 158 10 l 158 942 b 189 972 158 963 168 972 m 169 1229 b 201 1204 190 1229 201 1221 l 201 1072 b 169 1047 201 1056 190 1047 l 33 1047 b 3 1072 14 1047 3 1056 l 3 1204 b 33 1229 3 1221 14 1229 m 496 1229 b 528 1204 517 1229 528 1221 l 528 1072 b 496 1047 528 1056 517 1047 l 360 1047 b 329 1072 340 1047 329 1056 l 329 1204 b 360 1229 329 1221 340 1229 "},"Ð":{"ha":1367,"x_min":0,"x_max":0,"o":"m 169 576 l 169 931 b 211 972 169 958 183 972 l 860 972 b 1285 581 1161 972 1285 851 l 1285 392 b 860 0 1285 121 1161 0 l 211 0 b 169 42 183 0 169 14 l 169 406 l 49 406 b 18 436 28 406 18 417 l 18 546 b 49 576 18 565 28 576 m 381 576 l 853 576 b 883 546 874 576 883 565 l 883 436 b 853 406 883 417 874 406 l 381 406 l 381 214 b 399 196 381 201 386 196 l 854 196 b 1074 410 1018 196 1074 246 l 1074 563 b 854 776 1074 726 1018 776 l 399 776 b 381 758 386 776 381 771 "},"Ñ":{"ha":1358,"x_min":0,"x_max":0,"o":"m 342 972 b 503 890 442 972 458 951 l 1014 213 b 1032 203 1018 206 1024 203 l 1044 203 b 1056 217 1051 203 1056 207 l 1056 942 b 1086 972 1056 963 1065 972 l 1235 972 b 1265 942 1256 972 1265 963 l 1265 144 b 1140 0 1265 35 1228 0 l 1017 0 b 857 82 917 0 900 21 l 344 760 b 326 769 339 767 335 769 l 314 769 b 303 756 306 769 303 765 l 303 31 b 272 0 303 10 292 0 l 124 0 b 93 31 103 0 93 10 l 93 828 b 217 972 93 938 129 972 m 350 1032 b 325 1072 329 1032 325 1042 b 500 1267 325 1221 374 1267 b 728 1189 592 1267 661 1243 b 833 1151 763 1161 789 1151 b 897 1243 889 1151 897 1167 b 935 1272 899 1264 911 1272 l 1013 1272 b 1039 1232 1035 1272 1039 1264 b 864 1038 1039 1083 990 1038 b 635 1115 771 1038 703 1061 b 531 1153 603 1142 575 1153 b 467 1063 475 1153 467 1138 b 428 1032 465 1042 453 1032 "},"Ò":{"ha":1369,"x_min":0,"x_max":0,"o":"m 899 972 b 1288 606 1181 972 1288 872 l 1288 367 b 899 0 1288 100 1181 0 l 471 0 b 82 367 189 0 82 101 l 82 606 b 471 972 82 871 189 972 m 625 1272 b 668 1247 646 1272 658 1263 l 792 1042 b 772 1015 801 1025 793 1015 l 665 1015 b 624 1040 644 1015 635 1024 l 482 1246 b 503 1272 471 1264 483 1272 m 293 382 b 478 196 293 236 333 196 l 890 196 b 1075 382 1035 196 1075 236 l 1075 590 b 890 776 1075 736 1035 776 l 478 776 b 293 590 333 776 293 736 "},"Ó":{"ha":1369,"x_min":0,"x_max":0,"o":"m 899 972 b 1288 606 1181 972 1288 872 l 1288 367 b 899 0 1288 100 1181 0 l 471 0 b 82 367 189 0 82 101 l 82 606 b 471 972 82 871 189 972 m 858 1272 b 878 1246 878 1272 889 1264 l 738 1040 b 694 1015 725 1024 715 1015 l 589 1015 b 568 1042 567 1015 558 1025 l 692 1247 b 735 1272 701 1263 714 1272 m 293 382 b 478 196 293 236 333 196 l 890 196 b 1075 382 1035 196 1075 236 l 1075 590 b 890 776 1075 736 1035 776 l 478 776 b 293 590 333 776 293 736 "},"Ô":{"ha":1369,"x_min":0,"x_max":0,"o":"m 899 972 b 1288 606 1181 972 1288 872 l 1288 367 b 899 0 1288 100 1181 0 l 471 0 b 82 367 189 0 82 101 l 82 606 b 471 972 82 871 189 972 m 746 1272 b 807 1243 776 1272 792 1263 l 954 1043 b 936 1015 965 1028 956 1015 l 829 1015 b 785 1040 807 1015 796 1024 l 706 1160 b 688 1171 700 1168 694 1171 l 682 1171 b 664 1160 672 1171 668 1168 l 583 1040 b 540 1015 572 1024 563 1015 l 433 1015 b 415 1043 414 1015 404 1028 l 563 1243 b 622 1272 578 1263 592 1272 m 293 382 b 478 196 293 236 333 196 l 890 196 b 1075 382 1035 196 1075 236 l 1075 590 b 890 776 1075 736 1035 776 l 478 776 b 293 590 333 776 293 736 "},"Õ":{"ha":1369,"x_min":0,"x_max":0,"o":"m 899 972 b 1288 606 1181 972 1288 872 l 1288 367 b 899 0 1288 100 1181 0 l 471 0 b 82 367 189 0 82 101 l 82 606 b 471 972 82 871 189 972 m 353 1032 b 328 1072 332 1032 328 1042 b 503 1267 328 1221 376 1267 b 731 1189 594 1267 664 1243 b 836 1151 765 1161 792 1151 b 900 1243 892 1151 900 1167 b 938 1272 901 1264 914 1272 l 1015 1272 b 1042 1232 1038 1272 1042 1264 b 867 1038 1042 1083 993 1038 b 638 1115 774 1038 706 1061 b 533 1153 606 1142 578 1153 b 469 1063 478 1153 469 1138 b 431 1032 468 1042 456 1032 m 293 382 b 478 196 293 236 333 196 l 890 196 b 1075 382 1035 196 1075 236 l 1075 590 b 890 776 1075 736 1035 776 l 478 776 b 293 590 333 776 293 736 "},"Ö":{"ha":1369,"x_min":0,"x_max":0,"o":"m 899 972 b 1288 606 1181 972 1288 872 l 1288 367 b 899 0 1288 100 1181 0 l 471 0 b 82 367 189 0 82 101 l 82 606 b 471 972 82 871 189 972 m 558 1229 b 590 1204 579 1229 590 1221 l 590 1072 b 558 1047 590 1056 579 1047 l 422 1047 b 392 1072 403 1047 392 1056 l 392 1204 b 422 1229 392 1221 403 1229 m 947 1229 b 978 1204 967 1229 978 1221 l 978 1072 b 947 1047 978 1056 967 1047 l 810 1047 b 779 1072 790 1047 779 1056 l 779 1204 b 810 1229 779 1221 790 1229 m 293 382 b 478 196 293 236 333 196 l 890 196 b 1075 382 1035 196 1075 236 l 1075 590 b 890 776 1075 736 1035 776 l 478 776 b 293 590 333 776 293 736 "},"×":{"ha":853,"x_min":0,"x_max":0,"o":"m 146 825 b 182 825 157 836 171 836 l 425 581 l 669 825 b 706 825 682 836 693 836 l 764 765 b 764 731 775 754 775 742 l 519 486 l 764 242 b 764 207 775 231 775 218 l 706 147 b 669 147 693 136 682 136 l 425 392 l 181 147 b 146 147 169 136 157 136 l 88 207 b 88 242 75 218 75 231 l 332 486 l 88 731 b 88 765 75 742 75 754 "},"Ø":{"ha":1369,"x_min":0,"x_max":0,"o":"m 1192 1111 b 1204 1085 1207 1111 1215 1099 l 1100 946 b 1288 606 1233 901 1288 796 l 1288 367 b 899 0 1288 100 1181 0 l 471 0 b 393 3 443 0 418 1 l 304 -117 b 260 -139 289 -136 276 -139 l 176 -139 b 165 -112 161 -139 153 -126 l 268 26 b 82 367 136 72 82 178 l 82 606 b 471 972 82 871 189 972 l 899 972 b 975 969 925 972 951 971 l 1064 1089 b 1108 1111 1079 1108 1092 1111 m 293 382 b 400 201 293 268 318 218 l 831 776 l 478 776 b 293 590 333 776 293 736 m 1075 590 b 969 771 1075 704 1050 754 l 538 196 l 890 196 b 1075 382 1035 196 1075 236 l 1075 590 "},"Ù":{"ha":1357,"x_min":0,"x_max":0,"o":"m 271 972 b 301 942 292 972 301 963 l 301 388 b 486 197 301 240 343 197 l 871 197 b 1054 388 1014 197 1054 240 l 1054 942 b 1085 972 1054 963 1065 972 l 1236 972 b 1267 942 1257 972 1267 963 l 1267 367 b 878 0 1267 100 1160 0 l 479 0 b 90 367 197 0 90 100 l 90 942 b 121 972 90 963 100 972 m 625 1272 b 668 1247 646 1272 658 1263 l 792 1042 b 772 1015 801 1025 793 1015 l 665 1015 b 624 1040 644 1015 635 1024 l 482 1246 b 503 1272 471 1264 483 1272 "},"Ú":{"ha":1357,"x_min":0,"x_max":0,"o":"m 271 972 b 301 942 292 972 301 963 l 301 388 b 486 197 301 240 343 197 l 871 197 b 1054 388 1014 197 1054 240 l 1054 942 b 1085 972 1054 963 1065 972 l 1236 972 b 1267 942 1257 972 1267 963 l 1267 367 b 878 0 1267 100 1160 0 l 479 0 b 90 367 197 0 90 100 l 90 942 b 121 972 90 963 100 972 m 854 1272 b 874 1246 874 1272 885 1264 l 733 1040 b 690 1015 721 1024 711 1015 l 585 1015 b 564 1042 563 1015 554 1025 l 688 1247 b 731 1272 697 1263 710 1272 "},"Û":{"ha":1357,"x_min":0,"x_max":0,"o":"m 271 972 b 301 942 292 972 301 963 l 301 388 b 486 197 301 240 343 197 l 871 197 b 1054 388 1014 197 1054 240 l 1054 942 b 1085 972 1054 963 1065 972 l 1236 972 b 1267 942 1257 972 1267 963 l 1267 367 b 878 0 1267 100 1160 0 l 479 0 b 90 367 197 0 90 100 l 90 942 b 121 972 90 963 100 972 m 739 1272 b 800 1243 769 1272 785 1263 l 947 1043 b 929 1015 958 1028 949 1015 l 822 1015 b 778 1040 800 1015 789 1024 l 699 1160 b 681 1171 693 1168 688 1171 l 675 1171 b 657 1160 665 1171 661 1168 l 576 1040 b 533 1015 565 1024 556 1015 l 426 1015 b 408 1043 407 1015 397 1028 l 556 1243 b 615 1272 571 1263 585 1272 "},"Ü":{"ha":1357,"x_min":0,"x_max":0,"o":"m 271 972 b 301 942 292 972 301 963 l 301 388 b 486 197 301 240 343 197 l 871 197 b 1054 388 1014 197 1054 240 l 1054 942 b 1085 972 1054 963 1065 972 l 1236 972 b 1267 942 1257 972 1267 963 l 1267 367 b 878 0 1267 100 1160 0 l 479 0 b 90 367 197 0 90 100 l 90 942 b 121 972 90 963 100 972 m 551 1229 b 583 1204 572 1229 583 1221 l 583 1072 b 551 1047 583 1056 572 1047 l 415 1047 b 385 1072 396 1047 385 1056 l 385 1204 b 415 1229 385 1221 396 1229 m 940 1229 b 971 1204 960 1229 971 1221 l 971 1072 b 940 1047 971 1056 960 1047 l 803 1047 b 772 1072 783 1047 772 1056 l 772 1204 b 803 1229 772 1221 783 1229 "},"Ý":{"ha":1246,"x_min":0,"x_max":0,"o":"m 228 972 b 261 956 244 972 253 968 l 626 471 l 993 956 b 1026 972 1003 968 1011 972 l 1213 972 b 1225 944 1229 972 1235 958 l 726 297 l 726 31 b 694 0 726 11 715 0 l 546 0 b 514 31 525 0 514 11 l 514 297 l 19 944 b 33 972 10 958 17 972 m 799 1272 b 818 1246 818 1272 829 1264 l 678 1040 b 635 1015 665 1024 656 1015 l 529 1015 b 508 1042 507 1015 499 1025 l 632 1247 b 675 1272 642 1263 654 1272 "},"Þ":{"ha":1235,"x_min":0,"x_max":0,"o":"m 274 972 b 304 942 294 972 304 963 l 304 793 l 885 793 b 1178 515 1089 793 1178 701 l 1178 435 b 885 157 1178 249 1089 157 l 304 157 l 304 31 b 274 0 304 10 294 0 l 124 0 b 93 31 103 0 93 10 l 93 942 b 124 972 93 963 103 972 m 304 349 l 843 349 b 965 457 933 349 965 378 l 965 493 b 843 601 965 572 933 601 l 304 601 "},"ß":{"ha":1272,"x_min":0,"x_max":0,"o":"m 522 1068 b 794 792 729 1068 794 994 l 794 656 b 858 592 794 611 814 592 l 979 592 b 1196 375 1132 592 1196 526 l 1196 225 b 978 0 1196 72 1133 0 l 456 0 b 431 25 439 0 431 8 l 431 146 b 456 171 431 163 439 171 l 910 171 b 999 254 972 171 999 194 l 999 343 b 908 422 999 400 974 422 l 801 422 b 597 617 661 422 597 486 l 597 792 b 489 897 597 869 571 897 l 401 897 b 286 790 314 897 286 869 l 286 31 b 256 0 286 10 276 0 l 119 0 b 89 31 99 0 89 10 l 89 790 b 368 1068 89 996 154 1068 "},"à":{"ha":1096,"x_min":0,"x_max":0,"o":"m 704 763 b 1035 482 950 763 1035 686 l 1035 111 b 932 0 1035 22 1014 0 l 271 0 b 57 197 111 0 57 54 l 57 264 b 271 456 57 393 121 456 l 838 456 l 838 469 b 685 590 838 558 804 590 l 106 590 b 81 615 89 590 81 599 l 81 738 b 106 763 81 754 89 763 m 794 165 b 838 211 825 165 838 178 l 838 313 l 329 313 b 253 254 269 313 253 296 l 253 225 b 329 165 253 178 269 165 l 794 165 m 499 1133 b 542 1101 521 1133 532 1121 l 668 846 b 647 813 678 825 668 813 l 540 813 b 499 844 519 813 511 824 l 356 1100 b 376 1133 343 1122 357 1133 "},"á":{"ha":1096,"x_min":0,"x_max":0,"o":"m 704 763 b 1035 482 950 763 1035 686 l 1035 111 b 932 0 1035 22 1014 0 l 271 0 b 57 197 111 0 57 54 l 57 264 b 271 456 57 393 121 456 l 838 456 l 838 469 b 685 590 838 558 804 590 l 106 590 b 81 615 89 590 81 599 l 81 738 b 106 763 81 754 89 763 m 794 165 b 838 211 825 165 838 178 l 838 313 l 329 313 b 253 254 269 313 253 296 l 253 225 b 329 165 253 178 269 165 l 794 165 m 726 1133 b 746 1100 747 1133 756 1119 l 603 844 b 561 813 589 819 579 813 l 456 813 b 435 846 433 813 425 826 l 560 1101 b 603 1133 571 1124 583 1133 "},"â":{"ha":1096,"x_min":0,"x_max":0,"o":"m 704 763 b 1035 482 950 763 1035 686 l 1035 111 b 932 0 1035 22 1014 0 l 271 0 b 57 197 111 0 57 54 l 57 264 b 271 456 57 393 121 456 l 838 456 l 838 469 b 685 590 838 558 804 590 l 106 590 b 81 615 89 590 81 599 l 81 738 b 106 763 81 754 89 763 m 610 1133 b 669 1099 640 1133 656 1122 l 817 847 b 799 813 828 828 818 813 l 692 813 b 649 843 669 813 660 822 l 568 997 b 551 1010 564 1006 560 1010 l 544 1010 b 528 997 536 1010 532 1006 l 447 843 b 404 813 436 822 426 813 l 297 813 b 279 847 278 813 267 828 l 426 1099 b 486 1133 440 1122 457 1133 m 794 165 b 838 211 825 165 838 178 l 838 313 l 329 313 b 253 254 269 313 253 296 l 253 225 b 329 165 253 178 269 165 l 794 165 "},"ã":{"ha":1096,"x_min":0,"x_max":0,"o":"m 704 763 b 1035 482 950 763 1035 686 l 1035 111 b 932 0 1035 22 1014 0 l 271 0 b 57 197 111 0 57 54 l 57 264 b 271 456 57 393 121 456 l 838 456 l 838 469 b 685 590 838 558 804 590 l 106 590 b 81 615 89 590 81 599 l 81 738 b 106 763 81 754 89 763 m 217 836 b 192 879 196 836 192 846 b 364 1090 192 1039 239 1090 b 594 1007 458 1090 526 1065 b 700 968 628 979 650 968 b 767 1061 757 968 767 986 b 806 1094 768 1085 781 1094 l 879 1094 b 904 1051 900 1094 904 1085 b 732 840 904 892 857 840 b 501 924 638 840 569 865 b 396 961 469 951 446 961 b 329 869 338 961 329 944 b 290 836 328 846 315 836 m 794 165 b 838 211 825 165 838 178 l 838 313 l 329 313 b 253 254 269 313 253 296 l 253 225 b 329 165 253 178 269 165 l 794 165 "},"ä":{"ha":1096,"x_min":0,"x_max":0,"o":"m 704 763 b 1035 482 950 763 1035 686 l 1035 111 b 932 0 1035 22 1014 0 l 271 0 b 57 197 111 0 57 54 l 57 264 b 271 456 57 393 121 456 l 838 456 l 838 469 b 685 590 838 558 804 590 l 106 590 b 81 615 89 590 81 599 l 81 738 b 106 763 81 754 89 763 m 794 165 b 838 211 825 165 838 178 l 838 313 l 329 313 b 253 254 269 313 253 296 l 253 225 b 329 165 253 178 269 165 l 794 165 m 422 1044 b 453 1014 443 1044 453 1035 l 453 882 b 422 850 453 861 443 850 l 286 850 b 256 882 265 850 256 861 l 256 1014 b 286 1044 256 1035 265 1044 m 810 1044 b 840 1014 831 1044 840 1035 l 840 882 b 810 850 840 861 831 850 l 674 850 b 643 882 653 850 643 861 l 643 1014 b 674 1044 643 1035 653 1044 "},"å":{"ha":1096,"x_min":0,"x_max":0,"o":"m 704 763 b 1035 482 950 763 1035 686 l 1035 111 b 932 0 1035 22 1014 0 l 271 0 b 57 197 111 0 57 54 l 57 264 b 271 456 57 393 121 456 l 838 456 l 838 469 b 685 590 838 558 804 590 l 106 590 b 81 615 89 590 81 599 l 81 738 b 106 763 81 754 89 763 m 626 1133 b 768 999 729 1133 768 1096 l 768 911 b 626 776 768 814 729 776 l 471 776 b 328 911 367 776 328 814 l 328 999 b 471 1133 328 1096 367 1133 m 794 165 b 838 211 825 165 838 178 l 838 313 l 329 313 b 253 254 269 313 253 296 l 253 225 b 329 165 253 178 269 165 l 794 165 m 446 938 b 506 878 446 892 458 878 l 590 878 b 650 938 638 878 650 892 l 650 971 b 590 1032 650 1018 638 1032 l 506 1032 b 446 971 458 1032 446 1018 "},"æ":{"ha":1881,"x_min":0,"x_max":0,"o":"m 1581 763 b 1821 535 1767 763 1821 707 l 1821 392 b 1742 314 1821 335 1797 314 l 1040 314 l 1040 289 b 1193 172 1040 201 1074 172 l 1772 172 b 1797 147 1789 172 1797 164 l 1797 25 b 1772 0 1797 8 1789 0 l 1174 0 b 1008 17 1107 0 1053 6 b 932 0 993 4 968 0 l 271 0 b 57 197 111 0 57 54 l 57 264 b 271 456 57 393 121 456 l 838 456 l 838 469 b 685 590 838 558 804 590 l 106 590 b 81 615 89 590 81 599 l 81 738 b 106 763 81 754 89 763 l 704 763 b 939 715 811 763 886 749 b 1174 763 992 749 1067 763 m 794 165 b 838 211 825 165 838 178 l 838 313 l 329 313 b 253 254 269 313 253 296 l 253 225 b 329 165 253 178 269 165 l 794 165 m 1601 457 b 1625 481 1618 457 1625 465 l 1625 529 b 1540 597 1625 583 1608 597 l 1193 597 b 1040 485 1069 597 1040 572 l 1040 457 "},"ç":{"ha":1013,"x_min":0,"x_max":0,"o":"m 943 763 b 968 738 960 763 968 754 l 968 615 b 943 590 968 599 960 590 l 404 590 b 253 443 283 590 253 560 l 253 319 b 404 172 253 203 283 172 l 943 172 b 968 147 960 172 968 164 l 968 25 b 943 0 968 8 960 0 l 385 0 b 54 281 139 0 54 75 l 54 482 b 385 763 54 686 139 763 m 610 -57 b 635 -93 631 -57 640 -69 l 575 -346 b 540 -378 569 -368 560 -378 l 461 -378 b 429 -346 439 -378 428 -367 l 451 -89 b 485 -57 453 -68 465 -57 "},"è":{"ha":1096,"x_min":0,"x_max":0,"o":"m 794 763 b 1035 535 981 763 1035 707 l 1035 392 b 956 314 1035 335 1011 314 l 254 314 l 254 289 b 407 172 254 201 288 172 l 986 172 b 1011 147 1003 172 1011 164 l 1011 25 b 986 0 1011 8 1003 0 l 388 0 b 57 281 142 0 57 75 l 57 482 b 388 763 57 686 142 763 m 815 457 b 839 481 832 457 839 465 l 839 529 b 754 597 839 583 822 597 l 407 597 b 254 485 283 597 254 572 l 254 457 m 496 1133 b 539 1101 518 1133 529 1121 l 665 846 b 644 813 675 825 665 813 l 538 813 b 496 844 517 813 508 824 l 353 1100 b 374 1133 340 1122 354 1133 "},"é":{"ha":1096,"x_min":0,"x_max":0,"o":"m 794 763 b 1035 535 981 763 1035 707 l 1035 392 b 956 314 1035 335 1011 314 l 254 314 l 254 289 b 407 172 254 201 288 172 l 986 172 b 1011 147 1003 172 1011 164 l 1011 25 b 986 0 1011 8 1003 0 l 388 0 b 57 281 142 0 57 75 l 57 482 b 388 763 57 686 142 763 m 815 457 b 839 481 832 457 839 465 l 839 529 b 754 597 839 583 822 597 l 407 597 b 254 485 283 597 254 572 l 254 457 m 724 1133 b 743 1100 744 1133 753 1119 l 600 844 b 558 813 586 819 576 813 l 453 813 b 432 846 431 813 422 826 l 557 1101 b 600 1133 568 1124 581 1133 "},"ê":{"ha":1096,"x_min":0,"x_max":0,"o":"m 794 763 b 1035 535 981 763 1035 707 l 1035 392 b 956 314 1035 335 1011 314 l 254 314 l 254 289 b 407 172 254 201 288 172 l 986 172 b 1011 147 1003 172 1011 164 l 1011 25 b 986 0 1011 8 1003 0 l 388 0 b 57 281 142 0 57 75 l 57 482 b 388 763 57 686 142 763 m 610 1133 b 669 1099 640 1133 656 1122 l 817 847 b 799 813 828 828 818 813 l 692 813 b 649 843 669 813 660 822 l 568 997 b 551 1010 564 1006 560 1010 l 544 1010 b 528 997 536 1010 532 1006 l 447 843 b 404 813 436 822 426 813 l 297 813 b 279 847 278 813 267 828 l 426 1099 b 486 1133 440 1122 457 1133 m 815 457 b 839 481 832 457 839 465 l 839 529 b 754 597 839 583 822 597 l 407 597 b 254 485 283 597 254 572 l 254 457 "},"ë":{"ha":1096,"x_min":0,"x_max":0,"o":"m 794 763 b 1035 535 981 763 1035 707 l 1035 392 b 956 314 1035 335 1011 314 l 254 314 l 254 289 b 407 172 254 201 288 172 l 986 172 b 1011 147 1003 172 1011 164 l 1011 25 b 986 0 1011 8 1003 0 l 388 0 b 57 281 142 0 57 75 l 57 482 b 388 763 57 686 142 763 m 815 457 b 839 481 832 457 839 465 l 839 529 b 754 597 839 583 822 597 l 407 597 b 254 485 283 597 254 572 l 254 457 m 422 1044 b 453 1014 443 1044 453 1035 l 453 882 b 422 850 453 861 443 850 l 286 850 b 256 882 265 850 256 861 l 256 1014 b 286 1044 256 1035 265 1044 m 810 1044 b 840 1014 831 1044 840 1035 l 840 882 b 810 850 840 861 831 850 l 674 850 b 643 882 653 850 643 861 l 643 1014 b 674 1044 643 1035 653 1044 "},"ì":{"ha":389,"x_min":0,"x_max":0,"o":"m 269 763 b 300 732 289 763 300 751 l 300 31 b 269 0 300 10 289 0 l 133 0 b 103 31 113 0 103 10 l 103 732 b 133 763 103 751 113 763 m 147 1133 b 190 1101 169 1133 181 1121 l 317 846 b 296 813 326 825 317 813 l 189 813 b 147 844 168 813 160 824 l 4 1100 b 25 1133 -8 1122 6 1133 "},"í":{"ha":390,"x_min":0,"x_max":0,"o":"m 256 763 b 286 732 275 763 286 751 l 286 31 b 256 0 286 10 275 0 l 119 0 b 89 31 99 0 89 10 l 89 732 b 119 763 89 751 99 763 m 364 1133 b 383 1100 385 1133 393 1119 l 240 844 b 199 813 226 819 217 813 l 93 813 b 72 846 71 813 63 826 l 197 1101 b 240 1133 208 1124 221 1133 "},"î":{"ha":507,"x_min":0,"x_max":0,"o":"m 321 763 b 351 732 340 763 351 751 l 351 31 b 321 0 351 10 340 0 l 185 0 b 154 31 164 0 154 10 l 154 732 b 185 763 154 751 164 763 m 315 1133 b 375 1099 346 1133 361 1122 l 522 847 b 504 813 533 828 524 813 l 397 813 b 354 843 375 813 365 822 l 274 997 b 257 1010 269 1006 265 1010 l 250 1010 b 233 997 242 1010 238 1006 l 153 843 b 110 813 142 822 132 813 l 3 813 b -15 847 -17 813 -28 828 l 132 1099 b 192 1133 146 1122 163 1133 "},"ï":{"ha":533,"x_min":0,"x_max":0,"o":"m 335 763 b 365 732 354 763 365 751 l 365 31 b 335 0 365 10 354 0 l 199 0 b 168 31 178 0 168 10 l 168 732 b 199 763 168 751 178 763 m 172 1044 b 203 1014 193 1044 203 1035 l 203 882 b 172 850 203 861 193 850 l 36 850 b 6 882 15 850 6 861 l 6 1014 b 36 1044 6 1035 15 1044 m 496 1044 b 526 1014 517 1044 526 1035 l 526 882 b 496 850 526 861 517 850 l 360 850 b 329 882 339 850 329 861 l 329 1014 b 360 1044 329 1035 339 1044 "},"ð":{"ha":1210,"x_min":0,"x_max":0,"o":"m 664 1201 b 686 1175 681 1201 692 1189 l 642 1079 l 794 1079 b 1125 793 1040 1079 1125 1001 l 1125 285 b 794 0 1125 76 1040 0 l 406 0 b 76 285 161 0 76 78 l 76 390 b 406 674 76 597 161 674 l 928 674 l 928 774 b 776 907 928 878 899 907 l 561 907 l 500 774 b 464 750 493 758 482 750 l 372 750 b 356 775 357 750 349 761 l 417 907 l 297 907 b 272 932 281 907 272 915 l 272 1054 b 297 1079 272 1071 281 1079 l 496 1079 l 542 1178 b 569 1201 549 1193 551 1201 m 775 172 b 928 324 897 172 928 203 l 928 513 l 425 513 b 274 374 299 513 274 490 l 274 322 b 433 172 274 204 307 172 l 775 172 "},"ñ":{"ha":1228,"x_min":0,"x_max":0,"o":"m 813 763 b 1143 482 1058 763 1143 686 l 1143 31 b 1113 0 1143 10 1133 0 l 976 0 b 946 31 957 0 946 10 l 946 433 b 803 586 946 557 918 586 l 433 586 b 282 433 314 586 282 551 l 282 31 b 251 0 282 10 272 0 l 115 0 b 85 31 94 0 85 10 l 85 482 b 414 763 85 686 169 763 m 282 836 b 257 879 261 836 257 846 b 429 1090 257 1039 304 1090 b 660 1007 524 1090 592 1065 b 765 968 693 979 715 968 b 832 1061 822 968 832 986 b 871 1094 833 1085 846 1094 l 944 1094 b 969 1051 965 1094 969 1085 b 797 840 969 892 922 840 b 567 924 703 840 635 865 b 461 961 535 951 511 961 b 394 869 403 961 394 944 b 356 836 393 846 381 836 "},"ò":{"ha":1206,"x_min":0,"x_max":0,"o":"m 799 763 b 1129 482 1042 763 1129 689 l 1129 281 b 799 0 1129 74 1042 0 l 406 0 b 76 281 163 0 76 74 l 76 482 b 406 763 76 689 163 763 m 274 315 b 425 169 274 199 304 169 l 779 169 b 932 315 901 169 932 199 l 932 447 b 779 592 932 563 901 592 l 425 592 b 274 447 304 592 274 563 m 550 1133 b 593 1101 572 1133 583 1121 l 719 846 b 699 813 729 825 719 813 l 592 813 b 550 844 571 813 563 824 l 407 1100 b 428 1133 394 1122 408 1133 "},"ó":{"ha":1206,"x_min":0,"x_max":0,"o":"m 799 763 b 1129 482 1042 763 1129 689 l 1129 281 b 799 0 1129 74 1042 0 l 406 0 b 76 281 163 0 76 74 l 76 482 b 406 763 76 689 163 763 m 274 315 b 425 169 274 199 304 169 l 779 169 b 932 315 901 169 932 199 l 932 447 b 779 592 932 563 901 592 l 425 592 b 274 447 304 592 274 563 m 776 1133 b 796 1100 797 1133 806 1119 l 653 844 b 611 813 639 819 629 813 l 506 813 b 485 846 483 813 475 826 l 610 1101 b 653 1133 621 1124 633 1133 "},"ô":{"ha":1206,"x_min":0,"x_max":0,"o":"m 799 763 b 1129 482 1042 763 1129 689 l 1129 281 b 799 0 1129 74 1042 0 l 406 0 b 76 281 163 0 76 74 l 76 482 b 406 763 76 689 163 763 m 663 1133 b 722 1099 693 1133 708 1122 l 869 847 b 851 813 881 828 871 813 l 744 813 b 701 843 722 813 713 822 l 621 997 b 604 1010 617 1006 613 1010 l 597 1010 b 581 997 589 1010 585 1006 l 500 843 b 457 813 489 822 479 813 l 350 813 b 332 847 331 813 319 828 l 479 1099 b 539 1133 493 1122 510 1133 m 274 315 b 425 169 274 199 304 169 l 779 169 b 932 315 901 169 932 199 l 932 447 b 779 592 932 563 901 592 l 425 592 b 274 447 304 592 274 563 "},"õ":{"ha":1206,"x_min":0,"x_max":0,"o":"m 799 763 b 1129 482 1042 763 1129 689 l 1129 281 b 799 0 1129 74 1042 0 l 406 0 b 76 281 163 0 76 74 l 76 482 b 406 763 76 689 163 763 m 271 836 b 246 879 250 836 246 846 b 418 1090 246 1039 293 1090 b 649 1007 513 1090 581 1065 b 754 968 682 979 704 968 b 821 1061 811 968 821 986 b 860 1094 822 1085 835 1094 l 933 1094 b 958 1051 954 1094 958 1085 b 786 840 958 892 911 840 b 556 924 692 840 624 865 b 450 961 524 951 500 961 b 383 869 392 961 383 944 b 344 836 382 846 369 836 m 274 315 b 425 169 274 199 304 169 l 779 169 b 932 315 901 169 932 199 l 932 447 b 779 592 932 563 901 592 l 425 592 b 274 447 304 592 274 563 "},"ö":{"ha":1206,"x_min":0,"x_max":0,"o":"m 799 763 b 1129 482 1042 763 1129 689 l 1129 281 b 799 0 1129 74 1042 0 l 406 0 b 76 281 163 0 76 74 l 76 482 b 406 763 76 689 163 763 m 274 315 b 425 169 274 199 304 169 l 779 169 b 932 315 901 169 932 199 l 932 447 b 779 592 932 563 901 592 l 425 592 b 274 447 304 592 274 563 m 476 1044 b 507 1014 497 1044 507 1035 l 507 882 b 476 850 507 861 497 850 l 340 850 b 310 882 319 850 310 861 l 310 1014 b 340 1044 310 1035 319 1044 m 864 1044 b 894 1014 885 1044 894 1035 l 894 882 b 864 850 894 861 885 850 l 728 850 b 697 882 707 850 697 861 l 697 1014 b 728 1044 697 1035 707 1044 "},"÷":{"ha":853,"x_min":0,"x_max":0,"o":"m 494 268 b 525 238 515 268 525 258 l 525 104 b 494 74 525 83 515 74 l 358 74 b 328 104 338 74 328 83 l 328 238 b 358 268 328 258 338 268 m 768 553 b 793 528 785 553 793 544 l 793 444 b 768 419 793 428 785 419 l 83 419 b 58 444 67 419 58 428 l 58 528 b 83 553 58 544 67 553 m 494 899 b 525 868 515 899 525 889 l 525 735 b 494 704 525 714 515 704 l 358 704 b 328 735 338 704 328 714 l 328 868 b 358 899 328 889 338 899 "},"ø":{"ha":1206,"x_min":0,"x_max":0,"o":"m 1107 893 b 1119 865 1125 893 1131 878 l 997 733 b 1129 482 1092 696 1129 617 l 1129 281 b 799 0 1129 74 1042 0 l 406 0 b 329 3 379 0 353 1 l 228 -108 b 183 -131 214 -125 204 -131 l 100 -131 b 88 -104 83 -131 76 -115 l 208 28 b 76 281 114 65 76 144 l 76 482 b 406 763 76 689 163 763 l 799 763 b 878 758 828 763 854 761 l 979 869 b 1024 893 994 886 1003 893 m 274 315 b 346 178 274 231 290 192 l 725 592 l 425 592 b 274 447 304 592 274 563 m 932 447 b 861 585 932 531 915 569 l 482 169 l 779 169 b 932 315 901 169 932 199 l 932 447 "},"ù":{"ha":1217,"x_min":0,"x_max":0,"o":"m 251 763 b 282 732 272 763 282 751 l 282 328 b 425 176 282 206 310 176 l 782 176 b 935 328 901 176 935 210 l 935 732 b 965 763 935 751 946 763 l 1101 763 b 1132 732 1122 763 1132 751 l 1132 281 b 801 0 1132 75 1047 0 l 414 0 b 85 281 169 0 85 75 l 85 732 b 115 763 85 751 94 763 m 556 1133 b 599 1101 578 1133 589 1121 l 725 846 b 704 813 735 825 725 813 l 597 813 b 556 844 576 813 568 824 l 413 1100 b 433 1133 400 1122 414 1133 "},"ú":{"ha":1217,"x_min":0,"x_max":0,"o":"m 251 763 b 282 732 272 763 282 751 l 282 328 b 425 176 282 206 310 176 l 782 176 b 935 328 901 176 935 210 l 935 732 b 965 763 935 751 946 763 l 1101 763 b 1132 732 1122 763 1132 751 l 1132 281 b 801 0 1132 75 1047 0 l 414 0 b 85 281 169 0 85 75 l 85 732 b 115 763 85 751 94 763 m 785 1133 b 804 1100 806 1133 814 1119 l 661 844 b 619 813 647 819 638 813 l 514 813 b 493 846 492 813 483 826 l 618 1101 b 661 1133 629 1124 642 1133 "},"û":{"ha":1217,"x_min":0,"x_max":0,"o":"m 251 763 b 282 732 272 763 282 751 l 282 328 b 425 176 282 206 310 176 l 782 176 b 935 328 901 176 935 210 l 935 732 b 965 763 935 751 946 763 l 1101 763 b 1132 732 1122 763 1132 751 l 1132 281 b 801 0 1132 75 1047 0 l 414 0 b 85 281 169 0 85 75 l 85 732 b 115 763 85 751 94 763 m 668 1133 b 728 1099 699 1133 714 1122 l 875 847 b 857 813 886 828 876 813 l 750 813 b 707 843 728 813 718 822 l 626 997 b 610 1010 622 1006 618 1010 l 603 1010 b 586 997 594 1010 590 1006 l 506 843 b 463 813 494 822 485 813 l 356 813 b 338 847 336 813 325 828 l 485 1099 b 544 1133 499 1122 515 1133 "},"ü":{"ha":1217,"x_min":0,"x_max":0,"o":"m 251 763 b 282 732 272 763 282 751 l 282 328 b 425 176 282 206 310 176 l 782 176 b 935 328 901 176 935 210 l 935 732 b 965 763 935 751 946 763 l 1101 763 b 1132 732 1122 763 1132 751 l 1132 281 b 801 0 1132 75 1047 0 l 414 0 b 85 281 169 0 85 75 l 85 732 b 115 763 85 751 94 763 m 483 1044 b 514 1014 504 1044 514 1035 l 514 882 b 483 850 514 861 504 850 l 347 850 b 317 882 326 850 317 861 l 317 1014 b 347 1044 317 1035 326 1044 m 871 1044 b 901 1014 892 1044 901 1035 l 901 882 b 871 850 901 861 892 850 l 735 850 b 704 882 714 850 704 861 l 704 1014 b 735 1044 704 1035 714 1044 "},"ý":{"ha":1153,"x_min":0,"x_max":0,"o":"m 1092 763 b 1110 728 1111 763 1119 744 l 576 -212 b 357 -307 540 -278 474 -307 l 260 -307 b 235 -282 243 -307 235 -299 l 235 -150 b 260 -125 235 -133 243 -125 l 360 -125 b 431 -93 397 -125 418 -117 l 496 21 b 399 81 447 24 421 39 l 24 728 b 42 763 14 744 22 763 l 203 763 b 236 743 219 763 229 757 l 544 207 b 583 175 557 186 563 178 l 906 743 b 939 763 914 757 922 763 m 756 1133 b 775 1100 776 1133 785 1119 l 632 844 b 590 813 618 819 608 813 l 485 813 b 464 846 463 813 454 826 l 589 1101 b 632 1133 600 1124 613 1133 "},"þ":{"ha":1210,"x_min":0,"x_max":0,"o":"m 251 1042 b 282 1011 272 1042 282 1032 l 282 763 l 803 763 b 1133 482 1049 763 1133 686 l 1133 281 b 803 0 1133 75 1049 0 l 282 0 l 282 -276 b 251 -307 282 -297 272 -307 l 115 -307 b 85 -276 94 -307 85 -297 l 85 1011 b 115 1042 85 1032 94 1042 m 282 172 l 783 172 b 936 319 904 172 936 203 l 936 443 b 783 590 936 560 904 590 l 282 590 "},"ÿ":{"ha":1153,"x_min":0,"x_max":0,"o":"m 1092 763 b 1110 728 1111 763 1119 744 l 576 -212 b 357 -307 540 -278 474 -307 l 260 -307 b 235 -282 243 -307 235 -299 l 235 -150 b 260 -125 235 -133 243 -125 l 360 -125 b 431 -93 397 -125 418 -117 l 496 21 b 399 81 447 24 421 39 l 24 728 b 42 763 14 744 22 763 l 203 763 b 236 743 219 763 229 757 l 544 207 b 583 175 557 186 563 178 l 906 743 b 939 763 914 757 922 763 m 451 1044 b 482 1014 472 1044 482 1035 l 482 882 b 451 850 482 861 472 850 l 315 850 b 285 882 294 850 285 861 l 285 1014 b 315 1044 285 1035 294 1044 m 839 1044 b 869 1014 860 1044 869 1035 l 869 882 b 839 850 869 861 860 850 l 703 850 b 672 882 682 850 672 861 l 672 1014 b 703 1044 672 1035 682 1044 "},"Ā":{"ha":1354,"x_min":0,"x_max":0,"o":"m 708 972 b 868 867 781 972 822 951 l 1328 32 b 1311 0 1338 13 1333 0 l 1135 0 b 1103 17 1117 0 1108 4 l 1011 186 l 346 186 l 256 17 b 224 0 249 4 242 0 l 42 0 b 25 32 19 0 15 13 l 481 867 b 626 972 525 951 568 972 m 1004 1208 b 1035 1183 1024 1208 1035 1200 l 1035 1097 b 1004 1074 1035 1081 1024 1074 l 353 1074 b 321 1097 332 1074 321 1081 l 321 1183 b 353 1208 321 1200 332 1208 m 913 367 l 697 765 b 681 775 693 772 688 775 l 672 775 b 657 765 665 775 661 772 l 443 367 "},"ā":{"ha":1096,"x_min":0,"x_max":0,"o":"m 704 763 b 1035 482 950 763 1035 686 l 1035 111 b 932 0 1035 22 1014 0 l 271 0 b 57 197 111 0 57 54 l 57 264 b 271 456 57 393 121 456 l 838 456 l 838 469 b 685 590 838 558 804 590 l 106 590 b 81 615 89 590 81 599 l 81 738 b 106 763 81 754 89 763 m 794 165 b 838 211 825 165 838 178 l 838 313 l 329 313 b 253 254 269 313 253 296 l 253 225 b 329 165 253 178 269 165 l 794 165 m 874 1019 b 904 989 894 1019 904 1010 l 904 908 b 874 878 904 888 894 878 l 222 878 b 192 908 201 878 192 888 l 192 989 b 222 1019 192 1010 201 1019 "},"Ă":{"ha":1354,"x_min":0,"x_max":0,"o":"m 708 972 b 868 867 781 972 822 951 l 1328 32 b 1311 0 1338 13 1333 0 l 1135 0 b 1103 17 1117 0 1108 4 l 1011 186 l 346 186 l 256 17 b 224 0 249 4 242 0 l 42 0 b 25 32 19 0 15 13 l 481 867 b 626 972 525 951 568 972 m 343 1236 b 369 1263 343 1253 354 1263 b 404 1250 379 1263 392 1258 b 678 1156 481 1194 569 1156 b 950 1250 785 1156 871 1193 b 983 1263 963 1258 975 1263 b 1010 1236 1000 1263 1010 1253 l 1010 1179 b 982 1132 1010 1160 1006 1147 b 678 1047 917 1085 790 1047 b 372 1132 565 1047 436 1086 b 343 1179 349 1147 343 1160 m 913 367 l 697 765 b 681 775 693 772 688 775 l 672 775 b 657 765 665 775 661 772 l 443 367 "},"ă":{"ha":1096,"x_min":0,"x_max":0,"o":"m 704 763 b 1035 482 950 763 1035 686 l 1035 111 b 932 0 1035 22 1014 0 l 271 0 b 57 197 111 0 57 54 l 57 264 b 271 456 57 393 121 456 l 838 456 l 838 469 b 685 590 838 558 804 590 l 106 590 b 81 615 89 590 81 599 l 81 738 b 106 763 81 754 89 763 m 217 1076 b 242 1108 217 1094 225 1108 b 276 1092 251 1108 263 1103 b 549 985 307 1067 407 985 b 822 1092 692 985 792 1067 b 857 1108 836 1103 847 1108 b 882 1076 874 1108 882 1094 l 882 1004 b 856 947 882 985 879 968 b 549 850 804 906 683 850 b 243 947 415 850 294 906 b 217 1004 219 968 217 985 m 794 165 b 838 211 825 165 838 178 l 838 313 l 329 313 b 253 254 269 313 253 296 l 253 225 b 329 165 253 178 269 165 l 794 165 "},"Ą":{"ha":1354,"x_min":0,"x_max":0,"o":"m 1133 0 b 1103 17 1117 0 1108 4 l 1011 186 l 346 186 l 256 17 b 224 0 249 4 242 0 l 42 0 b 25 32 19 0 15 13 l 481 867 b 626 972 525 951 568 972 l 708 972 b 868 867 781 972 822 951 l 1328 32 b 1322 1 1336 17 1335 6 l 1149 -82 b 1079 -165 1088 -110 1079 -126 b 1154 -231 1079 -215 1096 -231 l 1271 -231 b 1296 -256 1288 -231 1296 -239 l 1296 -353 b 1271 -378 1296 -369 1288 -378 l 1093 -378 b 915 -208 954 -378 915 -337 b 1014 -44 915 -118 935 -75 m 913 367 l 697 765 b 681 775 693 772 688 775 l 672 775 b 657 765 665 775 661 772 l 443 367 "},"ą":{"ha":1096,"x_min":0,"x_max":0,"o":"m 794 0 l 271 0 b 57 197 111 0 57 54 l 57 264 b 271 456 57 393 121 456 l 838 456 l 838 469 b 685 590 838 558 804 590 l 106 590 b 81 615 89 590 81 599 l 81 738 b 106 763 81 754 89 763 l 704 763 b 1035 482 950 763 1035 686 l 1035 111 b 989 7 1035 47 1024 18 l 810 -82 b 740 -165 749 -111 740 -126 b 814 -229 740 -215 756 -229 l 932 -229 b 957 -254 949 -229 957 -237 l 957 -353 b 932 -378 957 -369 949 -378 l 754 -378 b 576 -208 615 -378 576 -337 b 675 -44 576 -118 596 -74 m 794 165 b 838 211 825 165 838 178 l 838 313 l 329 313 b 253 254 269 313 253 296 l 253 225 b 329 165 253 178 269 165 l 794 165 "},"Ć":{"ha":1183,"x_min":0,"x_max":0,"o":"m 1096 972 b 1126 942 1117 972 1126 963 l 1126 806 b 1096 775 1126 785 1117 775 l 478 775 b 293 585 335 775 293 732 l 293 388 b 478 197 293 240 335 197 l 1096 197 b 1126 167 1117 197 1126 188 l 1126 31 b 1096 0 1126 10 1117 0 l 471 0 b 82 367 189 0 82 100 l 82 606 b 471 972 82 872 189 972 m 824 1272 b 843 1246 843 1272 854 1264 l 703 1040 b 660 1015 690 1024 681 1015 l 554 1015 b 533 1042 532 1015 524 1025 l 657 1247 b 700 1272 667 1263 679 1272 "},"ć":{"ha":1013,"x_min":0,"x_max":0,"o":"m 943 763 b 968 738 960 763 968 754 l 968 615 b 943 590 968 599 960 590 l 404 590 b 253 443 283 590 253 560 l 253 319 b 404 172 253 203 283 172 l 943 172 b 968 147 960 172 968 164 l 968 25 b 943 0 968 8 960 0 l 385 0 b 54 281 139 0 54 75 l 54 482 b 385 763 54 686 139 763 m 729 1133 b 749 1100 750 1133 758 1119 l 606 844 b 564 813 592 819 582 813 l 458 813 b 438 846 436 813 428 826 l 563 1101 b 606 1133 574 1124 586 1133 "},"Ċ":{"ha":1183,"x_min":0,"x_max":0,"o":"m 1096 972 b 1126 942 1117 972 1126 963 l 1126 806 b 1096 775 1126 785 1117 775 l 478 775 b 293 585 335 775 293 732 l 293 388 b 478 197 293 240 335 197 l 1096 197 b 1126 167 1117 197 1126 188 l 1126 31 b 1096 0 1126 10 1117 0 l 471 0 b 82 367 189 0 82 100 l 82 606 b 471 972 82 872 189 972 m 715 1229 b 747 1204 736 1229 747 1221 l 747 1072 b 715 1047 747 1056 736 1047 l 579 1047 b 549 1072 560 1047 549 1056 l 549 1204 b 579 1229 549 1221 560 1229 "},"ċ":{"ha":1013,"x_min":0,"x_max":0,"o":"m 943 763 b 968 738 960 763 968 754 l 968 615 b 943 590 968 599 960 590 l 404 590 b 253 443 283 590 253 560 l 253 319 b 404 172 253 203 283 172 l 943 172 b 968 147 960 172 968 164 l 968 25 b 943 0 968 8 960 0 l 385 0 b 54 281 139 0 54 75 l 54 482 b 385 763 54 686 139 763 m 615 1044 b 646 1014 636 1044 646 1035 l 646 882 b 615 850 646 861 636 850 l 479 850 b 449 882 458 850 449 861 l 449 1014 b 479 1044 449 1035 458 1044 "},"Č":{"ha":1183,"x_min":0,"x_max":0,"o":"m 1096 972 b 1126 942 1117 972 1126 963 l 1126 806 b 1096 775 1126 785 1117 775 l 478 775 b 293 585 335 775 293 732 l 293 388 b 478 197 293 240 335 197 l 1096 197 b 1126 167 1117 197 1126 188 l 1126 31 b 1096 0 1126 10 1117 0 l 471 0 b 82 367 189 0 82 100 l 82 606 b 471 972 82 872 189 972 m 503 1272 b 546 1247 525 1272 535 1264 l 626 1126 b 644 1117 631 1121 635 1117 l 650 1117 b 668 1126 657 1117 664 1121 l 747 1247 b 792 1272 758 1264 769 1272 l 899 1272 b 917 1244 918 1272 928 1260 l 769 1044 b 708 1015 754 1025 739 1015 l 585 1015 b 525 1044 554 1015 540 1025 l 378 1244 b 396 1272 367 1260 376 1272 "},"č":{"ha":1013,"x_min":0,"x_max":0,"o":"m 943 763 b 968 738 960 763 968 754 l 968 615 b 943 590 968 599 960 590 l 404 590 b 253 443 283 590 253 560 l 253 319 b 404 172 253 203 283 172 l 943 172 b 968 147 960 172 968 164 l 968 25 b 943 0 968 8 960 0 l 385 0 b 54 281 139 0 54 75 l 54 482 b 385 763 54 686 139 763 m 403 1133 b 446 1103 425 1133 435 1124 l 526 949 b 542 936 531 940 535 936 l 550 936 b 567 949 558 936 563 940 l 647 1103 b 690 1133 658 1124 668 1133 l 797 1133 b 815 1099 817 1133 826 1118 l 668 847 b 608 813 654 824 639 813 l 485 813 b 425 847 456 813 439 824 l 278 1099 b 296 1133 265 1118 276 1133 "},"Ď":{"ha":1289,"x_min":0,"x_max":0,"o":"m 783 972 b 1208 581 1085 972 1208 851 l 1208 392 b 783 0 1208 121 1085 0 l 135 0 b 93 42 107 0 93 14 l 93 931 b 135 972 93 958 107 972 m 458 1272 b 501 1247 481 1272 490 1264 l 582 1126 b 600 1117 586 1121 590 1117 l 606 1117 b 624 1126 613 1117 619 1121 l 703 1247 b 747 1272 714 1264 725 1272 l 854 1272 b 872 1244 874 1272 883 1260 l 725 1044 b 664 1015 710 1025 694 1015 l 540 1015 b 481 1044 510 1015 496 1025 l 333 1244 b 351 1272 322 1260 332 1272 m 304 214 b 322 196 304 201 310 196 l 778 196 b 997 410 942 196 997 246 l 997 563 b 778 776 997 726 942 776 l 322 776 b 304 758 310 776 304 771 "},"ď":{"ha":1364,"x_min":0,"x_max":0,"o":"m 928 763 l 928 1011 b 958 1042 928 1032 939 1042 l 1094 1042 b 1125 1011 1115 1042 1125 1032 l 1125 281 b 794 0 1125 75 1040 0 l 406 0 b 76 281 161 0 76 75 l 76 482 b 406 763 76 686 161 763 m 775 172 b 928 319 894 172 928 201 l 928 590 l 425 590 b 274 443 306 590 274 561 l 274 319 b 425 172 274 201 306 172 l 775 172 m 1369 1036 b 1394 1000 1390 1036 1400 1024 l 1335 747 b 1300 715 1329 725 1319 715 l 1221 715 b 1189 747 1199 715 1188 726 l 1211 1004 b 1244 1036 1213 1025 1225 1036 "},"Đ":{"ha":1367,"x_min":0,"x_max":0,"o":"m 169 576 l 169 931 b 211 972 169 958 183 972 l 860 972 b 1285 581 1161 972 1285 851 l 1285 392 b 860 0 1285 121 1161 0 l 211 0 b 169 42 183 0 169 14 l 169 406 l 49 406 b 18 436 28 406 18 417 l 18 546 b 49 576 18 565 28 576 m 381 576 l 853 576 b 883 546 874 576 883 565 l 883 436 b 853 406 883 417 874 406 l 381 406 l 381 214 b 399 196 381 201 386 196 l 854 196 b 1074 410 1018 196 1074 246 l 1074 563 b 854 776 1074 726 1018 776 l 399 776 b 381 758 386 776 381 771 "},"đ":{"ha":1210,"x_min":0,"x_max":0,"o":"m 928 1019 b 958 1042 931 1035 942 1042 l 1094 1042 b 1125 1019 1113 1042 1122 1035 l 1171 1019 b 1201 989 1192 1019 1201 1010 l 1201 908 b 1171 878 1201 888 1192 878 l 1125 878 l 1125 281 b 794 0 1125 75 1040 0 l 406 0 b 76 281 161 0 76 75 l 76 482 b 406 763 76 686 161 763 l 928 763 l 928 878 l 519 878 b 489 908 499 878 489 888 l 489 989 b 519 1019 489 1010 499 1019 m 775 172 b 928 319 894 172 928 201 l 928 590 l 425 590 b 274 443 306 590 274 561 l 274 319 b 425 172 274 201 306 172 l 775 172 "},"Ē":{"ha":1181,"x_min":0,"x_max":0,"o":"m 1082 972 b 1113 942 1101 972 1113 963 l 1113 807 b 1082 776 1113 788 1101 776 l 472 776 b 292 590 329 776 292 736 l 292 583 l 1074 583 b 1104 553 1093 583 1104 574 l 1104 429 b 1074 399 1104 408 1093 399 l 292 399 l 292 382 b 472 196 292 236 329 196 l 1082 196 b 1113 165 1101 196 1113 185 l 1113 31 b 1082 0 1113 10 1101 0 l 471 0 b 82 367 189 0 82 101 l 82 606 b 471 972 82 871 189 972 m 974 1208 b 1004 1183 993 1208 1004 1200 l 1004 1097 b 974 1074 1004 1081 993 1074 l 322 1074 b 290 1097 301 1074 290 1081 l 290 1183 b 322 1208 290 1200 301 1208 "},"ē":{"ha":1096,"x_min":0,"x_max":0,"o":"m 794 763 b 1035 535 981 763 1035 707 l 1035 392 b 956 314 1035 335 1011 314 l 254 314 l 254 289 b 407 172 254 201 288 172 l 986 172 b 1011 147 1003 172 1011 164 l 1011 25 b 986 0 1011 8 1003 0 l 388 0 b 57 281 142 0 57 75 l 57 482 b 388 763 57 686 142 763 m 815 457 b 839 481 832 457 839 465 l 839 529 b 754 597 839 583 822 597 l 407 597 b 254 485 283 597 254 572 l 254 457 m 874 1019 b 904 989 894 1019 904 1010 l 904 908 b 874 878 904 888 894 878 l 222 878 b 192 908 201 878 192 888 l 192 989 b 222 1019 192 1010 201 1019 "},"Ĕ":{"ha":1181,"x_min":0,"x_max":0,"o":"m 1082 972 b 1113 942 1101 972 1113 963 l 1113 807 b 1082 776 1113 788 1101 776 l 472 776 b 292 590 329 776 292 736 l 292 583 l 1074 583 b 1104 553 1093 583 1104 574 l 1104 429 b 1074 399 1104 408 1093 399 l 292 399 l 292 382 b 472 196 292 236 329 196 l 1082 196 b 1113 165 1101 196 1113 185 l 1113 31 b 1082 0 1113 10 1101 0 l 471 0 b 82 367 189 0 82 101 l 82 606 b 471 972 82 871 189 972 m 313 1236 b 339 1263 313 1253 324 1263 b 374 1250 349 1263 361 1258 b 647 1156 450 1194 539 1156 b 919 1250 754 1156 840 1193 b 953 1263 932 1258 944 1263 b 979 1236 969 1263 979 1253 l 979 1179 b 951 1132 979 1160 975 1147 b 647 1047 886 1085 760 1047 b 342 1132 535 1047 406 1086 b 313 1179 318 1147 313 1160 "},"ĕ":{"ha":1096,"x_min":0,"x_max":0,"o":"m 794 763 b 1035 535 981 763 1035 707 l 1035 392 b 956 314 1035 335 1011 314 l 254 314 l 254 289 b 407 172 254 201 288 172 l 986 172 b 1011 147 1003 172 1011 164 l 1011 25 b 986 0 1011 8 1003 0 l 388 0 b 57 281 142 0 57 75 l 57 482 b 388 763 57 686 142 763 m 215 1076 b 240 1108 215 1094 224 1108 b 275 1092 250 1108 261 1103 b 547 985 306 1067 406 985 b 821 1092 690 985 790 1067 b 856 1108 835 1103 846 1108 b 881 1076 872 1108 881 1094 l 881 1004 b 854 947 881 985 878 968 b 547 850 803 906 682 850 b 242 947 414 850 293 906 b 215 1004 218 968 215 985 m 815 457 b 839 481 832 457 839 465 l 839 529 b 754 597 839 583 822 597 l 407 597 b 254 485 283 597 254 572 l 254 457 "},"Ė":{"ha":1181,"x_min":0,"x_max":0,"o":"m 1082 972 b 1113 942 1101 972 1113 963 l 1113 807 b 1082 776 1113 788 1101 776 l 472 776 b 292 590 329 776 292 736 l 292 583 l 1074 583 b 1104 553 1093 583 1104 574 l 1104 429 b 1074 399 1104 408 1093 399 l 292 399 l 292 382 b 472 196 292 236 329 196 l 1082 196 b 1113 165 1101 196 1113 185 l 1113 31 b 1082 0 1113 10 1101 0 l 471 0 b 82 367 189 0 82 101 l 82 606 b 471 972 82 871 189 972 m 715 1229 b 747 1204 736 1229 747 1221 l 747 1072 b 715 1047 747 1056 736 1047 l 579 1047 b 549 1072 560 1047 549 1056 l 549 1204 b 579 1229 549 1221 560 1229 "},"ė":{"ha":1096,"x_min":0,"x_max":0,"o":"m 794 763 b 1035 535 981 763 1035 707 l 1035 392 b 956 314 1035 335 1011 314 l 254 314 l 254 289 b 407 172 254 201 288 172 l 986 172 b 1011 147 1003 172 1011 164 l 1011 25 b 986 0 1011 8 1003 0 l 388 0 b 57 281 142 0 57 75 l 57 482 b 388 763 57 686 142 763 m 615 1044 b 646 1014 636 1044 646 1035 l 646 882 b 615 850 646 861 636 850 l 479 850 b 449 882 458 850 449 861 l 449 1014 b 479 1044 449 1035 458 1044 m 815 457 b 839 481 832 457 839 465 l 839 529 b 754 597 839 583 822 597 l 407 597 b 254 485 283 597 254 572 l 254 457 "},"Ę":{"ha":1181,"x_min":0,"x_max":0,"o":"m 906 0 l 471 0 b 82 367 189 0 82 101 l 82 606 b 471 972 82 871 189 972 l 1082 972 b 1113 942 1101 972 1113 963 l 1113 807 b 1082 776 1113 788 1101 776 l 472 776 b 292 590 329 776 292 736 l 292 583 l 1074 583 b 1104 553 1093 583 1104 574 l 1104 429 b 1074 399 1104 408 1093 399 l 292 399 l 292 382 b 472 196 292 236 329 196 l 1082 196 b 1113 165 1101 196 1113 185 l 1113 31 b 1094 1 1113 15 1106 6 l 921 -82 b 850 -165 860 -110 850 -126 b 926 -229 850 -215 867 -229 l 1043 -229 b 1068 -254 1060 -229 1068 -237 l 1068 -353 b 1043 -378 1068 -369 1060 -378 l 865 -378 b 688 -207 726 -378 688 -337 b 786 -44 688 -118 707 -74 "},"ę":{"ha":1096,"x_min":0,"x_max":0,"o":"m 807 0 l 388 0 b 57 281 142 0 57 75 l 57 482 b 388 763 57 686 142 763 l 794 763 b 1035 535 981 763 1035 707 l 1035 392 b 956 314 1035 335 1011 314 l 254 314 l 254 289 b 407 172 254 201 288 172 l 986 172 b 1011 147 1003 172 1011 164 l 1011 25 b 996 1 1011 13 1006 4 l 824 -82 b 753 -165 763 -110 753 -126 b 829 -229 753 -215 769 -229 l 946 -229 b 971 -254 963 -229 971 -237 l 971 -353 b 946 -378 971 -369 963 -378 l 768 -378 b 590 -207 629 -378 590 -337 b 689 -44 590 -118 610 -74 m 815 457 b 839 481 832 457 839 465 l 839 529 b 754 597 839 583 822 597 l 407 597 b 254 485 283 597 254 572 l 254 457 "},"Ě":{"ha":1181,"x_min":0,"x_max":0,"o":"m 1082 972 b 1113 942 1101 972 1113 963 l 1113 807 b 1082 776 1113 788 1101 776 l 472 776 b 292 590 329 776 292 736 l 292 583 l 1074 583 b 1104 553 1093 583 1104 574 l 1104 429 b 1074 399 1104 408 1093 399 l 292 399 l 292 382 b 472 196 292 236 329 196 l 1082 196 b 1113 165 1101 196 1113 185 l 1113 31 b 1082 0 1113 10 1101 0 l 471 0 b 82 367 189 0 82 101 l 82 606 b 471 972 82 871 189 972 m 503 1272 b 546 1247 525 1272 535 1264 l 626 1126 b 644 1117 631 1121 635 1117 l 650 1117 b 668 1126 657 1117 664 1121 l 747 1247 b 792 1272 758 1264 769 1272 l 899 1272 b 917 1244 918 1272 928 1260 l 769 1044 b 708 1015 754 1025 739 1015 l 585 1015 b 525 1044 554 1015 540 1025 l 378 1244 b 396 1272 367 1260 376 1272 "},"ě":{"ha":1096,"x_min":0,"x_max":0,"o":"m 794 763 b 1035 535 981 763 1035 707 l 1035 392 b 956 314 1035 335 1011 314 l 254 314 l 254 289 b 407 172 254 201 288 172 l 986 172 b 1011 147 1003 172 1011 164 l 1011 25 b 986 0 1011 8 1003 0 l 388 0 b 57 281 142 0 57 75 l 57 482 b 388 763 57 686 142 763 m 404 1133 b 447 1103 426 1133 436 1124 l 528 949 b 543 936 532 940 536 936 l 551 936 b 568 949 560 936 564 940 l 649 1103 b 692 1133 660 1124 669 1133 l 799 1133 b 817 1099 818 1133 828 1118 l 669 847 b 610 813 656 824 640 813 l 486 813 b 426 847 457 813 440 824 l 279 1099 b 297 1133 267 1118 278 1133 m 815 457 b 839 481 832 457 839 465 l 839 529 b 754 597 839 583 822 597 l 407 597 b 254 485 283 597 254 572 l 254 457 "},"Ğ":{"ha":1286,"x_min":0,"x_max":0,"o":"m 1174 972 b 1204 942 1193 972 1204 963 l 1204 806 b 1174 775 1204 785 1193 775 l 478 775 b 293 585 335 775 293 732 l 293 385 b 478 196 293 238 335 196 l 936 196 b 1006 279 985 196 1006 217 l 1006 382 b 989 401 1006 396 1000 401 l 582 401 b 551 432 563 401 551 411 l 551 554 b 582 585 551 574 563 585 l 1161 585 b 1203 543 1189 585 1203 571 l 1203 213 b 1031 0 1203 57 1143 0 l 471 0 b 82 367 189 0 82 100 l 82 606 b 471 972 82 872 189 972 m 335 1236 b 361 1263 335 1253 346 1263 b 396 1250 371 1263 383 1258 b 669 1156 472 1194 561 1156 b 942 1250 776 1156 863 1193 b 975 1263 954 1258 967 1263 b 1001 1236 992 1263 1001 1253 l 1001 1179 b 974 1132 1001 1160 997 1147 b 669 1047 908 1085 782 1047 b 364 1132 557 1047 428 1086 b 335 1179 340 1147 335 1160 "},"ğ":{"ha":1210,"x_min":0,"x_max":0,"o":"m 794 763 b 1125 482 1038 763 1125 688 l 1125 -24 b 794 -307 1125 -232 1039 -307 l 140 -307 b 115 -282 124 -307 115 -299 l 115 -160 b 140 -135 115 -143 124 -135 l 775 -135 b 928 15 896 -135 928 -106 l 928 36 l 406 36 b 76 333 168 36 76 121 l 76 479 b 406 763 76 688 163 763 m 272 1076 b 297 1108 272 1094 281 1108 b 332 1092 307 1108 318 1103 b 604 985 363 1067 463 985 b 878 1092 747 985 847 1067 b 913 1108 892 1103 903 1108 b 938 1076 929 1108 938 1094 l 938 1004 b 911 947 938 985 935 968 b 604 850 860 906 739 850 b 299 947 471 850 350 906 b 272 1004 275 968 272 985 m 274 336 b 425 203 274 235 311 203 l 928 203 l 928 464 b 775 592 928 565 894 592 l 425 592 b 274 468 307 592 274 565 l 274 336 "},"Ġ":{"ha":1286,"x_min":0,"x_max":0,"o":"m 1174 972 b 1204 942 1193 972 1204 963 l 1204 806 b 1174 775 1204 785 1193 775 l 478 775 b 293 585 335 775 293 732 l 293 385 b 478 196 293 238 335 196 l 936 196 b 1006 279 985 196 1006 217 l 1006 382 b 989 401 1006 396 1000 401 l 582 401 b 551 432 563 401 551 411 l 551 554 b 582 585 551 574 563 585 l 1161 585 b 1203 543 1189 585 1203 571 l 1203 213 b 1031 0 1203 57 1143 0 l 471 0 b 82 367 189 0 82 100 l 82 606 b 471 972 82 872 189 972 m 749 1229 b 781 1204 769 1229 781 1221 l 781 1072 b 749 1047 781 1056 769 1047 l 613 1047 b 582 1072 593 1047 582 1056 l 582 1204 b 613 1229 582 1221 593 1229 "},"ġ":{"ha":1210,"x_min":0,"x_max":0,"o":"m 794 763 b 1125 482 1038 763 1125 688 l 1125 -24 b 794 -307 1125 -232 1039 -307 l 140 -307 b 115 -282 124 -307 115 -299 l 115 -160 b 140 -135 115 -143 124 -135 l 775 -135 b 928 15 896 -135 928 -106 l 928 36 l 406 36 b 76 333 168 36 76 121 l 76 479 b 406 763 76 688 163 763 m 668 1044 b 699 1014 689 1044 699 1035 l 699 882 b 668 850 699 861 689 850 l 532 850 b 501 882 511 850 501 861 l 501 1014 b 532 1044 501 1035 511 1044 m 274 336 b 425 203 274 235 311 203 l 928 203 l 928 464 b 775 592 928 565 894 592 l 425 592 b 274 468 307 592 274 565 l 274 336 "},"Ģ":{"ha":1286,"x_min":0,"x_max":0,"o":"m 1174 972 b 1204 942 1193 972 1204 963 l 1204 806 b 1174 775 1204 785 1193 775 l 478 775 b 293 585 335 775 293 732 l 293 385 b 478 196 293 238 335 196 l 936 196 b 1006 279 985 196 1006 217 l 1006 382 b 989 401 1006 396 1000 401 l 582 401 b 551 432 563 401 551 411 l 551 554 b 582 585 551 574 563 585 l 1161 585 b 1203 543 1189 585 1203 571 l 1203 213 b 1031 0 1203 57 1143 0 l 471 0 b 82 367 189 0 82 100 l 82 606 b 471 972 82 872 189 972 m 714 -57 b 739 -93 735 -57 744 -69 l 679 -346 b 644 -378 674 -368 664 -378 l 565 -378 b 533 -346 543 -378 532 -367 l 556 -89 b 589 -57 557 -68 569 -57 "},"ģ":{"ha":1210,"x_min":0,"x_max":0,"o":"m 794 763 b 1125 482 1038 763 1125 688 l 1125 -24 b 794 -307 1125 -232 1039 -307 l 140 -307 b 115 -282 124 -307 115 -299 l 115 -160 b 140 -135 115 -143 124 -135 l 775 -135 b 928 15 896 -135 928 -106 l 928 36 l 406 36 b 76 333 168 36 76 121 l 76 479 b 406 763 76 688 163 763 m 657 1133 b 689 1100 679 1133 690 1121 l 668 844 b 633 813 667 825 653 813 l 508 813 b 483 847 488 813 478 825 l 543 1101 b 578 1133 549 1122 558 1133 m 274 336 b 425 203 274 235 311 203 l 928 203 l 928 464 b 775 592 928 565 894 592 l 425 592 b 274 468 307 592 274 565 l 274 336 "},"Ħ":{"ha":1258,"x_min":0,"x_max":0,"o":"m 93 854 l 93 942 b 124 972 93 963 103 972 l 274 972 b 304 942 294 972 304 963 l 304 854 l 954 854 l 954 942 b 985 972 954 963 965 972 l 1135 972 b 1167 942 1156 972 1167 963 l 1167 854 l 1219 854 b 1250 824 1240 854 1250 844 l 1250 743 b 1219 713 1250 722 1240 713 l 1167 713 l 1167 31 b 1135 0 1167 10 1156 0 l 985 0 b 954 31 965 0 954 10 l 954 396 l 304 396 l 304 31 b 274 0 304 10 294 0 l 124 0 b 93 31 103 0 93 10 l 93 713 l 39 713 b 8 743 18 713 8 722 l 8 824 b 39 854 8 844 18 854 m 954 713 l 304 713 l 304 585 l 954 585 "},"ħ":{"ha":1221,"x_min":0,"x_max":0,"o":"m 89 1019 b 119 1042 92 1035 101 1042 l 256 1042 b 286 1019 272 1042 283 1035 l 690 1019 b 721 989 711 1019 721 1010 l 721 908 b 690 878 721 888 711 878 l 286 878 l 286 763 l 806 763 b 1136 482 1051 763 1136 686 l 1136 31 b 1106 0 1136 10 1126 0 l 969 0 b 939 31 950 0 939 10 l 939 433 b 796 586 939 557 911 586 l 286 586 l 286 31 b 256 0 286 10 275 0 l 119 0 b 89 31 99 0 89 10 l 89 878 l 39 878 b 8 908 18 878 8 888 l 8 989 b 39 1019 8 1010 18 1019 "},"Ĩ":{"ha":674,"x_min":0,"x_max":0,"o":"m 413 972 b 443 942 433 972 443 963 l 443 31 b 413 0 443 10 433 0 l 263 0 b 232 31 242 0 232 10 l 232 942 b 263 972 232 963 242 972 m 6 1032 b -19 1072 -15 1032 -19 1042 b 156 1267 -19 1221 29 1267 b 383 1189 247 1267 317 1243 b 489 1151 418 1161 444 1151 b 553 1243 544 1151 553 1167 b 590 1272 554 1264 567 1272 l 668 1272 b 694 1232 690 1272 694 1264 b 519 1038 694 1083 646 1038 b 290 1115 426 1038 358 1061 b 186 1153 258 1142 231 1153 b 122 1063 131 1153 122 1138 b 83 1032 121 1042 108 1032 "},"ĩ":{"ha":714,"x_min":0,"x_max":0,"o":"m 425 763 b 456 732 444 763 456 751 l 456 31 b 425 0 456 10 444 0 l 289 0 b 258 31 268 0 258 10 l 258 732 b 289 763 258 751 268 763 m 25 836 b 0 879 4 836 0 846 b 172 1090 0 1039 47 1090 b 403 1007 267 1090 335 1065 b 508 968 436 979 458 968 b 575 1061 565 968 575 986 b 614 1094 576 1085 589 1094 l 688 1094 b 713 1051 708 1094 713 1085 b 540 840 713 892 665 840 b 310 924 446 840 378 865 b 204 961 278 951 254 961 b 138 869 146 961 138 944 b 99 836 136 846 124 836 "},"Ī":{"ha":635,"x_min":0,"x_max":0,"o":"m 393 972 b 424 942 414 972 424 963 l 424 31 b 393 0 424 10 414 0 l 243 0 b 213 31 222 0 213 10 l 213 942 b 243 972 213 963 222 972 m 644 1208 b 675 1183 664 1208 675 1200 l 675 1097 b 644 1074 675 1081 664 1074 l -7 1074 b -39 1097 -28 1074 -39 1081 l -39 1183 b -7 1208 -39 1200 -28 1208 "},"ī":{"ha":689,"x_min":0,"x_max":0,"o":"m 413 763 b 443 732 432 763 443 751 l 443 31 b 413 0 443 10 432 0 l 276 0 b 246 31 256 0 246 10 l 246 732 b 276 763 246 751 256 763 m 671 1019 b 701 989 692 1019 701 1010 l 701 908 b 671 878 701 888 692 878 l 19 878 b -11 908 -1 878 -11 888 l -11 989 b 19 1019 -11 1010 -1 1019 "},"Ĭ":{"ha":608,"x_min":0,"x_max":0,"o":"m 379 972 b 410 942 400 972 410 963 l 410 31 b 379 0 410 10 400 0 l 229 0 b 199 31 208 0 199 10 l 199 942 b 229 972 199 963 208 972 m -29 1236 b -3 1263 -29 1253 -18 1263 b 32 1250 7 1263 19 1258 b 306 1156 108 1194 197 1156 b 578 1250 413 1156 499 1193 b 611 1263 590 1258 603 1263 b 638 1236 628 1263 638 1253 l 638 1179 b 610 1132 638 1160 633 1147 b 306 1047 544 1085 418 1047 b 0 1132 193 1047 64 1086 b -29 1179 -24 1147 -29 1160 "},"ĭ":{"ha":651,"x_min":0,"x_max":0,"o":"m 394 763 b 425 732 414 763 425 751 l 425 31 b 394 0 425 10 414 0 l 258 0 b 228 31 238 0 228 10 l 228 732 b 258 763 228 751 238 763 m -6 1076 b 19 1108 -6 1094 3 1108 b 54 1092 29 1108 40 1103 b 326 985 85 1067 185 985 b 600 1092 469 985 569 1067 b 635 1108 614 1103 625 1108 b 660 1076 651 1108 660 1094 l 660 1004 b 633 947 660 985 657 968 b 326 850 582 906 461 850 b 21 947 193 850 72 906 b -6 1004 -3 968 -6 985 "},"Į":{"ha":467,"x_min":0,"x_max":0,"o":"m 176 3 b 163 31 167 7 163 17 l 163 942 b 193 972 163 963 172 972 l 343 972 b 374 942 364 972 374 963 l 374 31 b 356 1 374 15 368 6 l 183 -82 b 114 -165 122 -110 114 -126 b 189 -229 114 -215 129 -229 l 306 -229 b 331 -254 322 -229 331 -237 l 331 -353 b 306 -378 331 -369 322 -378 l 128 -378 b -50 -207 -10 -378 -50 -337 b 50 -44 -50 -118 -29 -74 "},"į":{"ha":450,"x_min":0,"x_max":0,"o":"m 174 6 b 164 31 167 11 164 19 l 164 732 b 194 763 164 751 174 763 l 331 763 b 361 732 350 763 361 751 l 361 31 b 350 6 361 18 358 10 l 351 6 l 175 -82 b 106 -165 114 -111 106 -126 b 179 -229 106 -215 121 -229 l 297 -229 b 322 -254 314 -229 322 -237 l 322 -353 b 297 -378 322 -369 314 -378 l 119 -378 b -58 -207 -19 -378 -58 -337 b 40 -44 -58 -118 -40 -74 m 332 1044 b 363 1014 353 1044 363 1035 l 363 882 b 332 850 363 861 353 850 l 196 850 b 165 882 175 850 165 861 l 165 1014 b 196 1044 165 1035 175 1044 "},"İ":{"ha":397,"x_min":0,"x_max":0,"o":"m 274 972 b 304 942 294 972 304 963 l 304 31 b 274 0 304 10 294 0 l 124 0 b 93 31 103 0 93 10 l 93 942 b 124 972 93 963 103 972 m 265 1229 b 297 1204 286 1229 297 1221 l 297 1072 b 265 1047 297 1056 286 1047 l 129 1047 b 99 1072 110 1047 99 1056 l 99 1204 b 129 1229 99 1221 110 1229 "},"ı":{"ha":375,"x_min":0,"x_max":0,"o":"m 256 763 b 286 732 275 763 286 751 l 286 31 b 256 0 286 10 275 0 l 119 0 b 89 31 99 0 89 10 l 89 732 b 119 763 89 751 99 763 "},"Ĳ":{"ha":1482,"x_min":0,"x_max":0,"o":"m 274 972 b 304 942 294 972 304 963 l 304 31 b 274 0 304 10 294 0 l 124 0 b 93 31 103 0 93 10 l 93 942 b 124 972 93 963 103 972 m 1361 972 b 1393 942 1382 972 1393 963 l 1393 367 b 1004 0 1393 101 1286 0 l 460 0 b 429 31 440 0 429 10 l 429 167 b 460 197 429 188 440 197 l 996 197 b 1181 388 1139 197 1181 240 l 1181 942 b 1211 972 1181 963 1190 972 "},"ĳ":{"ha":767,"x_min":0,"x_max":0,"o":"m 256 763 b 286 732 275 763 286 751 l 286 31 b 256 0 286 10 275 0 l 119 0 b 89 31 99 0 89 10 l 89 732 b 119 763 89 751 99 763 m 650 763 b 681 732 669 763 681 751 l 681 -28 b 364 -307 681 -232 600 -307 l 254 -307 b 229 -282 238 -307 229 -299 l 229 -160 b 254 -135 229 -143 238 -135 l 344 -135 b 482 11 456 -135 482 -106 l 482 732 b 514 763 482 751 493 763 m 256 1044 b 286 1014 276 1044 286 1035 l 286 882 b 256 850 286 861 276 850 l 119 850 b 89 882 99 850 89 861 l 89 1014 b 119 1044 89 1035 99 1044 m 650 1044 b 681 1014 671 1044 681 1035 l 681 882 b 650 850 681 861 671 850 l 514 850 b 483 882 493 850 483 861 l 483 1014 b 514 1044 483 1035 493 1044 "},"Ķ":{"ha":1186,"x_min":0,"x_max":0,"o":"m 274 972 b 304 942 294 972 304 963 l 304 579 l 497 579 b 651 635 592 579 615 588 l 893 954 b 933 972 903 968 910 972 l 1107 972 b 1124 939 1128 972 1135 953 l 854 590 b 771 497 824 550 797 519 b 876 397 808 474 842 442 l 1161 36 b 1143 0 1172 25 1167 0 l 967 0 b 926 18 944 0 936 4 l 669 347 b 515 404 633 394 606 404 l 304 404 l 304 31 b 274 0 304 10 294 0 l 124 0 b 93 31 103 0 93 10 l 93 942 b 124 972 93 963 103 972 m 644 -57 b 669 -93 665 -57 675 -69 l 610 -346 b 575 -378 604 -368 594 -378 l 496 -378 b 464 -346 474 -378 463 -367 l 486 -89 b 519 -57 488 -68 500 -57 "},"ķ":{"ha":1103,"x_min":0,"x_max":0,"o":"m 118 0 b 88 31 97 0 88 10 l 88 1011 b 118 1042 88 1032 97 1042 l 254 1042 b 285 1011 275 1042 285 1032 l 285 465 l 540 465 b 676 519 625 465 642 472 l 832 739 b 874 763 844 757 853 763 l 1032 763 b 1046 725 1053 763 1058 743 l 867 479 b 782 392 839 442 813 413 b 879 301 821 369 851 339 l 1076 35 b 1061 0 1088 18 1081 0 l 897 0 b 856 19 875 0 867 4 l 685 253 b 553 308 650 299 628 308 l 285 308 l 285 31 b 254 0 285 10 275 0 l 118 0 m 611 -57 b 636 -93 632 -57 642 -69 l 576 -346 b 542 -378 571 -368 561 -378 l 463 -378 b 431 -346 440 -378 429 -367 l 453 -89 b 486 -57 454 -68 467 -57 "},"Ĺ":{"ha":1113,"x_min":0,"x_max":0,"o":"m 271 972 b 301 942 292 972 301 963 l 301 388 b 486 197 301 240 343 197 l 1049 197 b 1079 167 1068 197 1079 188 l 1079 31 b 1049 0 1079 10 1068 0 l 479 0 b 90 367 197 0 90 100 l 90 942 b 121 972 90 963 100 972 m 431 1272 b 450 1246 450 1272 461 1264 l 310 1040 b 267 1015 297 1024 288 1015 l 161 1015 b 140 1042 139 1015 131 1025 l 264 1247 b 307 1272 274 1263 286 1272 "},"ĺ":{"ha":393,"x_min":0,"x_max":0,"o":"m 410 1272 b 429 1246 429 1272 440 1264 l 289 1040 b 281 1031 286 1038 283 1033 b 286 1011 285 1026 286 1019 l 286 31 b 256 0 286 10 275 0 l 119 0 b 89 31 99 0 89 10 l 89 1011 b 119 1042 89 1032 99 1042 l 243 1247 b 286 1272 253 1263 265 1272 "},"Ļ":{"ha":1113,"x_min":0,"x_max":0,"o":"m 271 972 b 301 942 292 972 301 963 l 301 388 b 486 197 301 240 343 197 l 1049 197 b 1079 167 1068 197 1079 188 l 1079 31 b 1049 0 1079 10 1068 0 l 479 0 b 90 367 197 0 90 100 l 90 942 b 121 972 90 963 100 972 m 668 -57 b 693 -93 689 -57 699 -69 l 633 -346 b 599 -378 628 -368 618 -378 l 519 -378 b 488 -346 497 -378 486 -367 l 510 -89 b 543 -57 511 -68 524 -57 "},"ļ":{"ha":375,"x_min":0,"x_max":0,"o":"m 256 1042 b 286 1011 275 1042 286 1032 l 286 31 b 256 0 286 10 275 0 l 119 0 b 89 31 99 0 89 10 l 89 1011 b 119 1042 89 1032 99 1042 m 246 -57 b 271 -93 267 -57 276 -69 l 211 -346 b 176 -378 206 -368 196 -378 l 97 -378 b 65 -346 75 -378 64 -367 l 88 -89 b 121 -57 89 -68 101 -57 "},"Ľ":{"ha":1113,"x_min":0,"x_max":0,"o":"m 271 972 b 301 942 292 972 301 963 l 301 388 b 486 197 301 240 343 197 l 1049 197 b 1079 167 1068 197 1079 188 l 1079 31 b 1049 0 1079 10 1068 0 l 479 0 b 90 367 197 0 90 100 l 90 942 b 121 972 90 963 100 972 m 758 1036 b 783 1000 779 1036 789 1024 l 724 747 b 689 715 718 725 708 715 l 610 715 b 578 747 588 715 576 726 l 600 1004 b 633 1036 601 1025 614 1036 "},"ľ":{"ha":519,"x_min":0,"x_max":0,"o":"m 256 1042 b 286 1011 275 1042 286 1032 l 286 31 b 256 0 286 10 275 0 l 119 0 b 89 31 99 0 89 10 l 89 1011 b 119 1042 89 1032 99 1042 m 526 1036 b 551 1000 547 1036 557 1024 l 492 747 b 457 715 486 725 476 715 l 378 715 b 346 747 356 715 344 726 l 368 1004 b 401 1036 369 1025 382 1036 "},"Ł":{"ha":1142,"x_min":0,"x_max":0,"o":"m 119 640 l 119 942 b 150 972 119 963 129 972 l 300 972 b 331 942 321 972 331 963 l 331 713 l 565 792 b 590 776 581 797 590 792 l 590 679 b 567 653 590 663 583 658 l 331 572 l 331 388 b 515 197 331 240 372 197 l 1078 197 b 1108 167 1097 197 1108 188 l 1108 31 b 1078 0 1108 10 1097 0 l 508 0 b 119 367 226 0 119 100 l 119 500 l 32 471 b 8 489 17 465 8 474 l 8 585 b 31 611 8 601 15 606 "},"ł":{"ha":594,"x_min":0,"x_max":0,"o":"m 199 757 l 199 1011 b 229 1042 199 1032 208 1042 l 365 1042 b 396 1011 385 1042 396 1032 l 396 824 l 563 881 b 588 865 579 886 588 881 l 588 768 b 565 742 588 751 582 747 l 396 685 l 396 31 b 365 0 396 10 385 0 l 229 0 b 199 31 208 0 199 10 l 199 617 l 31 560 b 6 578 15 554 6 563 l 6 674 b 29 700 6 690 13 694 "},"Ń":{"ha":1358,"x_min":0,"x_max":0,"o":"m 342 972 b 503 890 442 972 458 951 l 1014 213 b 1032 203 1018 206 1024 203 l 1044 203 b 1056 217 1051 203 1056 207 l 1056 942 b 1086 972 1056 963 1065 972 l 1235 972 b 1265 942 1256 972 1265 963 l 1265 144 b 1140 0 1265 35 1228 0 l 1017 0 b 857 82 917 0 900 21 l 344 760 b 326 769 339 767 335 769 l 314 769 b 303 756 306 769 303 765 l 303 31 b 272 0 303 10 292 0 l 124 0 b 93 31 103 0 93 10 l 93 828 b 217 972 93 938 129 972 m 858 1272 b 878 1246 878 1272 889 1264 l 738 1040 b 694 1015 725 1024 715 1015 l 589 1015 b 568 1042 567 1015 558 1025 l 692 1247 b 735 1272 701 1263 714 1272 "},"ń":{"ha":1228,"x_min":0,"x_max":0,"o":"m 813 763 b 1143 482 1058 763 1143 686 l 1143 31 b 1113 0 1143 10 1133 0 l 976 0 b 946 31 957 0 946 10 l 946 433 b 803 586 946 557 918 586 l 433 586 b 282 433 314 586 282 551 l 282 31 b 251 0 282 10 272 0 l 115 0 b 85 31 94 0 85 10 l 85 482 b 414 763 85 686 169 763 m 788 1133 b 807 1100 808 1133 817 1119 l 664 844 b 622 813 650 819 640 813 l 517 813 b 496 846 494 813 486 826 l 621 1101 b 664 1133 632 1124 644 1133 "},"Ņ":{"ha":1358,"x_min":0,"x_max":0,"o":"m 342 972 b 503 890 442 972 458 951 l 1014 213 b 1032 203 1018 206 1024 203 l 1044 203 b 1056 217 1051 203 1056 207 l 1056 942 b 1086 972 1056 963 1065 972 l 1235 972 b 1265 942 1256 972 1265 963 l 1265 144 b 1140 0 1265 35 1228 0 l 1017 0 b 857 82 917 0 900 21 l 344 760 b 326 769 339 767 335 769 l 314 769 b 303 756 306 769 303 765 l 303 31 b 272 0 303 10 292 0 l 124 0 b 93 31 103 0 93 10 l 93 828 b 217 972 93 938 129 972 m 710 -57 b 735 -93 731 -57 740 -69 l 675 -346 b 640 -378 669 -368 660 -378 l 561 -378 b 529 -346 539 -378 528 -367 l 551 -89 b 585 -57 553 -68 565 -57 "},"ņ":{"ha":1228,"x_min":0,"x_max":0,"o":"m 813 763 b 1143 482 1058 763 1143 686 l 1143 31 b 1113 0 1143 10 1133 0 l 976 0 b 946 31 957 0 946 10 l 946 433 b 803 586 946 557 918 586 l 433 586 b 282 433 314 586 282 551 l 282 31 b 251 0 282 10 272 0 l 115 0 b 85 31 94 0 85 10 l 85 482 b 414 763 85 686 169 763 m 685 -57 b 710 -93 706 -57 715 -69 l 650 -346 b 615 -378 644 -368 635 -378 l 536 -378 b 504 -346 514 -378 503 -367 l 526 -89 b 560 -57 528 -68 540 -57 "},"Ň":{"ha":1358,"x_min":0,"x_max":0,"o":"m 342 972 b 503 890 442 972 458 951 l 1014 213 b 1032 203 1018 206 1024 203 l 1044 203 b 1056 217 1051 203 1056 207 l 1056 942 b 1086 972 1056 963 1065 972 l 1235 972 b 1265 942 1256 972 1265 963 l 1265 144 b 1140 0 1265 35 1228 0 l 1017 0 b 857 82 917 0 900 21 l 344 760 b 326 769 339 767 335 769 l 314 769 b 303 756 306 769 303 765 l 303 31 b 272 0 303 10 292 0 l 124 0 b 93 31 103 0 93 10 l 93 828 b 217 972 93 938 129 972 m 536 1272 b 579 1247 558 1272 568 1264 l 660 1126 b 678 1117 664 1121 668 1117 l 683 1117 b 701 1126 690 1117 697 1121 l 781 1247 b 825 1272 792 1264 803 1272 l 932 1272 b 950 1244 951 1272 961 1260 l 803 1044 b 742 1015 788 1025 772 1015 l 618 1015 b 558 1044 588 1015 574 1025 l 411 1244 b 429 1272 400 1260 410 1272 "},"ň":{"ha":1228,"x_min":0,"x_max":0,"o":"m 813 763 b 1143 482 1058 763 1143 686 l 1143 31 b 1113 0 1143 10 1133 0 l 976 0 b 946 31 957 0 946 10 l 946 433 b 803 586 946 557 918 586 l 433 586 b 282 433 314 586 282 551 l 282 31 b 251 0 282 10 272 0 l 115 0 b 85 31 94 0 85 10 l 85 482 b 414 763 85 686 169 763 m 469 1133 b 513 1103 492 1133 501 1124 l 593 949 b 608 936 597 940 601 936 l 617 936 b 633 949 625 936 629 940 l 714 1103 b 757 1133 725 1124 735 1133 l 864 1133 b 882 1099 883 1133 893 1118 l 735 847 b 675 813 721 824 706 813 l 551 813 b 492 847 522 813 506 824 l 344 1099 b 363 1133 332 1118 343 1133 "},"Ŋ":{"ha":1357,"x_min":0,"x_max":0,"o":"m 878 972 b 1267 606 1160 972 1267 872 l 1267 -28 b 950 -307 1267 -235 1185 -307 l 840 -307 b 815 -282 824 -307 815 -299 l 815 -149 b 840 -124 815 -132 824 -124 l 915 -124 b 1054 11 1031 -124 1054 -101 l 1054 585 b 871 775 1054 732 1014 775 l 486 775 b 301 585 343 775 301 732 l 301 31 b 271 0 301 10 292 0 l 121 0 b 90 31 100 0 90 10 l 90 606 b 479 972 90 872 197 972 "},"ŋ":{"ha":1228,"x_min":0,"x_max":0,"o":"m 813 763 b 1143 482 1056 763 1143 689 l 1143 -28 b 826 -307 1143 -235 1061 -307 l 717 -307 b 692 -282 700 -307 692 -299 l 692 -160 b 717 -135 692 -143 700 -135 l 807 -135 b 946 11 917 -135 946 -106 l 946 433 b 803 586 946 557 917 586 l 433 586 b 282 433 315 586 282 553 l 282 31 b 251 0 282 10 272 0 l 115 0 b 85 31 94 0 85 10 l 85 482 b 414 763 85 689 171 763 "},"Ō":{"ha":1369,"x_min":0,"x_max":0,"o":"m 899 972 b 1288 606 1181 972 1288 872 l 1288 367 b 899 0 1288 100 1181 0 l 471 0 b 82 367 189 0 82 101 l 82 606 b 471 972 82 871 189 972 m 1011 1208 b 1042 1183 1031 1208 1042 1200 l 1042 1097 b 1011 1074 1042 1081 1031 1074 l 360 1074 b 328 1097 339 1074 328 1081 l 328 1183 b 360 1208 328 1200 339 1208 m 293 382 b 478 196 293 236 333 196 l 890 196 b 1075 382 1035 196 1075 236 l 1075 590 b 890 776 1075 736 1035 776 l 478 776 b 293 590 333 776 293 736 "},"ō":{"ha":1206,"x_min":0,"x_max":0,"o":"m 799 763 b 1129 482 1042 763 1129 689 l 1129 281 b 799 0 1129 74 1042 0 l 406 0 b 76 281 163 0 76 74 l 76 482 b 406 763 76 689 163 763 m 274 315 b 425 169 274 199 304 169 l 779 169 b 932 315 901 169 932 199 l 932 447 b 779 592 932 563 901 592 l 425 592 b 274 447 304 592 274 563 m 928 1019 b 958 989 949 1019 958 1010 l 958 908 b 928 878 958 888 949 878 l 276 878 b 246 908 256 878 246 888 l 246 989 b 276 1019 246 1010 256 1019 "},"Ŏ":{"ha":1369,"x_min":0,"x_max":0,"o":"m 899 972 b 1288 606 1181 972 1288 872 l 1288 367 b 899 0 1288 100 1181 0 l 471 0 b 82 367 189 0 82 101 l 82 606 b 471 972 82 871 189 972 m 349 1236 b 375 1263 349 1253 360 1263 b 410 1250 385 1263 397 1258 b 683 1156 486 1194 575 1156 b 956 1250 790 1156 876 1193 b 989 1263 968 1258 981 1263 b 1015 1236 1006 1263 1015 1253 l 1015 1179 b 988 1132 1015 1160 1011 1147 b 683 1047 922 1085 796 1047 b 378 1132 571 1047 442 1086 b 349 1179 354 1147 349 1160 m 293 382 b 478 196 293 236 333 196 l 890 196 b 1075 382 1035 196 1075 236 l 1075 590 b 890 776 1075 736 1035 776 l 478 776 b 293 590 333 776 293 736 "},"ŏ":{"ha":1206,"x_min":0,"x_max":0,"o":"m 799 763 b 1129 482 1042 763 1129 689 l 1129 281 b 799 0 1129 74 1042 0 l 406 0 b 76 281 163 0 76 74 l 76 482 b 406 763 76 689 163 763 m 269 1076 b 294 1108 269 1094 278 1108 b 329 1092 304 1108 315 1103 b 601 985 360 1067 460 985 b 875 1092 744 985 844 1067 b 910 1108 889 1103 900 1108 b 935 1076 926 1108 935 1094 l 935 1004 b 908 947 935 985 932 968 b 601 850 857 906 736 850 b 296 947 468 850 347 906 b 269 1004 272 968 269 985 m 274 315 b 425 169 274 199 304 169 l 779 169 b 932 315 901 169 932 199 l 932 447 b 779 592 932 563 901 592 l 425 592 b 274 447 304 592 274 563 "},"Ő":{"ha":1369,"x_min":0,"x_max":0,"o":"m 899 972 b 1288 606 1181 972 1288 872 l 1288 367 b 899 0 1288 100 1181 0 l 471 0 b 82 367 189 0 82 101 l 82 606 b 471 972 82 871 189 972 m 701 1272 b 722 1246 721 1272 733 1264 l 581 1040 b 538 1015 568 1024 558 1015 l 432 1015 b 411 1042 411 1015 401 1025 l 535 1247 b 579 1272 544 1263 558 1272 m 1019 1272 b 1039 1246 1039 1272 1050 1264 l 897 1040 b 854 1015 886 1024 876 1015 l 750 1015 b 728 1042 728 1015 718 1025 l 853 1247 b 896 1272 863 1263 875 1272 m 293 382 b 478 196 293 236 333 196 l 890 196 b 1075 382 1035 196 1075 236 l 1075 590 b 890 776 1075 736 1035 776 l 478 776 b 293 590 333 776 293 736 "},"ő":{"ha":1206,"x_min":0,"x_max":0,"o":"m 799 763 b 1129 482 1042 763 1129 689 l 1129 281 b 799 0 1129 74 1042 0 l 406 0 b 76 281 163 0 76 74 l 76 482 b 406 763 76 689 163 763 m 617 1133 b 638 1100 639 1133 647 1119 l 494 844 b 451 813 481 819 469 813 l 346 813 b 325 846 325 813 315 826 l 451 1101 b 494 1133 461 1124 475 1133 m 933 1133 b 954 1100 956 1133 964 1119 l 811 844 b 768 813 797 819 786 813 l 664 813 b 642 846 642 813 632 826 l 768 1101 b 811 1133 778 1124 792 1133 m 274 315 b 425 169 274 199 304 169 l 779 169 b 932 315 901 169 932 199 l 932 447 b 779 592 932 563 901 592 l 425 592 b 274 447 304 592 274 563 "},"Œ":{"ha":2182,"x_min":0,"x_max":0,"o":"m 899 972 b 1186 900 1031 972 1124 950 b 1472 972 1249 950 1342 972 l 2083 972 b 2114 942 2103 972 2114 963 l 2114 807 b 2083 776 2114 788 2103 776 l 1474 776 b 1293 590 1331 776 1293 736 l 1293 583 l 2075 583 b 2106 553 2094 583 2106 574 l 2106 429 b 2075 399 2106 408 2094 399 l 1293 399 l 1293 382 b 1474 196 1293 236 1331 196 l 2083 196 b 2114 165 2103 196 2114 185 l 2114 31 b 2083 0 2114 10 2103 0 l 1472 0 b 1186 72 1342 0 1249 22 b 899 0 1124 22 1031 0 l 471 0 b 82 367 189 0 82 101 l 82 606 b 471 972 82 871 189 972 m 293 382 b 478 196 293 236 333 196 l 890 196 b 1075 382 1035 196 1075 236 l 1075 590 b 890 776 1075 736 1035 776 l 478 776 b 293 590 333 776 293 736 "},"œ":{"ha":1976,"x_min":0,"x_max":0,"o":"m 799 763 b 1033 715 904 763 981 749 b 1268 763 1086 749 1163 763 l 1675 763 b 1915 535 1861 763 1915 707 l 1915 392 b 1836 314 1915 335 1892 314 l 1135 314 l 1135 289 b 1288 172 1135 201 1168 172 l 1867 172 b 1892 147 1883 172 1892 164 l 1892 25 b 1867 0 1892 8 1883 0 l 1268 0 b 1033 47 1161 0 1085 14 b 799 0 981 14 904 0 l 406 0 b 76 281 163 0 76 74 l 76 482 b 406 763 76 689 163 763 m 274 315 b 425 169 274 199 304 169 l 779 169 b 932 315 901 169 932 199 l 932 447 b 779 592 932 563 901 592 l 425 592 b 274 447 304 592 274 563 m 1696 457 b 1719 481 1713 457 1719 465 l 1719 529 b 1635 597 1719 583 1703 597 l 1288 597 b 1135 485 1164 597 1135 572 l 1135 457 "},"Ŕ":{"ha":1257,"x_min":0,"x_max":0,"o":"m 879 972 b 1178 688 1086 972 1178 879 l 1178 607 b 976 324 1178 446 1114 351 l 1208 36 b 1190 0 1219 22 1213 0 l 1004 0 b 965 18 982 0 975 6 l 744 300 l 304 300 l 304 31 b 274 0 304 10 294 0 l 124 0 b 93 31 103 0 93 10 l 93 931 b 135 972 93 958 107 972 m 769 1272 b 789 1246 789 1272 800 1264 l 649 1040 b 606 1015 636 1024 626 1015 l 500 1015 b 479 1042 478 1015 469 1025 l 603 1247 b 646 1272 613 1263 625 1272 m 836 483 b 965 600 931 483 965 517 l 965 658 b 836 778 965 743 929 778 l 322 778 b 304 763 310 778 304 774 l 304 483 "},"ŕ":{"ha":853,"x_min":0,"x_max":0,"o":"m 803 763 b 828 738 819 763 828 754 l 828 615 b 803 590 828 599 819 590 l 433 590 b 282 443 313 590 282 560 l 282 31 b 251 0 282 10 272 0 l 115 0 b 85 31 94 0 85 10 l 85 482 b 414 763 85 686 169 763 m 658 1133 b 678 1100 679 1133 688 1119 l 535 844 b 493 813 521 819 511 813 l 388 813 b 367 846 365 813 357 826 l 492 1101 b 535 1133 503 1124 515 1133 "},"Ŗ":{"ha":1257,"x_min":0,"x_max":0,"o":"m 879 972 b 1178 688 1086 972 1178 879 l 1178 607 b 976 324 1178 446 1114 351 l 1208 36 b 1190 0 1219 22 1213 0 l 1004 0 b 965 18 982 0 975 6 l 744 300 l 304 300 l 304 31 b 274 0 304 10 294 0 l 124 0 b 93 31 103 0 93 10 l 93 931 b 135 972 93 958 107 972 m 836 483 b 965 600 931 483 965 517 l 965 658 b 836 778 965 743 929 778 l 322 778 b 304 763 310 778 304 774 l 304 483 m 674 -57 b 699 -93 694 -57 704 -69 l 639 -346 b 604 -378 633 -368 624 -378 l 525 -378 b 493 -346 503 -378 492 -367 l 515 -89 b 549 -57 517 -68 529 -57 "},"ŗ":{"ha":853,"x_min":0,"x_max":0,"o":"m 803 763 b 828 738 819 763 828 754 l 828 615 b 803 590 828 599 819 590 l 433 590 b 282 443 313 590 282 560 l 282 31 b 251 0 282 10 272 0 l 115 0 b 85 31 94 0 85 10 l 85 482 b 414 763 85 686 169 763 m 247 -57 b 272 -93 268 -57 278 -69 l 213 -346 b 178 -378 207 -368 197 -378 l 99 -378 b 67 -346 76 -378 65 -367 l 89 -89 b 122 -57 90 -68 103 -57 "},"Ř":{"ha":1257,"x_min":0,"x_max":0,"o":"m 879 972 b 1178 688 1086 972 1178 879 l 1178 607 b 976 324 1178 446 1114 351 l 1208 36 b 1190 0 1219 22 1213 0 l 1004 0 b 965 18 982 0 975 6 l 744 300 l 304 300 l 304 31 b 274 0 304 10 294 0 l 124 0 b 93 31 103 0 93 10 l 93 931 b 135 972 93 958 107 972 m 443 1272 b 486 1247 465 1272 475 1264 l 567 1126 b 585 1117 571 1121 575 1117 l 590 1117 b 608 1126 597 1117 604 1121 l 688 1247 b 732 1272 699 1264 710 1272 l 839 1272 b 857 1244 858 1272 868 1260 l 710 1044 b 649 1015 694 1025 679 1015 l 525 1015 b 465 1044 494 1015 481 1025 l 318 1244 b 336 1272 307 1260 317 1272 m 836 483 b 965 600 931 483 965 517 l 965 658 b 836 778 965 743 929 778 l 322 778 b 304 763 310 778 304 774 l 304 483 "},"ř":{"ha":853,"x_min":0,"x_max":0,"o":"m 803 763 b 828 738 819 763 828 754 l 828 615 b 803 590 828 599 819 590 l 433 590 b 282 443 313 590 282 560 l 282 31 b 251 0 282 10 272 0 l 115 0 b 85 31 94 0 85 10 l 85 482 b 414 763 85 686 169 763 m 322 1133 b 365 1103 344 1133 354 1124 l 446 949 b 461 936 450 940 454 936 l 469 936 b 486 949 478 936 482 940 l 567 1103 b 610 1133 578 1124 588 1133 l 717 1133 b 735 1099 736 1133 746 1118 l 588 847 b 528 813 574 824 558 813 l 404 813 b 344 847 375 813 358 824 l 197 1099 b 215 1133 185 1118 196 1133 "},"Ś":{"ha":1190,"x_min":0,"x_max":0,"o":"m 1057 972 b 1088 942 1076 972 1088 963 l 1088 807 b 1057 776 1088 788 1076 776 l 361 776 b 288 701 311 776 288 753 l 288 654 b 361 583 288 604 310 583 l 881 583 b 1124 339 1036 583 1124 494 l 1124 226 b 878 0 1124 83 1038 0 l 108 0 b 78 31 88 0 78 10 l 78 165 b 108 196 78 185 88 196 l 838 196 b 911 271 886 196 911 219 l 911 328 b 839 399 911 378 890 399 l 318 399 b 76 643 163 399 76 488 l 76 746 b 321 972 76 889 161 972 m 769 1272 b 789 1246 789 1272 800 1264 l 649 1040 b 606 1015 636 1024 626 1015 l 500 1015 b 479 1042 478 1015 469 1025 l 603 1247 b 646 1272 613 1263 625 1272 "},"ś":{"ha":1088,"x_min":0,"x_max":0,"o":"m 968 763 b 993 738 985 763 993 754 l 993 618 b 968 593 993 601 985 593 l 342 593 b 264 539 283 593 264 579 l 264 518 b 342 465 264 479 285 465 l 808 465 b 1025 272 956 465 1025 400 l 1025 194 b 807 0 1025 67 963 0 l 96 0 b 71 25 79 0 71 8 l 71 144 b 96 169 71 161 79 169 l 756 169 b 832 228 814 169 832 182 l 832 265 b 756 317 832 301 810 317 l 288 317 b 71 511 140 317 71 382 l 71 572 b 289 763 71 694 136 763 m 719 1133 b 739 1100 740 1133 749 1119 l 596 844 b 554 813 582 819 572 813 l 449 813 b 428 846 426 813 418 826 l 553 1101 b 596 1133 564 1124 576 1133 "},"Ş":{"ha":1190,"x_min":0,"x_max":0,"o":"m 1057 972 b 1088 942 1076 972 1088 963 l 1088 807 b 1057 776 1088 788 1076 776 l 361 776 b 288 701 311 776 288 753 l 288 654 b 361 583 288 604 310 583 l 881 583 b 1124 339 1036 583 1124 494 l 1124 226 b 878 0 1124 83 1038 0 l 108 0 b 78 31 88 0 78 10 l 78 165 b 108 196 78 185 88 196 l 838 196 b 911 271 886 196 911 219 l 911 328 b 839 399 911 378 890 399 l 318 399 b 76 643 163 399 76 488 l 76 746 b 321 972 76 889 161 972 m 667 -57 b 692 -93 688 -57 697 -69 l 632 -346 b 597 -378 626 -368 617 -378 l 518 -378 b 486 -346 496 -378 485 -367 l 508 -89 b 542 -57 510 -68 522 -57 "},"ş":{"ha":1088,"x_min":0,"x_max":0,"o":"m 968 763 b 993 738 985 763 993 754 l 993 618 b 968 593 993 601 985 593 l 342 593 b 264 539 283 593 264 579 l 264 518 b 342 465 264 479 285 465 l 808 465 b 1025 272 956 465 1025 400 l 1025 194 b 807 0 1025 67 963 0 l 96 0 b 71 25 79 0 71 8 l 71 144 b 96 169 71 161 79 169 l 756 169 b 832 228 814 169 832 182 l 832 265 b 756 317 832 301 810 317 l 288 317 b 71 511 140 317 71 382 l 71 572 b 289 763 71 694 136 763 m 614 -57 b 639 -93 635 -57 644 -69 l 579 -346 b 544 -378 574 -368 564 -378 l 465 -378 b 433 -346 443 -378 432 -367 l 456 -89 b 489 -57 457 -68 469 -57 "},"Š":{"ha":1190,"x_min":0,"x_max":0,"o":"m 1057 972 b 1088 942 1076 972 1088 963 l 1088 807 b 1057 776 1088 788 1076 776 l 361 776 b 288 701 311 776 288 753 l 288 654 b 361 583 288 604 310 583 l 881 583 b 1124 339 1036 583 1124 494 l 1124 226 b 878 0 1124 83 1038 0 l 108 0 b 78 31 88 0 78 10 l 78 165 b 108 196 78 185 88 196 l 838 196 b 911 271 886 196 911 219 l 911 328 b 839 399 911 378 890 399 l 318 399 b 76 643 163 399 76 488 l 76 746 b 321 972 76 889 161 972 m 454 1272 b 497 1247 476 1272 486 1264 l 578 1126 b 596 1117 582 1121 586 1117 l 601 1117 b 619 1126 608 1117 615 1121 l 699 1247 b 743 1272 710 1264 721 1272 l 850 1272 b 868 1244 869 1272 879 1260 l 721 1044 b 660 1015 706 1025 690 1015 l 536 1015 b 476 1044 506 1015 492 1025 l 329 1244 b 347 1272 318 1260 328 1272 "},"š":{"ha":1088,"x_min":0,"x_max":0,"o":"m 968 763 b 993 738 985 763 993 754 l 993 618 b 968 593 993 601 985 593 l 342 593 b 264 539 283 593 264 579 l 264 518 b 342 465 264 479 285 465 l 808 465 b 1025 272 956 465 1025 400 l 1025 194 b 807 0 1025 67 963 0 l 96 0 b 71 25 79 0 71 8 l 71 144 b 96 169 71 161 79 169 l 756 169 b 832 228 814 169 832 182 l 832 265 b 756 317 832 301 810 317 l 288 317 b 71 511 140 317 71 382 l 71 572 b 289 763 71 694 136 763 m 400 1133 b 443 1103 422 1133 432 1124 l 524 949 b 539 936 528 940 532 936 l 547 936 b 564 949 556 936 560 940 l 644 1103 b 688 1133 656 1124 665 1133 l 794 1133 b 813 1099 814 1133 824 1118 l 665 847 b 606 813 651 824 636 813 l 482 813 b 422 847 453 813 436 824 l 275 1099 b 293 1133 263 1118 274 1133 "},"Ť":{"ha":1213,"x_min":0,"x_max":0,"o":"m 1149 972 b 1181 942 1169 972 1181 963 l 1181 806 b 1149 775 1181 785 1169 775 l 711 775 l 711 31 b 682 0 711 10 703 0 l 531 0 b 500 31 511 0 500 10 l 500 775 l 63 775 b 32 806 43 775 32 785 l 32 942 b 63 972 32 963 43 972 m 461 1272 b 504 1247 483 1272 493 1264 l 585 1126 b 603 1117 589 1121 593 1117 l 608 1117 b 626 1126 615 1117 622 1121 l 706 1247 b 750 1272 717 1264 728 1272 l 857 1272 b 875 1244 876 1272 886 1260 l 728 1044 b 667 1015 713 1025 697 1015 l 543 1015 b 483 1044 513 1015 499 1025 l 336 1244 b 354 1272 325 1260 335 1272 "},"ť":{"ha":860,"x_min":0,"x_max":0,"o":"m 181 763 l 181 946 b 211 978 181 967 192 978 l 349 978 b 379 946 368 978 379 967 l 379 763 l 624 763 b 649 738 640 763 649 754 l 649 617 b 624 592 649 600 640 592 l 379 592 l 379 276 b 496 171 379 199 406 171 l 632 171 b 657 146 649 171 657 163 l 657 25 b 632 0 657 8 649 0 l 463 0 b 181 276 247 0 181 72 l 181 592 l 49 592 b 24 617 32 592 24 600 l 24 738 b 49 763 24 754 32 763 m 867 1036 b 892 1000 888 1036 897 1024 l 832 747 b 797 715 826 725 817 715 l 718 715 b 686 747 696 715 685 726 l 708 1004 b 742 1036 710 1025 722 1036 "},"Ŧ":{"ha":1213,"x_min":0,"x_max":0,"o":"m 500 485 l 500 775 l 63 775 b 32 806 43 775 32 785 l 32 942 b 63 972 32 963 43 972 l 1149 972 b 1181 942 1169 972 1181 963 l 1181 806 b 1149 775 1181 785 1169 775 l 711 775 l 711 485 l 931 485 b 961 454 951 485 961 475 l 961 374 b 931 343 961 353 951 343 l 711 343 l 711 31 b 682 0 711 10 703 0 l 531 0 b 500 31 511 0 500 10 l 500 343 l 279 343 b 249 374 258 343 249 353 l 249 454 b 279 485 249 475 258 485 "},"ŧ":{"ha":746,"x_min":0,"x_max":0,"o":"m 201 468 l 201 592 l 69 592 b 44 617 53 592 44 600 l 44 738 b 69 763 44 754 53 763 l 201 763 l 201 946 b 232 978 201 967 213 978 l 369 978 b 400 946 389 978 400 967 l 400 763 l 644 763 b 669 738 661 763 669 754 l 669 617 b 644 592 669 600 661 592 l 400 592 l 400 468 l 700 468 b 731 438 721 468 731 458 l 731 357 b 700 326 731 336 721 326 l 400 326 l 400 276 b 517 171 400 199 426 171 l 653 171 b 678 146 669 171 678 163 l 678 25 b 653 0 678 8 669 0 l 483 0 b 201 276 268 0 201 72 l 201 326 l 49 326 b 18 357 28 326 18 336 l 18 438 b 49 468 18 458 28 468 "},"Ũ":{"ha":1357,"x_min":0,"x_max":0,"o":"m 271 972 b 301 942 292 972 301 963 l 301 388 b 486 197 301 240 343 197 l 871 197 b 1054 388 1014 197 1054 240 l 1054 942 b 1085 972 1054 963 1065 972 l 1236 972 b 1267 942 1257 972 1267 963 l 1267 367 b 878 0 1267 100 1160 0 l 479 0 b 90 367 197 0 90 100 l 90 942 b 121 972 90 963 100 972 m 346 1032 b 321 1072 325 1032 321 1042 b 496 1267 321 1221 369 1267 b 724 1189 588 1267 657 1243 b 829 1151 758 1161 785 1151 b 893 1243 885 1151 893 1167 b 931 1272 894 1264 907 1272 l 1008 1272 b 1035 1232 1031 1272 1035 1264 b 860 1038 1035 1083 986 1038 b 631 1115 767 1038 699 1061 b 526 1153 599 1142 571 1153 b 463 1063 471 1153 463 1138 b 424 1032 461 1042 449 1032 "},"ũ":{"ha":1217,"x_min":0,"x_max":0,"o":"m 251 763 b 282 732 272 763 282 751 l 282 328 b 425 176 282 206 310 176 l 782 176 b 935 328 901 176 935 210 l 935 732 b 965 763 935 751 946 763 l 1101 763 b 1132 732 1122 763 1132 751 l 1132 281 b 801 0 1132 75 1047 0 l 414 0 b 85 281 169 0 85 75 l 85 732 b 115 763 85 751 94 763 m 276 836 b 251 879 256 836 251 846 b 424 1090 251 1039 299 1090 b 654 1007 518 1090 586 1065 b 760 968 688 979 710 968 b 826 1061 817 968 826 986 b 865 1094 828 1085 840 1094 l 939 1094 b 964 1051 960 1094 964 1085 b 792 840 964 892 917 840 b 561 924 697 840 629 865 b 456 961 529 951 506 961 b 389 869 397 961 389 944 b 350 836 388 846 375 836 "},"Ū":{"ha":1357,"x_min":0,"x_max":0,"o":"m 271 972 b 301 942 292 972 301 963 l 301 388 b 486 197 301 240 343 197 l 871 197 b 1054 388 1014 197 1054 240 l 1054 942 b 1085 972 1054 963 1065 972 l 1236 972 b 1267 942 1257 972 1267 963 l 1267 367 b 878 0 1267 100 1160 0 l 479 0 b 90 367 197 0 90 100 l 90 942 b 121 972 90 963 100 972 m 1004 1208 b 1035 1183 1024 1208 1035 1200 l 1035 1097 b 1004 1074 1035 1081 1024 1074 l 353 1074 b 321 1097 332 1074 321 1081 l 321 1183 b 353 1208 321 1200 332 1208 "},"ū":{"ha":1217,"x_min":0,"x_max":0,"o":"m 251 763 b 282 732 272 763 282 751 l 282 328 b 425 176 282 206 310 176 l 782 176 b 935 328 901 176 935 210 l 935 732 b 965 763 935 751 946 763 l 1101 763 b 1132 732 1122 763 1132 751 l 1132 281 b 801 0 1132 75 1047 0 l 414 0 b 85 281 169 0 85 75 l 85 732 b 115 763 85 751 94 763 m 933 1019 b 964 989 954 1019 964 1010 l 964 908 b 933 878 964 888 954 878 l 282 878 b 251 908 261 878 251 888 l 251 989 b 282 1019 251 1010 261 1019 "},"Ů":{"ha":1357,"x_min":0,"x_max":0,"o":"m 271 972 b 301 942 292 972 301 963 l 301 388 b 486 197 301 240 343 197 l 871 197 b 1054 388 1014 197 1054 240 l 1054 942 b 1085 972 1054 963 1065 972 l 1236 972 b 1267 942 1257 972 1267 963 l 1267 367 b 878 0 1267 100 1160 0 l 479 0 b 90 367 197 0 90 100 l 90 942 b 121 972 90 963 100 972 m 744 1272 b 888 1164 847 1272 888 1242 l 888 1094 b 744 986 888 1017 847 986 l 610 986 b 468 1094 507 986 468 1017 l 468 1164 b 610 1272 468 1242 507 1272 m 575 1108 b 629 1068 575 1072 581 1068 l 726 1068 b 781 1108 775 1068 781 1072 l 781 1149 b 726 1190 781 1186 774 1190 l 629 1190 b 575 1149 582 1190 575 1185 "},"ů":{"ha":1217,"x_min":0,"x_max":0,"o":"m 251 763 b 282 732 272 763 282 751 l 282 328 b 425 176 282 206 310 176 l 782 176 b 935 328 901 176 935 210 l 935 732 b 965 763 935 751 946 763 l 1101 763 b 1132 732 1122 763 1132 751 l 1132 281 b 801 0 1132 75 1047 0 l 414 0 b 85 281 169 0 85 75 l 85 732 b 115 763 85 751 94 763 m 686 1133 b 828 999 789 1133 828 1096 l 828 911 b 686 776 828 814 789 776 l 531 776 b 388 911 426 776 388 814 l 388 999 b 531 1133 388 1096 426 1133 m 506 938 b 565 878 506 892 518 878 l 650 878 b 710 938 697 878 710 892 l 710 971 b 650 1032 710 1018 697 1032 l 565 1032 b 506 971 518 1032 506 1018 "},"Ű":{"ha":1357,"x_min":0,"x_max":0,"o":"m 271 972 b 301 942 292 972 301 963 l 301 388 b 486 197 301 240 343 197 l 871 197 b 1054 388 1014 197 1054 240 l 1054 942 b 1085 972 1054 963 1065 972 l 1236 972 b 1267 942 1257 972 1267 963 l 1267 367 b 878 0 1267 100 1160 0 l 479 0 b 90 367 197 0 90 100 l 90 942 b 121 972 90 963 100 972 m 696 1272 b 717 1246 715 1272 728 1264 l 575 1040 b 532 1015 563 1024 553 1015 l 426 1015 b 406 1042 406 1015 396 1025 l 529 1247 b 574 1272 539 1263 553 1272 m 1014 1272 b 1033 1246 1033 1272 1044 1264 l 892 1040 b 849 1015 881 1024 871 1015 l 744 1015 b 722 1042 722 1015 713 1025 l 847 1247 b 890 1272 857 1263 869 1272 "},"ű":{"ha":1217,"x_min":0,"x_max":0,"o":"m 251 763 b 282 732 272 763 282 751 l 282 328 b 425 176 282 206 310 176 l 782 176 b 935 328 901 176 935 210 l 935 732 b 965 763 935 751 946 763 l 1101 763 b 1132 732 1122 763 1132 751 l 1132 281 b 801 0 1132 75 1047 0 l 414 0 b 85 281 169 0 85 75 l 85 732 b 115 763 85 751 94 763 m 622 1133 b 643 1100 644 1133 653 1119 l 500 844 b 457 813 486 819 475 813 l 351 813 b 331 846 331 813 321 826 l 457 1101 b 500 1133 467 1124 481 1133 m 939 1133 b 960 1100 961 1133 969 1119 l 817 844 b 774 813 803 819 792 813 l 669 813 b 647 846 647 813 638 826 l 774 1101 b 817 1133 783 1124 797 1133 "},"Ų":{"ha":1357,"x_min":0,"x_max":0,"o":"m 681 0 l 479 0 b 90 367 197 0 90 100 l 90 942 b 121 972 90 963 100 972 l 271 972 b 301 942 292 972 301 963 l 301 388 b 486 197 301 240 343 197 l 871 197 b 1054 388 1014 197 1054 240 l 1054 942 b 1085 972 1054 963 1065 972 l 1236 972 b 1267 942 1257 972 1267 963 l 1267 367 b 878 0 1267 100 1160 0 l 872 0 l 710 -78 b 640 -162 650 -107 640 -122 b 714 -214 640 -204 654 -214 l 832 -214 b 857 -239 849 -214 857 -222 l 857 -353 b 832 -378 857 -369 849 -378 l 654 -378 b 476 -206 518 -378 476 -339 b 575 -40 476 -112 497 -71 "},"ų":{"ha":1217,"x_min":0,"x_max":0,"o":"m 621 0 l 414 0 b 85 281 169 0 85 75 l 85 732 b 115 763 85 751 94 763 l 251 763 b 282 732 272 763 282 751 l 282 328 b 425 176 282 206 310 176 l 782 176 b 935 328 901 176 935 210 l 935 732 b 965 763 935 751 946 763 l 1101 763 b 1132 732 1122 763 1132 751 l 1132 281 b 808 0 1132 78 1049 1 l 638 -82 b 568 -165 578 -110 568 -126 b 643 -229 568 -215 585 -229 l 760 -229 b 785 -254 776 -229 785 -237 l 785 -353 b 760 -378 785 -369 776 -378 l 583 -378 b 404 -207 444 -378 404 -337 b 503 -44 404 -118 424 -74 "},"Ŵ":{"ha":1810,"x_min":0,"x_max":0,"o":"m 224 972 b 243 954 235 972 239 968 l 472 207 b 483 197 475 200 478 197 l 490 197 b 501 207 496 197 499 200 l 722 892 b 825 972 740 951 772 972 l 972 972 b 1082 892 1033 972 1064 951 l 1307 207 b 1319 197 1310 200 1313 197 l 1325 197 b 1338 207 1332 197 1335 200 l 1563 954 b 1583 972 1567 968 1574 972 l 1767 972 b 1778 940 1779 972 1783 958 l 1517 106 b 1410 0 1492 24 1464 0 l 1238 0 b 1131 106 1183 0 1156 24 l 917 765 b 907 775 915 772 913 775 l 900 775 b 889 765 894 775 890 772 l 675 106 b 569 0 650 22 624 0 l 404 0 b 289 106 342 0 314 21 l 31 940 b 42 972 25 960 26 972 m 965 1272 b 1026 1243 996 1272 1011 1263 l 1174 1043 b 1156 1015 1185 1028 1175 1015 l 1049 1015 b 1004 1040 1026 1015 1015 1024 l 925 1160 b 907 1171 919 1168 914 1171 l 901 1171 b 883 1160 892 1171 888 1168 l 803 1040 b 760 1015 792 1024 782 1015 l 653 1015 b 635 1043 633 1015 624 1028 l 782 1243 b 842 1272 797 1263 811 1272 "},"ŵ":{"ha":1618,"x_min":0,"x_max":0,"o":"m 197 763 b 229 740 215 763 225 756 l 418 169 b 429 160 419 163 424 160 l 439 160 b 451 169 444 160 449 163 l 638 696 b 726 763 654 744 674 763 l 896 763 b 986 696 949 763 969 744 l 1168 169 b 1181 160 1169 163 1174 160 l 1189 160 b 1200 169 1194 160 1197 163 l 1394 740 b 1426 763 1399 756 1407 763 l 1571 763 b 1593 728 1592 763 1601 751 l 1371 86 b 1264 0 1349 21 1325 0 l 1094 0 b 1001 86 1043 0 1022 22 l 825 593 b 813 601 822 599 819 601 l 803 601 b 792 593 796 601 793 599 l 611 86 b 518 0 589 24 569 0 l 347 0 b 240 86 286 0 264 21 l 25 728 b 49 763 18 751 28 763 m 871 1133 b 931 1099 901 1133 917 1122 l 1078 847 b 1060 813 1089 828 1079 813 l 953 813 b 910 843 931 813 921 822 l 829 997 b 813 1010 825 1006 821 1010 l 806 1010 b 789 997 797 1010 793 1006 l 708 843 b 665 813 697 822 688 813 l 558 813 b 540 847 539 813 528 828 l 688 1099 b 747 1133 701 1122 718 1133 "},"Ŷ":{"ha":1246,"x_min":0,"x_max":0,"o":"m 228 972 b 261 956 244 972 253 968 l 626 471 l 993 956 b 1026 972 1003 968 1011 972 l 1213 972 b 1225 944 1229 972 1235 958 l 726 297 l 726 31 b 694 0 726 11 715 0 l 546 0 b 514 31 525 0 514 11 l 514 297 l 19 944 b 33 972 10 958 17 972 m 683 1272 b 744 1243 714 1272 729 1263 l 892 1043 b 874 1015 903 1028 893 1015 l 767 1015 b 722 1040 744 1015 733 1024 l 643 1160 b 625 1171 638 1168 632 1171 l 619 1171 b 601 1160 610 1171 606 1168 l 521 1040 b 478 1015 510 1024 500 1015 l 371 1015 b 353 1043 351 1015 342 1028 l 500 1243 b 560 1272 515 1263 529 1272 "},"ŷ":{"ha":1153,"x_min":0,"x_max":0,"o":"m 1092 763 b 1110 728 1111 763 1119 744 l 576 -212 b 357 -307 540 -278 474 -307 l 260 -307 b 235 -282 243 -307 235 -299 l 235 -150 b 260 -125 235 -133 243 -125 l 360 -125 b 431 -93 397 -125 418 -117 l 496 21 b 399 81 447 24 421 39 l 24 728 b 42 763 14 744 22 763 l 203 763 b 236 743 219 763 229 757 l 544 207 b 583 175 557 186 563 178 l 906 743 b 939 763 914 757 922 763 m 639 1133 b 699 1099 669 1133 685 1122 l 846 847 b 828 813 857 828 847 813 l 721 813 b 678 843 699 813 689 822 l 597 997 b 581 1010 593 1006 589 1010 l 574 1010 b 557 997 565 1010 561 1006 l 476 843 b 433 813 465 822 456 813 l 326 813 b 308 847 307 813 296 828 l 456 1099 b 515 1133 469 1122 486 1133 "},"Ÿ":{"ha":1246,"x_min":0,"x_max":0,"o":"m 228 972 b 261 956 244 972 253 968 l 626 471 l 993 956 b 1026 972 1003 968 1011 972 l 1213 972 b 1225 944 1229 972 1235 958 l 726 297 l 726 31 b 694 0 726 11 715 0 l 546 0 b 514 31 525 0 514 11 l 514 297 l 19 944 b 33 972 10 958 17 972 m 496 1229 b 528 1204 517 1229 528 1221 l 528 1072 b 496 1047 528 1056 517 1047 l 360 1047 b 329 1072 340 1047 329 1056 l 329 1204 b 360 1229 329 1221 340 1229 m 885 1229 b 915 1204 904 1229 915 1221 l 915 1072 b 885 1047 915 1056 904 1047 l 747 1047 b 717 1072 728 1047 717 1056 l 717 1204 b 747 1229 717 1221 728 1229 "},"Ź":{"ha":1186,"x_min":0,"x_max":0,"o":"m 1004 972 b 1115 867 1081 972 1114 939 l 1115 733 b 1046 615 1115 665 1103 643 l 311 239 b 299 218 301 235 299 228 l 299 207 b 313 196 299 200 304 196 l 1076 196 b 1107 165 1096 196 1107 185 l 1107 31 b 1076 0 1107 10 1096 0 l 176 0 b 67 106 101 0 67 33 l 67 240 b 132 357 67 308 76 331 l 864 733 b 876 754 872 739 876 744 l 876 765 b 863 776 876 772 871 776 l 107 776 b 76 807 86 776 76 788 l 76 942 b 107 972 76 963 86 972 m 768 1272 b 788 1246 788 1272 799 1264 l 647 1040 b 604 1015 635 1024 625 1015 l 499 1015 b 478 1042 476 1015 468 1025 l 601 1247 b 644 1272 611 1263 624 1272 "},"ź":{"ha":1018,"x_min":0,"x_max":0,"o":"m 861 763 b 957 676 928 763 957 735 l 957 549 b 894 450 957 490 944 468 l 278 210 b 267 190 269 207 267 200 l 267 181 b 279 171 267 174 271 171 l 925 171 b 950 146 942 171 950 163 l 950 25 b 925 0 950 8 942 0 l 157 0 b 61 86 90 0 61 26 l 61 215 b 124 314 61 274 74 294 l 740 553 b 751 572 749 556 751 561 l 751 582 b 739 592 751 588 747 592 l 93 592 b 68 617 76 592 68 600 l 68 738 b 93 763 68 754 76 763 m 685 1133 b 704 1100 706 1133 714 1119 l 561 844 b 519 813 547 819 538 813 l 414 813 b 393 846 392 813 383 826 l 518 1101 b 561 1133 529 1124 542 1133 "},"Ż":{"ha":1186,"x_min":0,"x_max":0,"o":"m 1004 972 b 1115 867 1081 972 1114 939 l 1115 733 b 1046 615 1115 665 1103 643 l 311 239 b 299 218 301 235 299 228 l 299 207 b 313 196 299 200 304 196 l 1076 196 b 1107 165 1096 196 1107 185 l 1107 31 b 1076 0 1107 10 1096 0 l 176 0 b 67 106 101 0 67 33 l 67 240 b 132 357 67 308 76 331 l 864 733 b 876 754 872 739 876 744 l 876 765 b 863 776 876 772 871 776 l 107 776 b 76 807 86 776 76 788 l 76 942 b 107 972 76 963 86 972 m 660 1229 b 692 1204 681 1229 692 1221 l 692 1072 b 660 1047 692 1056 681 1047 l 524 1047 b 493 1072 504 1047 493 1056 l 493 1204 b 524 1229 493 1221 504 1229 "},"ż":{"ha":1018,"x_min":0,"x_max":0,"o":"m 861 763 b 957 676 928 763 957 735 l 957 549 b 894 450 957 490 944 468 l 278 210 b 267 190 269 207 267 200 l 267 181 b 279 171 267 174 271 171 l 925 171 b 950 146 942 171 950 163 l 950 25 b 925 0 950 8 942 0 l 157 0 b 61 86 90 0 61 26 l 61 215 b 124 314 61 274 74 294 l 740 553 b 751 572 749 556 751 561 l 751 582 b 739 592 751 588 747 592 l 93 592 b 68 617 76 592 68 600 l 68 738 b 93 763 68 754 76 763 m 579 1044 b 610 1014 600 1044 610 1035 l 610 882 b 579 850 610 861 600 850 l 443 850 b 413 882 422 850 413 861 l 413 1014 b 443 1044 413 1035 422 1044 "},"Ž":{"ha":1186,"x_min":0,"x_max":0,"o":"m 1004 972 b 1115 867 1081 972 1114 939 l 1115 733 b 1046 615 1115 665 1103 643 l 311 239 b 299 218 301 235 299 228 l 299 207 b 313 196 299 200 304 196 l 1076 196 b 1107 165 1096 196 1107 185 l 1107 31 b 1076 0 1107 10 1096 0 l 176 0 b 67 106 101 0 67 33 l 67 240 b 132 357 67 308 76 331 l 864 733 b 876 754 872 739 876 744 l 876 765 b 863 776 876 772 871 776 l 107 776 b 76 807 86 776 76 788 l 76 942 b 107 972 76 963 86 972 m 447 1272 b 490 1247 469 1272 479 1264 l 571 1126 b 589 1117 575 1121 579 1117 l 594 1117 b 613 1126 601 1117 608 1121 l 692 1247 b 736 1272 703 1264 714 1272 l 843 1272 b 861 1244 863 1272 872 1260 l 714 1044 b 653 1015 699 1025 683 1015 l 529 1015 b 469 1044 499 1015 485 1025 l 322 1244 b 340 1272 311 1260 321 1272 "},"ž":{"ha":1018,"x_min":0,"x_max":0,"o":"m 861 763 b 957 676 928 763 957 735 l 957 549 b 894 450 957 490 944 468 l 278 210 b 267 190 269 207 267 200 l 267 181 b 279 171 267 174 271 171 l 925 171 b 950 146 942 171 950 163 l 950 25 b 925 0 950 8 942 0 l 157 0 b 61 86 90 0 61 26 l 61 215 b 124 314 61 274 74 294 l 740 553 b 751 572 749 556 751 561 l 751 582 b 739 592 751 588 747 592 l 93 592 b 68 617 76 592 68 600 l 68 738 b 93 763 68 754 76 763 m 364 1133 b 407 1103 386 1133 396 1124 l 488 949 b 503 936 492 940 496 936 l 511 936 b 528 949 519 936 524 940 l 608 1103 b 651 1133 619 1124 629 1133 l 758 1133 b 776 1099 778 1133 788 1118 l 629 847 b 569 813 615 824 600 813 l 446 813 b 386 847 417 813 400 824 l 239 1099 b 257 1133 226 1118 238 1133 "},"Ǝ":{"ha":1181,"x_min":0,"x_max":0,"o":"m 99 0 b 68 31 79 0 68 10 l 68 165 b 99 196 68 185 79 196 l 708 196 b 889 382 851 196 889 236 l 889 389 l 107 389 b 76 419 88 389 76 399 l 76 543 b 107 574 76 564 88 574 l 889 574 l 889 590 b 708 776 889 736 851 776 l 99 776 b 68 807 79 776 68 788 l 68 942 b 99 972 68 963 79 972 l 710 972 b 1099 606 992 972 1099 871 l 1099 367 b 710 0 1099 101 992 0 "},"Ə":{"ha":1329,"x_min":0,"x_max":0,"o":"m 860 972 b 1249 606 1142 972 1249 872 l 1249 367 b 860 0 1249 100 1142 0 l 340 0 b 76 244 160 0 76 86 l 76 346 b 326 603 76 511 156 603 l 1036 603 b 851 775 1032 735 988 775 l 146 775 b 114 806 125 775 114 785 l 114 942 b 146 972 114 963 125 972 m 851 196 b 1036 382 994 196 1036 236 l 1036 426 l 375 426 b 288 346 313 426 288 403 l 288 285 b 381 196 288 225 318 196 l 851 196 "},"ƒ":{"ha":922,"x_min":0,"x_max":0,"o":"m 832 972 b 857 947 849 972 857 964 l 857 815 b 832 790 857 799 849 790 l 649 790 b 535 696 556 790 535 771 l 535 554 l 844 554 b 869 529 861 554 869 546 l 869 456 b 844 431 869 439 861 431 l 535 431 l 535 -31 b 253 -307 535 -235 468 -307 l 83 -307 b 58 -282 67 -307 58 -299 l 58 -150 b 83 -125 58 -133 67 -125 l 211 -125 b 326 -31 306 -125 326 -106 l 326 431 l 79 431 b 54 456 63 431 54 439 l 54 529 b 79 554 54 546 63 554 l 326 554 l 326 696 b 608 972 326 900 393 972 "},"Ɣ":{"ha":1354,"x_min":0,"x_max":0,"o":"m 232 972 b 267 956 251 972 260 965 l 676 388 l 1088 956 b 1122 972 1094 965 1103 972 l 1313 972 b 1328 940 1333 972 1338 954 l 792 229 l 926 42 b 981 -119 971 -18 981 -46 l 981 -260 b 825 -378 981 -339 918 -378 l 529 -378 b 374 -260 436 -378 374 -339 l 374 -119 b 426 42 374 -44 383 -17 l 563 229 l 26 940 b 42 972 17 954 21 972 m 574 -60 b 549 -140 553 -87 549 -103 l 549 -165 b 588 -203 549 -192 558 -203 l 763 -203 b 806 -165 793 -203 806 -192 l 806 -140 b 779 -60 806 -104 800 -87 l 676 76 "},"Ɲ":{"ha":1357,"x_min":0,"x_max":0,"o":"m 878 972 b 1267 606 1160 972 1267 872 l 1267 31 b 1236 0 1267 10 1257 0 l 1085 0 b 1054 31 1065 0 1054 10 l 1054 585 b 871 775 1054 732 1014 775 l 486 775 b 301 585 343 775 301 732 l 301 -28 b -25 -307 301 -232 218 -307 l -139 -307 b -165 -282 -157 -307 -165 -299 l -165 -149 b -140 -124 -165 -132 -157 -124 l -50 -124 b 90 11 67 -124 90 -101 l 90 606 b 479 972 90 872 197 972 "},"Ơ":{"ha":1425,"x_min":0,"x_max":0,"o":"m 1442 1113 b 1472 1082 1461 1113 1472 1101 l 1472 960 b 1281 710 1472 804 1418 731 b 1288 606 1285 678 1288 643 l 1288 367 b 899 0 1288 100 1181 0 l 471 0 b 82 367 189 0 82 100 l 82 606 b 471 972 82 872 189 972 l 899 972 b 1235 846 1071 972 1176 935 b 1304 960 1285 856 1304 889 l 1304 1082 b 1335 1113 1304 1101 1314 1113 m 293 382 b 478 196 293 236 335 196 l 890 196 b 1075 382 1035 196 1075 236 l 1075 590 b 890 776 1075 736 1035 776 l 478 776 b 293 590 335 776 293 736 "},"ơ":{"ha":1300,"x_min":0,"x_max":0,"o":"m 1317 903 b 1347 872 1336 903 1347 893 l 1347 750 b 1129 499 1347 586 1288 514 b 1129 482 1129 493 1129 488 l 1129 281 b 799 0 1129 74 1042 0 l 406 0 b 76 281 163 0 76 74 l 76 482 b 406 763 76 689 163 763 l 799 763 b 1103 636 968 763 1061 726 b 1179 750 1160 646 1179 678 l 1179 872 b 1210 903 1179 893 1189 903 m 274 315 b 425 169 274 199 304 169 l 779 169 b 932 315 901 169 932 199 l 932 447 b 779 592 932 563 901 592 l 425 592 b 274 447 304 592 274 563 "},"Ư":{"ha":1535,"x_min":0,"x_max":0,"o":"m 1550 1113 b 1581 1082 1571 1113 1581 1101 l 1581 960 b 1300 704 1581 775 1504 704 l 1267 704 l 1267 367 b 878 0 1267 100 1160 0 l 479 0 b 90 367 197 0 90 100 l 90 942 b 121 972 90 963 100 972 l 271 972 b 301 942 292 972 301 963 l 301 388 b 486 197 301 240 343 197 l 871 197 b 1054 388 1014 197 1054 240 l 1054 942 b 1085 972 1054 963 1065 972 l 1236 972 b 1267 942 1257 972 1267 963 l 1267 843 l 1301 843 b 1413 960 1385 843 1413 872 l 1413 1082 b 1443 1113 1413 1101 1424 1113 "},"ư":{"ha":1368,"x_min":0,"x_max":0,"o":"m 1382 903 b 1414 872 1403 903 1414 893 l 1414 750 b 1133 494 1414 564 1338 494 l 1132 494 l 1132 281 b 801 0 1132 75 1047 0 l 414 0 b 85 281 169 0 85 75 l 85 732 b 115 763 85 751 94 763 l 251 763 b 282 732 272 763 282 751 l 282 328 b 425 176 282 206 310 176 l 782 176 b 935 328 901 176 935 210 l 935 732 b 965 763 935 751 946 763 l 1101 763 b 1132 732 1122 763 1132 751 l 1132 632 l 1133 632 b 1244 750 1217 632 1244 661 l 1244 872 b 1275 903 1244 893 1256 903 "},"ǝ":{"ha":1096,"x_min":0,"x_max":0,"o":"m 301 0 b 61 228 115 0 61 56 l 61 371 b 140 449 61 428 85 449 l 842 449 l 842 474 b 689 590 842 561 808 590 l 110 590 b 85 615 93 590 85 599 l 85 738 b 110 763 85 754 93 763 l 708 763 b 1039 482 954 763 1039 688 l 1039 281 b 708 0 1039 76 954 0 m 281 306 b 257 282 264 306 257 297 l 257 233 b 342 165 257 179 274 165 l 689 165 b 842 278 813 165 842 190 l 842 306 "},"ə":{"ha":1096,"x_min":0,"x_max":0,"o":"m 708 0 b 1039 281 954 0 1039 76 l 1039 482 b 708 763 1039 688 954 763 l 110 763 b 85 738 93 763 85 754 l 85 615 b 110 590 85 599 93 590 l 689 590 b 842 474 808 590 842 561 l 842 449 l 140 449 b 61 371 85 449 61 428 l 61 228 b 301 0 61 56 115 0 m 842 306 l 842 278 b 689 165 842 190 813 165 l 342 165 b 257 233 274 165 257 179 l 257 282 b 281 306 257 297 264 306 "},"Ǧ":{"ha":1286,"x_min":0,"x_max":0,"o":"m 1174 972 b 1204 942 1193 972 1204 963 l 1204 806 b 1174 775 1204 785 1193 775 l 478 775 b 293 585 335 775 293 732 l 293 385 b 478 196 293 238 335 196 l 936 196 b 1006 279 985 196 1006 217 l 1006 382 b 989 401 1006 396 1000 401 l 582 401 b 551 432 563 401 551 411 l 551 554 b 582 585 551 574 563 585 l 1161 585 b 1203 543 1189 585 1203 571 l 1203 213 b 1031 0 1203 57 1143 0 l 471 0 b 82 367 189 0 82 100 l 82 606 b 471 972 82 872 189 972 m 525 1272 b 568 1247 547 1272 557 1264 l 649 1126 b 667 1117 653 1121 657 1117 l 672 1117 b 690 1126 679 1117 686 1121 l 769 1247 b 814 1272 781 1264 792 1272 l 921 1272 b 939 1244 940 1272 950 1260 l 792 1044 b 731 1015 776 1025 761 1015 l 607 1015 b 547 1044 576 1015 563 1025 l 400 1244 b 418 1272 389 1260 399 1272 "},"ǧ":{"ha":1210,"x_min":0,"x_max":0,"o":"m 794 763 b 1125 482 1038 763 1125 688 l 1125 -24 b 794 -307 1125 -232 1039 -307 l 140 -307 b 115 -282 124 -307 115 -299 l 115 -160 b 140 -135 115 -143 124 -135 l 775 -135 b 928 15 896 -135 928 -106 l 928 36 l 406 36 b 76 333 168 36 76 121 l 76 479 b 406 763 76 688 163 763 m 461 1133 b 504 1103 483 1133 493 1124 l 585 949 b 600 936 589 940 593 936 l 608 936 b 625 949 617 936 621 940 l 706 1103 b 749 1133 717 1124 726 1133 l 856 1133 b 874 1099 875 1133 885 1118 l 726 847 b 667 813 713 824 697 813 l 543 813 b 483 847 514 813 497 824 l 336 1099 b 354 1133 324 1118 335 1133 m 274 336 b 425 203 274 235 311 203 l 928 203 l 928 464 b 775 592 928 565 894 592 l 425 592 b 274 468 307 592 274 565 l 274 336 "},"ǰ":{"ha":533,"x_min":0,"x_max":0,"o":"m 331 763 b 361 732 350 763 361 751 l 361 -28 b 44 -307 361 -232 281 -307 l -65 -307 b -90 -282 -82 -307 -90 -299 l -90 -160 b -65 -135 -90 -143 -82 -135 l 25 -135 b 163 11 136 -135 163 -106 l 163 732 b 194 763 163 751 174 763 m 114 1133 b 157 1103 136 1133 146 1124 l 238 949 b 253 936 242 940 246 936 l 261 936 b 278 949 269 936 274 940 l 358 1103 b 401 1133 369 1124 379 1133 l 508 1133 b 526 1099 528 1133 538 1118 l 379 847 b 319 813 365 824 350 813 l 196 813 b 136 847 167 813 150 824 l -11 1099 b 7 1133 -24 1118 -12 1133 "},"Ǵ":{"ha":1286,"x_min":0,"x_max":0,"o":"m 1174 972 b 1204 942 1193 972 1204 963 l 1204 806 b 1174 775 1204 785 1193 775 l 478 775 b 293 585 335 775 293 732 l 293 385 b 478 196 293 238 335 196 l 936 196 b 1006 279 985 196 1006 217 l 1006 382 b 989 401 1006 396 1000 401 l 582 401 b 551 432 563 401 551 411 l 551 554 b 582 585 551 574 563 585 l 1161 585 b 1203 543 1189 585 1203 571 l 1203 213 b 1031 0 1203 57 1143 0 l 471 0 b 82 367 189 0 82 100 l 82 606 b 471 972 82 872 189 972 m 854 1272 b 874 1246 874 1272 885 1264 l 733 1040 b 690 1015 721 1024 711 1015 l 585 1015 b 564 1042 563 1015 554 1025 l 688 1247 b 731 1272 697 1263 710 1272 "},"ǵ":{"ha":1210,"x_min":0,"x_max":0,"o":"m 794 763 b 1125 482 1038 763 1125 688 l 1125 -24 b 794 -307 1125 -232 1039 -307 l 140 -307 b 115 -282 124 -307 115 -299 l 115 -160 b 140 -135 115 -143 124 -135 l 775 -135 b 928 15 896 -135 928 -106 l 928 36 l 406 36 b 76 333 168 36 76 121 l 76 479 b 406 763 76 688 163 763 m 274 336 b 425 203 274 235 311 203 l 928 203 l 928 464 b 775 592 928 565 894 592 l 425 592 b 274 468 307 592 274 565 l 274 336 m 785 1133 b 804 1100 806 1133 814 1119 l 661 844 b 619 813 647 819 638 813 l 514 813 b 493 846 492 813 483 826 l 618 1101 b 661 1133 629 1124 642 1133 "},"Ǹ":{"ha":1358,"x_min":0,"x_max":0,"o":"m 342 972 b 503 890 442 972 458 951 l 1014 213 b 1032 203 1018 206 1024 203 l 1044 203 b 1056 217 1051 203 1056 207 l 1056 942 b 1086 972 1056 963 1065 972 l 1235 972 b 1265 942 1256 972 1265 963 l 1265 144 b 1140 0 1265 35 1228 0 l 1017 0 b 857 82 917 0 900 21 l 344 760 b 326 769 339 767 335 769 l 314 769 b 303 756 306 769 303 765 l 303 31 b 272 0 303 10 292 0 l 124 0 b 93 31 103 0 93 10 l 93 828 b 217 972 93 938 129 972 m 626 1272 b 669 1247 647 1272 660 1263 l 793 1042 b 774 1015 803 1025 794 1015 l 667 1015 b 625 1040 646 1015 636 1024 l 483 1246 b 504 1272 472 1264 485 1272 "},"ǹ":{"ha":1228,"x_min":0,"x_max":0,"o":"m 813 763 b 1143 482 1058 763 1143 686 l 1143 31 b 1113 0 1143 10 1133 0 l 976 0 b 946 31 957 0 946 10 l 946 433 b 803 586 946 557 918 586 l 433 586 b 282 433 314 586 282 551 l 282 31 b 251 0 282 10 272 0 l 115 0 b 85 31 94 0 85 10 l 85 482 b 414 763 85 686 169 763 m 560 1133 b 603 1101 582 1133 593 1121 l 729 846 b 708 813 739 825 729 813 l 601 813 b 560 844 581 813 572 824 l 417 1100 b 438 1133 404 1122 418 1133 "},"Ș":{"ha":1190,"x_min":0,"x_max":0,"o":"m 1057 972 b 1088 942 1076 972 1088 963 l 1088 807 b 1057 776 1088 788 1076 776 l 361 776 b 288 701 311 776 288 753 l 288 654 b 361 583 288 604 310 583 l 881 583 b 1124 339 1036 583 1124 494 l 1124 226 b 878 0 1124 83 1038 0 l 108 0 b 78 31 88 0 78 10 l 78 165 b 108 196 78 185 88 196 l 838 196 b 911 271 886 196 911 219 l 911 328 b 839 399 911 378 890 399 l 318 399 b 76 643 163 399 76 488 l 76 746 b 321 972 76 889 161 972 m 667 -57 b 692 -93 688 -57 697 -69 l 632 -346 b 597 -378 626 -368 617 -378 l 518 -378 b 486 -346 496 -378 485 -367 l 508 -89 b 542 -57 510 -68 522 -57 "},"ș":{"ha":1088,"x_min":0,"x_max":0,"o":"m 968 763 b 993 738 985 763 993 754 l 993 618 b 968 593 993 601 985 593 l 342 593 b 264 539 283 593 264 579 l 264 518 b 342 465 264 479 285 465 l 808 465 b 1025 272 956 465 1025 400 l 1025 194 b 807 0 1025 67 963 0 l 96 0 b 71 25 79 0 71 8 l 71 144 b 96 169 71 161 79 169 l 756 169 b 832 228 814 169 832 182 l 832 265 b 756 317 832 301 810 317 l 288 317 b 71 511 140 317 71 382 l 71 572 b 289 763 71 694 136 763 m 614 -57 b 639 -93 635 -57 644 -69 l 579 -346 b 544 -378 574 -368 564 -378 l 465 -378 b 433 -346 443 -378 432 -367 l 456 -89 b 489 -57 457 -68 469 -57 "},"Ț":{"ha":1213,"x_min":0,"x_max":0,"o":"m 1149 972 b 1181 942 1169 972 1181 963 l 1181 806 b 1149 775 1181 785 1169 775 l 711 775 l 711 31 b 682 0 711 10 703 0 l 531 0 b 500 31 511 0 500 10 l 500 775 l 63 775 b 32 806 43 775 32 785 l 32 942 b 63 972 32 963 43 972 m 661 -57 b 686 -93 682 -57 692 -69 l 626 -346 b 592 -378 621 -368 611 -378 l 513 -378 b 481 -346 490 -378 479 -367 l 503 -89 b 536 -57 504 -68 517 -57 "},"ț":{"ha":701,"x_min":0,"x_max":0,"o":"m 181 763 l 181 946 b 211 978 181 967 192 978 l 349 978 b 379 946 368 978 379 967 l 379 763 l 624 763 b 649 738 640 763 649 754 l 649 617 b 624 592 649 600 640 592 l 379 592 l 379 276 b 496 171 379 199 406 171 l 632 171 b 657 146 649 171 657 163 l 657 25 b 632 0 657 8 649 0 l 463 0 b 181 276 247 0 181 72 l 181 592 l 49 592 b 24 617 32 592 24 600 l 24 738 b 49 763 24 754 32 763 m 463 -57 b 488 -93 483 -57 493 -69 l 428 -346 b 393 -378 422 -368 413 -378 l 314 -378 b 282 -346 292 -378 281 -367 l 304 -89 b 338 -57 306 -68 318 -57 "},"ȷ":{"ha":392,"x_min":0,"x_max":0,"o":"m 275 763 b 306 732 294 763 306 751 l 306 -28 b -11 -307 306 -232 225 -307 l -121 -307 b -146 -282 -137 -307 -146 -299 l -146 -160 b -121 -135 -146 -143 -137 -135 l -31 -135 b 107 11 81 -135 107 -106 l 107 732 b 139 763 107 751 118 763 "},"Ɂ":{"ha":765,"x_min":0,"x_max":0,"o":"m 528 972 b 722 781 660 972 722 908 l 722 710 b 593 500 722 596 692 553 l 471 435 b 428 357 439 418 428 399 l 428 31 b 397 0 428 10 418 0 l 254 0 b 224 31 233 0 224 10 l 224 385 b 288 525 224 467 239 500 l 475 624 b 521 697 508 640 521 660 l 521 735 b 457 786 521 774 506 786 l 54 786 b 24 817 35 786 24 796 l 24 942 b 54 972 24 963 35 972 "},"ɂ":{"ha":765,"x_min":0,"x_max":0,"o":"m 528 763 b 722 576 658 763 722 700 l 722 514 b 593 315 722 407 693 368 l 468 249 b 426 176 436 232 426 215 l 426 31 b 396 0 426 10 417 0 l 260 0 b 229 31 239 0 229 10 l 229 199 b 293 332 229 276 244 306 l 475 429 b 521 496 511 449 521 463 l 521 531 b 457 586 521 569 501 586 l 54 586 b 24 617 35 586 24 597 l 24 732 b 54 763 24 751 35 763 "},"Ɍ":{"ha":1322,"x_min":0,"x_max":0,"o":"m 158 476 l 158 931 b 200 972 158 958 172 972 l 944 972 b 1243 688 1151 972 1243 879 l 1243 607 b 1042 324 1243 446 1179 351 l 1274 36 b 1256 0 1285 22 1278 0 l 1069 0 b 1031 18 1047 0 1040 6 l 810 300 l 369 300 l 369 31 b 339 0 369 10 360 0 l 189 0 b 158 31 168 0 158 10 l 158 307 l 40 307 b 4 344 15 307 4 319 l 4 439 b 40 476 4 464 15 476 m 901 483 b 1031 600 996 483 1031 517 l 1031 658 b 901 778 1031 743 994 778 l 388 778 b 369 763 375 778 369 774 l 369 483 "},"ɍ":{"ha":928,"x_min":0,"x_max":0,"o":"m 161 388 l 161 482 b 490 763 161 686 246 763 l 879 763 b 904 738 896 763 904 754 l 904 615 b 879 590 904 599 896 590 l 510 590 b 358 443 389 590 358 560 l 358 388 l 707 388 b 738 357 728 388 738 378 l 738 276 b 707 246 738 256 728 246 l 358 246 l 358 31 b 328 0 358 10 349 0 l 192 0 b 161 31 171 0 161 10 l 161 246 l 56 246 b 25 276 35 246 25 256 l 25 357 b 56 388 25 378 35 388 "},"ɣ":{"ha":1153,"x_min":0,"x_max":0,"o":"m 219 763 b 251 747 235 763 243 757 l 576 308 l 906 747 b 938 763 914 757 924 763 l 1115 763 b 1129 735 1132 763 1138 744 l 686 160 l 792 18 b 844 -124 832 -37 844 -62 l 844 -272 b 706 -378 844 -342 788 -378 l 443 -378 b 304 -272 361 -378 304 -342 l 304 -125 b 358 17 304 -64 317 -39 l 468 163 l 24 735 b 38 763 15 744 21 763 m 488 -97 b 467 -157 472 -118 467 -132 l 467 -185 b 513 -224 467 -217 474 -224 l 636 -224 b 682 -185 676 -224 682 -218 l 682 -157 b 661 -86 682 -124 676 -107 l 578 21 "},"ɲ":{"ha":1321,"x_min":0,"x_max":0,"o":"m 907 763 b 1238 482 1150 763 1238 689 l 1238 31 b 1207 0 1238 10 1226 0 l 1069 0 b 1039 31 1050 0 1039 10 l 1039 433 b 896 586 1039 557 1011 586 l 528 586 b 376 433 410 586 376 553 l 376 -28 b 58 -307 376 -235 293 -307 l -51 -307 b -76 -282 -68 -307 -76 -299 l -76 -160 b -51 -135 -76 -143 -68 -135 l 39 -135 b 178 11 150 -135 178 -106 l 178 482 b 508 763 178 689 265 763 "},"ˆ":{"ha":668,"x_min":0,"x_max":0,"o":"m 396 1133 b 456 1099 426 1133 442 1122 l 603 847 b 585 813 614 828 604 813 l 478 813 b 435 843 456 813 446 822 l 354 997 b 338 1010 350 1006 346 1010 l 331 1010 b 314 997 322 1010 318 1006 l 233 843 b 190 813 222 822 213 813 l 83 813 b 65 847 64 813 53 828 l 213 1099 b 272 1133 226 1122 243 1133 "},"ˇ":{"ha":668,"x_min":0,"x_max":0,"o":"m 190 1133 b 233 1103 213 1133 222 1124 l 314 949 b 329 936 318 940 322 936 l 338 936 b 354 949 346 936 350 940 l 435 1103 b 478 1133 446 1124 456 1133 l 585 1133 b 603 1099 604 1133 614 1118 l 456 847 b 396 813 442 824 426 813 l 272 813 b 213 847 243 813 226 824 l 65 1099 b 83 1133 53 1118 64 1133 "},"˘":{"ha":840,"x_min":0,"x_max":0,"o":"m 88 1076 b 113 1108 88 1094 96 1108 b 147 1092 122 1108 133 1103 b 419 985 178 1067 278 985 b 693 1092 563 985 663 1067 b 728 1108 707 1103 718 1108 b 753 1076 744 1108 753 1094 l 753 1004 b 726 947 753 985 750 968 b 419 850 675 906 554 850 b 114 947 286 850 165 906 b 88 1004 90 968 88 985 "},"˙":{"ha":372,"x_min":0,"x_max":0,"o":"m 254 1044 b 285 1014 275 1044 285 1035 l 285 882 b 254 850 285 861 275 850 l 118 850 b 88 882 97 850 88 861 l 88 1014 b 118 1044 88 1035 97 1044 "},"˚":{"ha":615,"x_min":0,"x_max":0,"o":"m 386 1133 b 528 999 489 1133 528 1096 l 528 911 b 386 776 528 814 489 776 l 231 776 b 88 911 126 776 88 814 l 88 999 b 231 1133 88 1096 126 1133 m 206 938 b 265 878 206 892 218 878 l 350 878 b 410 938 397 878 410 892 l 410 971 b 350 1032 410 1018 397 1032 l 265 1032 b 206 971 218 1032 206 1018 "},"˛":{"ha":579,"x_min":0,"x_max":0,"o":"m 301 0 l 492 0 l 321 -82 b 251 -165 261 -110 251 -125 b 325 -215 251 -206 265 -215 l 443 -215 b 468 -240 460 -215 468 -224 l 468 -353 b 443 -378 468 -369 460 -378 l 265 -378 b 88 -207 129 -378 88 -339 b 186 -44 88 -115 108 -74 "},"˜":{"ha":888,"x_min":0,"x_max":0,"o":"m 113 836 b 88 879 92 836 88 846 b 260 1090 88 1039 135 1090 b 490 1007 354 1090 422 1065 b 596 968 524 979 546 968 b 663 1061 653 968 663 986 b 701 1094 664 1085 676 1094 l 775 1094 b 800 1051 796 1094 800 1085 b 628 840 800 892 753 840 b 397 924 533 840 465 865 b 292 961 365 951 342 961 b 225 869 233 961 225 944 b 186 836 224 846 211 836 "},"˝":{"ha":864,"x_min":0,"x_max":0,"o":"m 417 1133 b 438 1100 439 1133 447 1119 l 294 844 b 251 813 281 819 269 813 l 146 813 b 125 846 125 813 115 826 l 251 1101 b 294 1133 261 1124 275 1133 m 733 1133 b 754 1100 756 1133 764 1119 l 611 844 b 568 813 597 819 586 813 l 464 813 b 442 846 442 813 432 826 l 568 1101 b 611 1133 578 1124 592 1133 "},"̀":{"ha":0,"x_min":0,"x_max":0,"o":"m -665 1133 b -622 1101 -643 1133 -632 1121 l -496 846 b -517 813 -486 825 -496 813 l -624 813 b -665 844 -644 813 -653 824 l -808 1100 b -787 1133 -821 1122 -807 1133 "},"́":{"ha":0,"x_min":0,"x_max":0,"o":"m -435 1133 b -415 1100 -414 1133 -406 1119 l -558 844 b -600 813 -572 819 -582 813 l -706 813 b -726 846 -728 813 -736 826 l -601 1101 b -558 1133 -590 1124 -578 1133 "},"̂":{"ha":0,"x_min":0,"x_max":0,"o":"m -550 1133 b -490 1099 -519 1133 -504 1122 l -343 847 b -361 813 -332 828 -342 813 l -468 813 b -511 843 -490 813 -500 822 l -592 997 b -608 1010 -596 1006 -600 1010 l -615 1010 b -632 997 -624 1010 -628 1006 l -712 843 b -756 813 -724 822 -733 813 l -862 813 b -881 847 -882 813 -893 828 l -733 1099 b -674 1133 -719 1122 -703 1133 "},"̃":{"ha":0,"x_min":0,"x_max":0,"o":"m -943 836 b -968 879 -964 836 -968 846 b -796 1090 -968 1039 -921 1090 b -565 1007 -701 1090 -633 1065 b -460 968 -532 979 -510 968 b -393 1061 -403 968 -393 986 b -354 1094 -392 1085 -379 1094 l -281 1094 b -256 1051 -260 1094 -256 1085 b -428 840 -256 892 -303 840 b -658 924 -522 840 -590 865 b -764 961 -690 951 -714 961 b -831 869 -822 961 -831 944 b -869 836 -832 846 -844 836 "},"̄":{"ha":0,"x_min":0,"x_max":0,"o":"m -286 1019 b -256 989 -265 1019 -256 1010 l -256 908 b -286 878 -256 888 -265 878 l -937 878 b -968 908 -958 878 -968 888 l -968 989 b -937 1019 -968 1010 -958 1019 "},"̆":{"ha":0,"x_min":0,"x_max":0,"o":"m -944 1076 b -919 1108 -944 1094 -936 1108 b -885 1092 -910 1108 -899 1103 b -612 985 -854 1067 -754 985 b -339 1092 -469 985 -369 1067 b -304 1108 -325 1103 -314 1108 b -279 1076 -287 1108 -279 1094 l -279 1004 b -306 947 -279 985 -282 968 b -612 850 -357 906 -478 850 b -918 947 -746 850 -867 906 b -944 1004 -942 968 -944 985 "},"̇":{"ha":0,"x_min":0,"x_max":0,"o":"m -543 1044 b -512 1014 -522 1044 -512 1035 l -512 882 b -543 850 -512 861 -522 850 l -679 850 b -710 882 -700 850 -710 861 l -710 1014 b -679 1044 -710 1035 -700 1044 "},"̈":{"ha":0,"x_min":0,"x_max":0,"o":"m -737 1044 b -707 1014 -717 1044 -707 1035 l -707 882 b -737 850 -707 861 -717 850 l -874 850 b -904 882 -894 850 -904 861 l -904 1014 b -874 1044 -904 1035 -894 1044 m -350 1044 b -319 1014 -329 1044 -319 1035 l -319 882 b -350 850 -319 861 -329 850 l -486 850 b -517 882 -507 850 -517 861 l -517 1014 b -486 1044 -517 1035 -507 1044 "},"̉":{"ha":0,"x_min":0,"x_max":0,"o":"m -487 1133 b -385 1033 -418 1133 -385 1100 l -385 994 b -440 888 -385 936 -401 914 l -540 818 b -581 807 -554 808 -564 807 l -681 807 b -689 838 -701 807 -700 829 l -528 953 b -515 979 -518 960 -515 967 l -515 993 b -532 1010 -515 1004 -521 1010 l -801 1010 b -822 1029 -815 1010 -822 1014 l -822 1113 b -801 1133 -822 1126 -815 1133 "},"̊":{"ha":0,"x_min":0,"x_max":0,"o":"m -533 1133 b -390 999 -431 1133 -390 1096 l -390 911 b -533 776 -390 814 -431 776 l -689 776 b -832 911 -793 776 -832 814 l -832 999 b -689 1133 -832 1096 -793 1133 m -714 928 b -671 881 -714 890 -706 881 l -551 881 b -508 928 -518 881 -508 892 l -508 981 b -551 1028 -508 1018 -517 1028 l -671 1028 b -714 981 -703 1028 -714 1015 "},"̋":{"ha":0,"x_min":0,"x_max":0,"o":"m -594 1133 b -574 1100 -572 1133 -564 1119 l -717 844 b -760 813 -731 819 -742 813 l -865 813 b -886 846 -886 813 -896 826 l -760 1101 b -717 1133 -750 1124 -736 1133 m -278 1133 b -257 1100 -256 1133 -247 1119 l -400 844 b -443 813 -414 819 -425 813 l -547 813 b -569 846 -569 813 -579 826 l -443 1101 b -400 1133 -433 1124 -419 1133 "},"̌":{"ha":0,"x_min":0,"x_max":0,"o":"m -756 1133 b -712 1103 -733 1133 -724 1124 l -632 949 b -617 936 -628 940 -624 936 l -608 936 b -592 949 -600 936 -596 940 l -511 1103 b -468 1133 -500 1124 -490 1133 l -361 1133 b -343 1099 -342 1133 -332 1118 l -490 847 b -550 813 -504 824 -519 813 l -674 813 b -733 847 -703 813 -719 824 l -881 1099 b -862 1133 -893 1118 -882 1133 "},"̓":{"ha":0,"x_min":0,"x_max":0,"o":"m -532 1133 b -500 1100 -510 1133 -499 1121 l -521 844 b -556 813 -522 825 -536 813 l -681 813 b -706 847 -701 813 -711 825 l -646 1101 b -611 1133 -640 1122 -631 1133 "},"̛":{"ha":108,"x_min":0,"x_max":0,"o":"m 103 903 b 135 872 124 903 135 893 l 135 750 b -146 494 135 569 64 494 l -229 494 b -254 519 -246 494 -254 503 l -254 607 b -229 632 -254 624 -246 632 l -146 632 b -35 750 -61 632 -35 663 l -35 872 b -4 903 -35 893 -24 903 "},"̣":{"ha":0,"x_min":0,"x_max":0,"o":"m -544 -100 b -512 -125 -524 -100 -512 -108 l -512 -257 b -544 -282 -512 -274 -524 -282 l -681 -282 b -711 -257 -700 -282 -711 -274 l -711 -125 b -681 -100 -711 -108 -700 -100 "},"̦":{"ha":0,"x_min":0,"x_max":0,"o":"m -535 -57 b -510 -93 -514 -57 -504 -69 l -569 -346 b -604 -378 -575 -368 -585 -378 l -683 -378 b -715 -346 -706 -378 -717 -367 l -693 -89 b -660 -57 -692 -68 -679 -57 "},"̨":{"ha":0,"x_min":0,"x_max":0,"o":"m -608 0 l -418 0 l -589 -82 b -658 -165 -649 -110 -658 -125 b -585 -215 -658 -206 -644 -215 l -467 -215 b -442 -240 -450 -215 -442 -224 l -442 -353 b -467 -378 -442 -369 -450 -378 l -644 -378 b -822 -207 -781 -378 -822 -339 b -724 -44 -822 -115 -801 -74 "},"̭":{"ha":0,"x_min":0,"x_max":0,"o":"m -550 -79 b -489 -108 -519 -79 -504 -89 l -342 -308 b -360 -336 -331 -324 -340 -336 l -467 -336 b -511 -311 -489 -336 -500 -328 l -590 -192 b -608 -181 -596 -183 -601 -181 l -614 -181 b -632 -192 -624 -181 -628 -183 l -712 -311 b -756 -336 -724 -328 -733 -336 l -862 -336 b -881 -308 -882 -336 -892 -324 l -733 -108 b -674 -79 -718 -89 -704 -79 "},"΄":{"ha":485,"x_min":0,"x_max":0,"o":"m 374 1133 b 393 1100 393 1133 404 1122 l 258 844 b 217 813 247 824 238 813 l 111 813 b 90 846 90 813 81 825 l 207 1101 b 251 1133 217 1121 231 1133 "},"΅":{"ha":940,"x_min":0,"x_max":0,"o":"m 615 1133 b 635 1100 635 1133 646 1122 l 500 844 b 458 813 489 824 479 813 l 353 813 b 332 846 332 813 322 825 l 449 1101 b 493 1133 458 1121 472 1133 m 828 1044 b 858 1014 849 1044 858 1035 l 858 882 b 828 850 858 861 849 850 l 692 850 b 661 882 671 850 661 861 l 661 1014 b 692 1044 661 1035 671 1044 m 254 1044 b 285 1014 275 1044 285 1035 l 285 882 b 254 850 285 861 275 850 l 118 850 b 88 882 97 850 88 861 l 88 1014 b 118 1044 88 1035 97 1044 "},"Ά":{"ha":1482,"x_min":0,"x_max":0,"o":"m 836 972 b 996 867 908 972 950 951 l 1456 32 b 1439 0 1465 13 1461 0 l 1263 0 b 1231 17 1244 0 1236 4 l 1139 186 l 474 186 l 383 17 b 351 0 376 4 369 0 l 169 0 b 153 32 147 0 143 13 l 608 867 b 754 972 653 951 696 972 m 1040 367 l 825 765 b 808 775 821 772 815 775 l 800 775 b 785 765 793 775 789 772 l 571 367 m 381 1133 b 400 1100 400 1133 411 1122 l 265 844 b 224 813 254 824 244 813 l 118 813 b 97 846 97 813 88 825 l 214 1101 b 258 1133 224 1121 238 1133 "},"·":{"ha":372,"x_min":0,"x_max":0,"o":"m 254 692 b 285 661 275 692 285 682 l 285 528 b 254 497 285 507 275 497 l 118 497 b 88 528 97 497 88 507 l 88 661 b 118 692 88 682 97 692 "},"Έ":{"ha":1454,"x_min":0,"x_max":0,"o":"m 1356 972 b 1386 942 1375 972 1386 963 l 1386 807 b 1356 776 1386 788 1375 776 l 746 776 b 565 590 603 776 565 736 l 565 583 l 1347 583 b 1378 553 1367 583 1378 574 l 1378 429 b 1347 399 1378 408 1367 399 l 565 399 l 565 382 b 746 196 565 236 603 196 l 1356 196 b 1386 165 1375 196 1386 185 l 1386 31 b 1356 0 1386 10 1375 0 l 744 0 b 356 367 463 0 356 101 l 356 606 b 744 972 356 871 463 972 m 374 1133 b 393 1100 393 1133 404 1122 l 258 844 b 217 813 247 824 238 813 l 111 813 b 90 846 90 813 81 825 l 207 1101 b 251 1133 217 1121 231 1133 "},"Ή":{"ha":1631,"x_min":0,"x_max":0,"o":"m 1507 972 b 1539 942 1528 972 1539 963 l 1539 31 b 1507 0 1539 10 1528 0 l 1357 0 b 1326 31 1338 0 1326 10 l 1326 396 l 676 396 l 676 31 b 646 0 676 10 667 0 l 496 0 b 465 31 475 0 465 10 l 465 942 b 496 972 465 963 475 972 l 646 972 b 676 942 667 972 676 963 l 676 585 l 1326 585 l 1326 942 b 1357 972 1326 963 1338 972 m 374 1133 b 393 1100 393 1133 404 1122 l 258 844 b 217 813 247 824 238 813 l 111 813 b 90 846 90 813 81 825 l 207 1101 b 251 1133 217 1121 231 1133 "},"Ί":{"ha":844,"x_min":0,"x_max":0,"o":"m 647 972 b 678 942 668 972 678 963 l 678 31 b 647 0 678 10 668 0 l 497 0 b 467 31 476 0 467 10 l 467 942 b 497 972 467 963 476 972 m 374 1133 b 393 1100 393 1133 404 1122 l 258 844 b 217 813 247 824 238 813 l 111 813 b 90 846 90 813 81 825 l 207 1101 b 251 1133 217 1121 231 1133 "},"Ό":{"ha":1642,"x_min":0,"x_max":0,"o":"m 1172 972 b 1561 606 1454 972 1561 872 l 1561 367 b 1172 0 1561 100 1454 0 l 744 0 b 356 367 463 0 356 101 l 356 606 b 744 972 356 871 463 972 m 567 382 b 751 196 567 236 607 196 l 1164 196 b 1349 382 1308 196 1349 236 l 1349 590 b 1164 776 1349 736 1308 776 l 751 776 b 567 590 607 776 567 736 m 374 1133 b 393 1100 393 1133 404 1122 l 258 844 b 217 813 247 824 238 813 l 111 813 b 90 846 90 813 81 825 l 207 1101 b 251 1133 217 1121 231 1133 "},"Ύ":{"ha":1672,"x_min":0,"x_max":0,"o":"m 656 972 b 689 956 672 972 681 968 l 1054 471 l 1421 956 b 1454 972 1431 968 1439 972 l 1640 972 b 1653 944 1657 972 1663 958 l 1154 297 l 1154 31 b 1122 0 1154 11 1143 0 l 974 0 b 942 31 953 0 942 11 l 942 297 l 447 944 b 461 972 438 958 444 972 m 374 1133 b 393 1100 393 1133 404 1122 l 258 844 b 217 813 247 824 238 813 l 111 813 b 90 846 90 813 81 825 l 207 1101 b 251 1133 217 1121 231 1133 "},"Ώ":{"ha":1656,"x_min":0,"x_max":0,"o":"m 1247 972 b 1575 668 1476 972 1575 876 l 1575 568 b 1406 315 1575 454 1519 376 l 1263 240 b 1249 221 1251 235 1249 231 l 1249 207 b 1263 196 1249 200 1254 196 l 1536 196 b 1567 165 1557 196 1567 185 l 1567 31 b 1536 0 1567 10 1557 0 l 1090 0 b 1031 56 1047 0 1031 15 l 1031 210 b 1089 319 1031 271 1044 294 l 1283 422 b 1363 536 1342 454 1363 479 l 1363 640 b 1217 776 1363 739 1324 776 l 726 776 b 581 640 619 776 581 739 l 581 536 b 661 422 581 479 601 454 l 854 319 b 913 210 899 294 913 271 l 913 56 b 853 0 913 15 896 0 l 408 0 b 378 31 388 0 378 10 l 378 165 b 408 196 378 185 388 196 l 682 196 b 694 207 690 196 694 200 l 694 221 b 682 240 694 231 692 235 l 538 315 b 369 568 424 376 369 453 l 369 668 b 696 972 369 876 467 972 m 374 1133 b 393 1100 393 1133 404 1122 l 258 844 b 217 813 247 824 238 813 l 111 813 b 90 846 90 813 81 825 l 207 1101 b 251 1133 217 1121 231 1133 "},"ΐ":{"ha":825,"x_min":0,"x_max":0,"o":"m 406 763 b 436 732 426 763 436 751 l 436 276 b 553 171 436 199 464 171 l 672 171 b 697 146 689 171 697 163 l 697 25 b 672 0 697 8 689 0 l 519 0 b 239 276 306 0 239 72 l 239 732 b 269 763 239 751 249 763 m 176 1044 b 207 1014 197 1044 207 1035 l 207 882 b 176 850 207 861 197 850 l 40 850 b 10 882 19 850 10 861 l 10 1014 b 40 1044 10 1035 19 1044 m 538 1133 b 557 1100 557 1133 568 1122 l 422 844 b 381 813 411 824 401 813 l 275 813 b 254 846 254 813 244 825 l 371 1101 b 415 1133 381 1121 394 1133 m 750 1044 b 781 1014 771 1044 781 1035 l 781 882 b 750 850 781 861 771 850 l 614 850 b 583 882 593 850 583 861 l 583 1014 b 614 1044 583 1035 593 1044 "},"Α":{"ha":1354,"x_min":0,"x_max":0,"o":"m 708 972 b 868 867 781 972 822 951 l 1328 32 b 1311 0 1338 13 1333 0 l 1135 0 b 1103 17 1117 0 1108 4 l 1011 186 l 346 186 l 256 17 b 224 0 249 4 242 0 l 42 0 b 25 32 19 0 15 13 l 481 867 b 626 972 525 951 568 972 m 913 367 l 697 765 b 681 775 693 772 688 775 l 672 775 b 657 765 665 775 661 772 l 443 367 "},"Β":{"ha":1276,"x_min":0,"x_max":0,"o":"m 933 972 b 1197 743 1121 972 1197 901 l 1197 676 b 1110 501 1197 597 1167 539 b 1204 321 1174 464 1204 404 l 1204 240 b 958 0 1204 83 1133 0 l 135 0 b 93 42 107 0 93 14 l 93 931 b 135 972 93 958 107 972 m 304 214 b 322 194 304 200 310 194 l 892 194 b 994 282 963 194 994 221 l 994 328 b 874 408 994 388 964 408 l 304 408 m 874 576 b 993 650 964 576 993 596 l 993 692 b 890 778 993 750 961 778 l 322 778 b 304 758 310 778 304 772 l 304 576 "},"Γ":{"ha":1113,"x_min":0,"x_max":0,"o":"m 1049 972 b 1079 942 1068 972 1079 963 l 1079 806 b 1049 775 1079 785 1068 775 l 486 775 b 301 585 343 775 301 732 l 301 31 b 271 0 301 10 292 0 l 121 0 b 90 31 100 0 90 10 l 90 606 b 479 972 90 871 197 972 "},"Δ":{"ha":1354,"x_min":0,"x_max":0,"o":"m 708 972 b 868 867 781 972 822 951 l 1328 32 b 1311 0 1338 14 1333 0 l 42 0 b 25 32 19 0 15 14 l 481 867 b 635 972 526 951 575 972 m 358 218 b 372 197 351 207 358 197 l 985 197 b 997 219 999 197 1004 207 l 697 765 b 681 775 693 772 688 775 l 672 775 b 657 765 665 775 661 772 "},"Ε":{"ha":1181,"x_min":0,"x_max":0,"o":"m 1082 972 b 1113 942 1101 972 1113 963 l 1113 807 b 1082 776 1113 788 1101 776 l 472 776 b 292 590 329 776 292 736 l 292 583 l 1074 583 b 1104 553 1093 583 1104 574 l 1104 429 b 1074 399 1104 408 1093 399 l 292 399 l 292 382 b 472 196 292 236 329 196 l 1082 196 b 1113 165 1101 196 1113 185 l 1113 31 b 1082 0 1113 10 1101 0 l 471 0 b 82 367 189 0 82 101 l 82 606 b 471 972 82 871 189 972 "},"Ζ":{"ha":1186,"x_min":0,"x_max":0,"o":"m 1004 972 b 1115 867 1081 972 1114 939 l 1115 733 b 1046 615 1115 665 1103 643 l 311 239 b 299 218 301 235 299 228 l 299 207 b 313 196 299 200 304 196 l 1076 196 b 1107 165 1096 196 1107 185 l 1107 31 b 1076 0 1107 10 1096 0 l 176 0 b 67 106 101 0 67 33 l 67 240 b 132 357 67 308 76 331 l 864 733 b 876 754 872 739 876 744 l 876 765 b 863 776 876 772 871 776 l 107 776 b 76 807 86 776 76 788 l 76 942 b 107 972 76 963 86 972 "},"Η":{"ha":1258,"x_min":0,"x_max":0,"o":"m 1135 972 b 1167 942 1156 972 1167 963 l 1167 31 b 1135 0 1167 10 1156 0 l 985 0 b 954 31 965 0 954 10 l 954 396 l 304 396 l 304 31 b 274 0 304 10 294 0 l 124 0 b 93 31 103 0 93 10 l 93 942 b 124 972 93 963 103 972 l 274 972 b 304 942 294 972 304 963 l 304 585 l 954 585 l 954 942 b 985 972 954 963 965 972 "},"Θ":{"ha":1369,"x_min":0,"x_max":0,"o":"m 950 574 b 981 543 971 574 981 564 l 981 439 b 950 408 981 418 971 408 l 418 408 b 388 439 397 408 388 418 l 388 543 b 418 574 388 564 397 574 m 899 972 b 1288 606 1181 972 1288 872 l 1288 367 b 899 0 1288 100 1181 0 l 471 0 b 82 367 189 0 82 100 l 82 606 b 471 972 82 872 189 972 m 292 378 b 472 193 292 231 329 193 l 896 193 b 1078 378 1039 193 1078 231 l 1078 594 b 896 779 1078 742 1039 779 l 472 779 b 292 594 329 779 292 742 "},"Ι":{"ha":397,"x_min":0,"x_max":0,"o":"m 274 972 b 304 942 294 972 304 963 l 304 31 b 274 0 304 10 294 0 l 124 0 b 93 31 103 0 93 10 l 93 942 b 124 972 93 963 103 972 "},"Κ":{"ha":1186,"x_min":0,"x_max":0,"o":"m 274 972 b 304 942 294 972 304 963 l 304 579 l 497 579 b 651 635 592 579 615 588 l 893 954 b 933 972 903 968 910 972 l 1107 972 b 1124 939 1128 972 1135 953 l 854 590 b 771 497 824 550 797 519 b 876 397 808 474 842 442 l 1161 36 b 1143 0 1172 25 1167 0 l 967 0 b 926 18 944 0 936 4 l 669 347 b 515 404 633 394 606 404 l 304 404 l 304 31 b 274 0 304 10 294 0 l 124 0 b 93 31 103 0 93 10 l 93 942 b 124 972 93 963 103 972 "},"Λ":{"ha":1354,"x_min":0,"x_max":0,"o":"m 1132 0 b 1100 18 1114 0 1107 4 l 696 765 b 679 775 692 772 686 775 l 672 775 b 656 765 665 775 660 772 l 254 18 b 222 0 247 4 240 0 l 43 0 b 26 32 21 0 17 14 l 481 867 b 628 972 526 951 569 972 l 710 972 b 869 867 782 972 825 951 l 1329 32 b 1313 0 1339 14 1335 0 "},"Μ":{"ha":1658,"x_min":0,"x_max":0,"o":"m 371 972 b 519 867 453 972 483 956 l 804 200 b 824 188 808 192 815 188 l 840 188 b 860 200 850 188 857 192 l 1143 867 b 1290 972 1178 956 1207 972 l 1444 972 b 1567 828 1540 972 1567 936 l 1567 31 b 1535 0 1567 10 1556 0 l 1389 0 b 1358 31 1369 0 1358 10 l 1358 756 b 1349 769 1358 765 1356 769 l 1336 769 b 1317 758 1325 769 1319 767 l 1049 136 b 871 0 1007 32 961 0 l 792 0 b 614 136 701 0 657 32 l 343 758 b 325 769 339 767 335 769 l 313 769 b 300 756 304 769 300 765 l 300 31 b 269 0 300 10 290 0 l 124 0 b 93 31 103 0 93 10 l 93 828 b 214 972 93 938 118 972 "},"Ν":{"ha":1358,"x_min":0,"x_max":0,"o":"m 342 972 b 503 890 442 972 458 951 l 1014 213 b 1032 203 1018 206 1024 203 l 1044 203 b 1056 217 1051 203 1056 207 l 1056 942 b 1086 972 1056 963 1065 972 l 1235 972 b 1265 942 1256 972 1265 963 l 1265 144 b 1140 0 1265 35 1228 0 l 1017 0 b 857 82 917 0 900 21 l 344 760 b 326 769 339 767 335 769 l 314 769 b 303 756 306 769 303 765 l 303 31 b 272 0 303 10 292 0 l 124 0 b 93 31 103 0 93 10 l 93 828 b 217 972 93 938 129 972 "},"Ξ":{"ha":1181,"x_min":0,"x_max":0,"o":"m 1082 196 b 1113 165 1101 196 1113 185 l 1113 31 b 1082 0 1113 10 1101 0 l 100 0 b 69 31 79 0 69 10 l 69 165 b 100 196 69 185 79 196 m 1074 583 b 1104 553 1093 583 1104 574 l 1104 429 b 1074 399 1104 408 1093 399 l 108 399 b 78 429 88 399 78 408 l 78 553 b 108 583 78 574 88 583 m 1082 972 b 1113 942 1101 972 1113 963 l 1113 807 b 1082 776 1113 788 1101 776 l 100 776 b 69 807 79 776 69 788 l 69 942 b 100 972 69 963 79 972 "},"Ο":{"ha":1369,"x_min":0,"x_max":0,"o":"m 899 972 b 1288 606 1181 972 1288 872 l 1288 367 b 899 0 1288 100 1181 0 l 471 0 b 82 367 189 0 82 101 l 82 606 b 471 972 82 871 189 972 m 293 382 b 478 196 293 236 333 196 l 890 196 b 1075 382 1035 196 1075 236 l 1075 590 b 890 776 1075 736 1035 776 l 478 776 b 293 590 333 776 293 736 "},"Π":{"ha":1258,"x_min":0,"x_max":0,"o":"m 1038 972 b 1167 854 1131 972 1167 935 l 1167 31 b 1135 0 1167 10 1156 0 l 985 0 b 954 31 964 0 954 10 l 954 744 b 925 775 954 765 944 775 l 332 775 b 304 744 313 775 304 765 l 304 31 b 272 0 304 10 293 0 l 122 0 b 92 31 101 0 92 10 l 92 854 b 219 972 92 935 126 972 "},"Ρ":{"ha":1224,"x_min":0,"x_max":0,"o":"m 879 972 b 1178 688 1092 972 1178 874 l 1178 583 b 879 293 1178 396 1092 293 l 304 293 l 304 31 b 274 0 304 10 294 0 l 124 0 b 93 31 103 0 93 10 l 93 931 b 135 972 93 958 107 972 m 836 485 b 965 604 931 485 965 522 l 965 657 b 836 778 965 740 931 778 l 322 778 b 304 761 310 778 304 772 l 304 485 "},"Σ":{"ha":1168,"x_min":0,"x_max":0,"o":"m 1081 972 b 1111 942 1100 972 1111 963 l 1111 807 b 1081 776 1111 788 1100 776 l 367 776 b 353 765 358 776 353 772 l 353 754 b 365 735 353 744 357 738 l 782 590 b 842 521 829 575 842 561 l 842 449 b 782 379 842 408 829 394 l 365 238 b 353 218 357 235 353 228 l 353 207 b 367 196 353 200 358 196 l 1081 196 b 1111 165 1100 196 1111 185 l 1111 31 b 1081 0 1111 10 1100 0 l 182 0 b 72 106 107 0 72 33 l 72 203 b 144 322 72 275 86 301 l 554 463 b 564 479 561 465 564 471 l 564 489 b 554 506 564 500 561 504 l 144 651 b 72 771 85 671 72 700 l 72 867 b 182 972 72 939 107 972 "},"Τ":{"ha":1213,"x_min":0,"x_max":0,"o":"m 1149 972 b 1181 942 1169 972 1181 963 l 1181 806 b 1149 775 1181 785 1169 775 l 711 775 l 711 31 b 682 0 711 10 703 0 l 531 0 b 500 31 511 0 500 10 l 500 775 l 63 775 b 32 806 43 775 32 785 l 32 942 b 63 972 32 963 43 972 "},"Υ":{"ha":1246,"x_min":0,"x_max":0,"o":"m 228 972 b 261 956 244 972 253 968 l 626 471 l 993 956 b 1026 972 1003 968 1011 972 l 1213 972 b 1225 944 1229 972 1235 958 l 726 297 l 726 31 b 694 0 726 11 715 0 l 546 0 b 514 31 525 0 514 11 l 514 297 l 19 944 b 33 972 10 958 17 972 "},"Φ":{"ha":1369,"x_min":0,"x_max":0,"o":"m 756 972 b 786 942 776 972 786 963 l 786 854 l 899 854 b 1288 536 1176 854 1288 761 l 1288 450 b 899 132 1288 225 1176 132 l 786 132 l 786 31 b 756 0 786 10 776 0 l 611 0 b 579 31 590 0 579 10 l 579 132 l 471 132 b 82 450 192 132 82 225 l 82 536 b 471 854 82 761 192 854 l 579 854 l 579 942 b 611 972 579 963 590 972 m 293 460 b 478 322 293 356 335 322 l 579 322 l 579 664 l 478 664 b 293 526 335 664 293 631 m 786 322 l 890 322 b 1075 460 1035 322 1075 356 l 1075 526 b 890 664 1075 631 1035 664 l 786 664 "},"Χ":{"ha":1239,"x_min":0,"x_max":0,"o":"m 1174 972 b 1188 936 1199 972 1200 949 l 765 501 l 1207 36 b 1193 0 1219 24 1218 0 l 992 0 b 946 19 969 0 958 7 l 615 369 l 283 19 b 239 0 271 7 261 0 l 44 0 b 32 36 19 0 19 24 l 485 507 l 76 936 b 90 972 64 949 65 972 l 293 972 b 338 953 315 972 326 965 l 635 639 l 936 953 b 981 972 947 965 958 972 "},"Ψ":{"ha":1347,"x_min":0,"x_max":0,"o":"m 749 972 b 779 942 768 972 779 963 l 779 414 l 865 414 b 1049 597 1011 414 1049 454 l 1049 942 b 1079 972 1049 963 1060 972 l 1231 972 b 1261 942 1251 972 1261 963 l 1261 589 b 872 222 1261 322 1154 222 l 779 222 l 779 31 b 749 0 779 10 768 0 l 597 0 b 567 31 576 0 567 10 l 567 222 l 474 222 b 85 589 192 222 85 322 l 85 942 b 115 972 85 963 94 972 l 265 972 b 296 942 286 972 296 963 l 296 597 b 481 414 296 454 335 414 l 567 414 l 567 942 b 597 972 567 963 576 972 "},"Ω":{"ha":1369,"x_min":0,"x_max":0,"o":"m 960 972 b 1288 668 1189 972 1288 876 l 1288 568 b 1118 315 1288 454 1232 376 l 975 240 b 961 221 964 235 961 231 l 961 207 b 975 196 961 200 967 196 l 1249 196 b 1279 165 1269 196 1279 185 l 1279 31 b 1249 0 1279 10 1269 0 l 803 0 b 743 56 760 0 743 15 l 743 210 b 801 319 743 271 757 294 l 996 422 b 1075 536 1054 454 1075 479 l 1075 640 b 929 776 1075 739 1036 776 l 439 776 b 293 640 332 776 293 739 l 293 536 b 374 422 293 479 314 454 l 567 319 b 625 210 611 294 625 271 l 625 56 b 565 0 625 15 608 0 l 121 0 b 90 31 100 0 90 10 l 90 165 b 121 196 90 185 100 196 l 394 196 b 407 207 403 196 407 200 l 407 221 b 394 240 407 231 404 235 l 250 315 b 82 568 136 376 82 453 l 82 668 b 408 972 82 876 179 972 "},"Ϊ":{"ha":529,"x_min":0,"x_max":0,"o":"m 339 972 b 369 942 360 972 369 963 l 369 31 b 339 0 369 10 360 0 l 189 0 b 158 31 168 0 158 10 l 158 942 b 189 972 158 963 168 972 m 169 1229 b 201 1204 190 1229 201 1221 l 201 1072 b 169 1047 201 1056 190 1047 l 33 1047 b 3 1072 14 1047 3 1056 l 3 1204 b 33 1229 3 1221 14 1229 m 496 1229 b 528 1204 517 1229 528 1221 l 528 1072 b 496 1047 528 1056 517 1047 l 360 1047 b 329 1072 340 1047 329 1056 l 329 1204 b 360 1229 329 1221 340 1229 "},"Ϋ":{"ha":1246,"x_min":0,"x_max":0,"o":"m 228 972 b 261 956 244 972 253 968 l 626 471 l 993 956 b 1026 972 1003 968 1011 972 l 1213 972 b 1225 944 1229 972 1235 958 l 726 297 l 726 31 b 694 0 726 11 715 0 l 546 0 b 514 31 525 0 514 11 l 514 297 l 19 944 b 33 972 10 958 17 972 m 496 1229 b 528 1204 517 1229 528 1221 l 528 1072 b 496 1047 528 1056 517 1047 l 360 1047 b 329 1072 340 1047 329 1056 l 329 1204 b 360 1229 329 1221 340 1229 m 885 1229 b 915 1204 904 1229 915 1221 l 915 1072 b 885 1047 915 1056 904 1047 l 747 1047 b 717 1072 728 1047 717 1056 l 717 1204 b 747 1229 717 1221 728 1229 "},"ά":{"ha":1271,"x_min":0,"x_max":0,"o":"m 951 763 b 1065 658 1025 763 1065 728 l 1065 278 b 1182 171 1065 199 1093 171 l 1247 171 b 1272 146 1264 171 1272 163 l 1272 25 b 1247 0 1272 8 1264 0 l 1149 0 b 958 71 1067 0 1003 26 b 735 0 906 26 831 0 l 406 0 b 76 281 161 0 76 75 l 76 482 b 406 763 76 686 161 763 m 778 1133 b 797 1100 797 1133 808 1122 l 663 844 b 621 813 651 824 642 813 l 515 813 b 494 846 494 813 485 825 l 611 1101 b 656 1133 621 1121 635 1133 m 274 315 b 425 169 274 200 304 169 l 725 169 b 868 315 844 169 868 197 l 868 550 b 821 592 868 581 857 592 l 425 592 b 274 447 304 592 274 563 "},"έ":{"ha":1006,"x_min":0,"x_max":0,"o":"m 932 763 b 961 733 951 763 961 753 l 961 622 b 932 593 961 603 951 593 l 332 593 b 251 540 269 593 251 581 l 251 510 b 332 457 251 471 272 457 l 897 457 b 925 428 917 457 925 447 l 925 339 b 897 310 925 319 917 310 l 332 310 b 249 251 269 310 249 294 l 249 221 b 331 168 249 182 269 168 l 932 168 b 961 139 951 168 961 160 l 961 29 b 932 0 961 8 951 0 l 271 0 b 54 188 117 0 54 65 l 54 251 b 131 392 54 315 79 363 b 61 531 85 424 61 471 l 61 582 b 294 763 61 707 129 763 m 701 1133 b 721 1100 721 1133 732 1122 l 586 844 b 544 813 575 824 565 813 l 439 813 b 418 846 418 813 408 825 l 535 1101 b 579 1133 544 1121 558 1133 "},"ή":{"ha":1339,"x_min":0,"x_max":0,"o":"m 813 763 b 1143 482 1058 763 1143 686 l 1143 -276 b 1113 -307 1143 -297 1133 -307 l 976 -307 b 946 -276 957 -307 946 -297 l 946 433 b 803 586 946 557 918 586 l 433 586 b 282 433 314 586 282 551 l 282 31 b 251 0 282 10 272 0 l 115 0 b 85 31 94 0 85 10 l 85 482 b 414 763 85 686 169 763 m 871 1133 b 890 1100 890 1133 901 1122 l 756 844 b 714 813 744 824 735 813 l 608 813 b 588 846 588 813 578 825 l 704 1101 b 749 1133 714 1121 728 1133 "},"ί":{"ha":567,"x_min":0,"x_max":0,"o":"m 251 763 b 282 732 272 763 282 751 l 282 276 b 399 171 282 199 310 171 l 518 171 b 543 146 535 171 543 163 l 543 25 b 518 0 543 8 535 0 l 365 0 b 85 276 151 0 85 72 l 85 732 b 115 763 85 751 94 763 m 397 1133 b 417 1100 417 1133 428 1122 l 282 844 b 240 813 271 824 261 813 l 135 813 b 114 846 114 813 104 825 l 231 1101 b 275 1133 240 1121 254 1133 "},"ΰ":{"ha":1217,"x_min":0,"x_max":0,"o":"m 251 763 b 272 757 260 763 267 760 b 276 753 274 756 274 754 l 276 751 b 282 732 281 744 282 739 l 282 328 b 303 217 282 275 288 239 b 306 211 303 214 304 213 b 333 190 313 201 322 194 b 336 189 335 189 335 189 b 354 183 342 186 347 185 b 357 182 356 182 357 182 b 369 179 358 182 368 181 b 379 179 372 179 375 179 b 383 178 381 178 382 178 b 393 178 386 178 389 178 b 397 176 394 178 396 178 b 403 176 400 176 401 176 b 408 176 404 176 407 176 b 414 176 410 176 413 176 b 425 176 418 176 421 176 l 782 176 b 794 176 786 176 790 176 b 800 176 796 176 797 176 b 811 178 803 176 807 176 b 835 179 819 178 828 178 b 844 181 839 179 842 181 b 861 185 850 182 856 183 b 885 194 869 188 878 190 b 888 196 886 194 886 196 b 890 197 889 196 889 197 b 893 200 892 199 892 199 b 899 204 894 201 897 203 b 901 206 899 204 900 206 b 903 208 901 207 903 207 b 906 210 904 208 904 210 b 907 213 906 211 907 213 b 914 221 910 215 911 218 b 918 229 915 224 917 226 b 922 240 919 233 921 236 b 928 254 925 244 926 250 b 928 258 928 256 928 257 b 932 281 929 265 931 272 b 932 285 932 282 932 283 b 933 290 932 288 933 289 b 933 311 933 297 933 304 b 935 317 935 313 935 315 b 935 322 935 318 935 321 b 935 328 935 325 935 326 l 935 732 b 935 736 935 735 935 735 b 936 743 935 740 935 742 l 936 746 b 939 750 938 749 939 750 b 943 756 942 754 942 754 l 944 756 b 951 760 949 758 950 760 b 956 761 953 761 954 761 b 965 763 961 763 963 763 l 1103 763 b 1107 761 1104 763 1106 763 b 1113 761 1110 761 1111 761 b 1121 757 1118 760 1119 758 l 1122 757 b 1125 753 1124 756 1125 754 l 1126 753 l 1126 751 b 1131 744 1129 746 1131 744 b 1132 738 1132 740 1132 739 l 1132 736 b 1132 732 1132 736 1132 735 l 1132 281 b 1132 271 1132 278 1132 274 b 1132 261 1132 267 1132 264 b 1132 251 1132 257 1132 254 b 1131 242 1131 247 1131 244 b 1131 232 1131 238 1131 235 b 1128 206 1129 222 1128 214 b 1125 189 1126 200 1125 194 b 1121 172 1124 183 1122 178 b 1115 150 1119 165 1117 157 b 1113 143 1114 147 1114 146 b 1104 124 1110 136 1107 129 b 1101 117 1103 121 1101 118 b 1097 111 1100 114 1099 113 b 1082 88 1093 103 1088 94 b 1074 78 1079 85 1076 81 b 1068 72 1072 76 1071 74 b 1053 58 1064 68 1058 64 b 1017 36 1042 49 1029 43 b 1004 31 1013 35 1008 32 b 996 28 1001 29 999 28 b 989 25 994 26 992 25 b 974 19 983 22 979 21 b 957 15 968 18 963 17 b 911 7 947 13 922 7 b 892 4 906 6 899 6 b 881 3 888 4 885 4 b 801 0 857 1 831 0 l 414 0 b 403 0 410 0 406 0 b 368 1 390 0 379 0 b 304 7 344 1 324 4 b 296 8 301 7 299 7 b 260 15 283 10 271 13 b 251 17 257 15 254 17 b 243 19 249 18 246 18 b 235 22 240 21 238 21 b 199 36 222 26 210 31 b 192 40 197 38 194 39 b 104 143 150 63 121 96 b 101 150 103 146 103 147 b 89 206 96 167 92 185 b 88 214 89 208 89 211 b 85 242 88 222 86 232 b 85 251 85 244 85 247 b 85 261 85 254 85 257 b 85 281 85 267 85 274 l 85 732 b 100 760 85 747 90 756 b 115 763 104 761 110 763 m 760 1133 b 779 1100 779 1133 790 1122 l 644 844 b 603 813 633 824 624 813 l 497 813 b 476 846 476 813 467 825 l 593 1101 b 638 1133 603 1121 617 1133 m 399 1044 b 429 1014 419 1044 429 1035 l 429 882 b 399 850 429 861 419 850 l 263 850 b 232 882 242 850 232 861 l 232 1014 b 263 1044 232 1035 242 1044 m 971 1044 b 1001 1014 992 1044 1001 1035 l 1001 882 b 971 850 1001 861 992 850 l 835 850 b 804 882 814 850 804 861 l 804 1014 b 835 1044 804 1035 814 1044 "},"α":{"ha":1303,"x_min":0,"x_max":0,"o":"m 951 763 b 1065 658 1025 763 1065 728 l 1065 278 b 1182 171 1065 199 1093 171 l 1247 171 b 1272 146 1264 171 1272 163 l 1272 25 b 1247 0 1272 8 1264 0 l 1149 0 b 958 71 1067 0 1003 26 b 735 0 906 26 831 0 l 406 0 b 76 281 161 0 76 75 l 76 482 b 406 763 76 686 161 763 m 274 315 b 425 169 274 200 304 169 l 725 169 b 868 315 844 169 868 197 l 868 550 b 821 592 868 581 857 592 l 425 592 b 274 447 304 592 274 563 "},"β":{"ha":1136,"x_min":0,"x_max":0,"o":"m 801 1042 b 1054 844 981 1042 1054 981 l 1054 697 b 981 543 1054 632 1028 579 b 1060 388 1033 508 1060 456 l 1060 206 b 825 0 1060 71 992 0 l 286 0 l 286 -276 b 256 -307 286 -297 276 -307 l 119 -307 b 89 -276 99 -307 89 -297 l 89 797 b 364 1042 89 974 157 1042 m 764 168 b 864 238 839 168 864 186 l 864 388 b 746 457 864 440 836 457 l 446 457 b 418 486 426 457 418 467 l 418 583 b 446 611 418 603 426 611 l 746 611 b 863 676 836 611 863 626 l 863 799 b 763 871 863 851 835 871 l 399 871 b 286 779 315 871 286 846 l 286 168 "},"γ":{"ha":1153,"x_min":0,"x_max":0,"o":"m 208 763 b 240 743 225 763 233 757 l 579 189 l 922 743 b 956 763 929 757 939 763 l 1113 763 b 1131 728 1131 763 1142 746 l 676 18 l 676 -276 b 646 -307 676 -297 665 -307 l 508 -307 b 478 -276 489 -307 478 -297 l 478 18 l 25 728 b 42 763 13 746 24 763 "},"δ":{"ha":1206,"x_min":0,"x_max":0,"o":"m 1043 1042 b 1071 1013 1063 1042 1071 1033 l 1071 900 b 1043 871 1071 879 1063 871 l 364 871 b 343 854 350 871 343 865 l 343 842 b 364 817 343 829 350 821 l 876 679 b 1129 381 1067 628 1129 551 l 1129 289 b 799 0 1129 78 1044 0 l 406 0 b 76 289 161 0 76 78 l 76 364 b 228 622 76 514 101 558 l 318 668 l 243 690 b 113 858 144 718 113 760 l 113 953 b 204 1042 113 1008 143 1042 m 365 532 b 274 393 293 490 274 463 l 274 311 b 425 169 274 200 306 169 l 779 169 b 932 306 899 169 932 200 l 932 388 b 824 526 932 469 904 503 l 511 614 "},"ε":{"ha":1006,"x_min":0,"x_max":0,"o":"m 932 763 b 961 733 951 763 961 753 l 961 622 b 932 593 961 603 951 593 l 332 593 b 251 540 269 593 251 581 l 251 510 b 332 457 251 471 272 457 l 897 457 b 925 428 917 457 925 447 l 925 339 b 897 310 925 319 917 310 l 332 310 b 249 251 269 310 249 294 l 249 221 b 331 168 249 182 269 168 l 932 168 b 961 139 951 168 961 160 l 961 29 b 932 0 961 8 951 0 l 271 0 b 54 188 117 0 54 65 l 54 251 b 131 392 54 315 79 363 b 61 531 85 424 61 471 l 61 582 b 294 763 61 707 129 763 "},"ζ":{"ha":1044,"x_min":0,"x_max":0,"o":"m 886 1042 b 983 956 953 1042 983 1015 l 983 829 b 918 731 983 774 971 754 l 388 492 b 285 338 310 457 285 419 l 285 289 b 436 172 285 199 318 172 l 697 172 b 978 -83 901 172 978 103 l 978 -276 b 947 -307 978 -297 967 -307 l 810 -307 b 779 -276 790 -307 779 -297 l 779 -121 b 678 0 779 -25 758 0 l 417 0 b 88 281 174 0 88 74 l 88 324 b 324 636 88 476 150 560 l 765 832 b 776 851 775 835 776 839 l 776 861 b 765 871 776 868 774 871 l 119 871 b 94 896 103 871 94 879 l 94 1017 b 119 1042 94 1033 103 1042 "},"η":{"ha":1228,"x_min":0,"x_max":0,"o":"m 813 763 b 1143 482 1058 763 1143 686 l 1143 -276 b 1113 -307 1143 -297 1133 -307 l 976 -307 b 946 -276 957 -307 946 -297 l 946 433 b 803 586 946 557 918 586 l 433 586 b 282 433 314 586 282 551 l 282 31 b 251 0 282 10 272 0 l 115 0 b 85 31 94 0 85 10 l 85 482 b 414 763 85 686 169 763 "},"θ":{"ha":1222,"x_min":0,"x_max":0,"o":"m 807 1043 b 1138 756 1050 1043 1138 968 l 1138 289 b 807 0 1138 76 1050 0 l 414 0 b 85 289 171 0 85 76 l 85 756 b 414 1043 85 968 171 1043 m 788 169 b 940 322 908 169 940 201 l 940 449 l 282 449 l 282 322 b 433 169 282 201 314 169 l 788 169 m 282 618 l 940 618 l 940 721 b 788 874 940 843 910 874 l 433 874 b 282 721 313 874 282 843 "},"ι":{"ha":567,"x_min":0,"x_max":0,"o":"m 251 763 b 282 732 272 763 282 751 l 282 276 b 399 171 282 199 310 171 l 518 171 b 543 146 535 171 543 163 l 543 25 b 518 0 543 8 535 0 l 365 0 b 85 276 151 0 85 72 l 85 732 b 115 763 85 751 94 763 "},"κ":{"ha":1036,"x_min":0,"x_max":0,"o":"m 254 763 b 285 732 275 763 285 751 l 285 465 l 472 465 b 611 519 558 465 578 472 l 765 739 b 808 763 778 757 786 763 l 964 763 b 978 725 985 763 992 743 l 799 479 b 715 392 771 442 744 413 b 813 301 753 369 785 339 l 1010 35 b 993 0 1021 18 1013 0 l 836 0 b 794 19 814 0 806 4 l 625 253 b 486 308 592 297 564 308 l 285 308 l 285 31 b 254 0 285 10 275 0 l 118 0 b 88 31 97 0 88 10 l 88 732 b 118 763 88 751 97 763 "},"λ":{"ha":1108,"x_min":0,"x_max":0,"o":"m 357 1042 b 590 907 481 1042 531 1013 l 1085 35 b 1067 0 1094 18 1086 0 l 908 0 b 875 18 892 0 882 6 l 565 564 l 224 21 b 183 -1 214 6 201 -1 l 42 -1 b 28 47 18 -1 14 26 l 467 736 l 413 833 b 338 871 394 865 382 871 l 254 871 b 229 896 238 871 229 879 l 229 1017 b 254 1042 229 1033 238 1042 "}}}
